<?xml version="1.0" encoding="utf-8" standalone="no"?>
<!DOCTYPE svg PUBLIC "-//W3C//DTD SVG 1.1//EN"
  "http://www.w3.org/Graphics/SVG/1.1/DTD/svg11.dtd">
<svg xmlns:xlink="http://www.w3.org/1999/xlink" width="1101.6pt" height="335.232pt" viewBox="0 0 1101.6 335.232" xmlns="http://www.w3.org/2000/svg" version="1.1">
 <metadata>
  <rdf:RDF xmlns:dc="http://purl.org/dc/elements/1.1/" xmlns:cc="http://creativecommons.org/ns#" xmlns:rdf="http://www.w3.org/1999/02/22-rdf-syntax-ns#">
   <cc:Work>
    <dc:type rdf:resource="http://purl.org/dc/dcmitype/StillImage"/>
    <dc:date>2026-04-12T21:53:30.381604</dc:date>
    <dc:format>image/svg+xml</dc:format>
    <dc:creator>
     <cc:Agent>
      <dc:title>Matplotlib v3.10.8, https://matplotlib.org/</dc:title>
     </cc:Agent>
    </dc:creator>
   </cc:Work>
  </rdf:RDF>
 </metadata>
 <defs>
  <style type="text/css">*{stroke-linejoin: round; stroke-linecap: butt}</style>
 </defs>
 <g id="figure_1">
  <g id="patch_1">
   <path d="M 0 335.232 
L 1101.6 335.232 
L 1101.6 -0 
L 0 -0 
z
" style="fill: #ffffff"/>
  </g>
  <g id="axes_1">
   <g id="patch_2">
    <path d="M 9.250275 287.825519 
L 29.72022 287.825519 
L 29.72022 151.742044 
L 9.250275 151.742044 
z
" clip-path="url(#p4a723db368)" style="fill: #f7f7f7; stroke: #777777; stroke-width: 0.8; stroke-linejoin: miter"/>
   </g>
   <g id="patch_3">
    <path d="M 29.72022 287.825519 
L 60.687573 287.825519 
L 60.687573 151.742044 
L 29.72022 151.742044 
z
" clip-path="url(#p4a723db368)" style="fill: #dfe8f5; stroke: #777777; stroke-width: 0.8; stroke-linejoin: miter"/>
   </g>
   <g id="patch_4">
    <path d="M 60.687573 287.825519 
L 82.732129 287.825519 
L 82.732129 151.742044 
L 60.687573 151.742044 
z
" clip-path="url(#p4a723db368)" style="fill: #e8f0cf; stroke: #777777; stroke-width: 0.8; stroke-linejoin: miter"/>
   </g>
   <g id="patch_5">
    <path d="M 82.732129 287.825519 
L 103.202074 287.825519 
L 103.202074 151.742044 
L 82.732129 151.742044 
z
" clip-path="url(#p4a723db368)" style="fill: #f7d8bf; stroke: #777777; stroke-width: 0.8; stroke-linejoin: miter"/>
   </g>
   <g id="patch_6">
    <path d="M 103.202074 287.825519 
L 119.473056 287.825519 
L 119.473056 151.742044 
L 103.202074 151.742044 
z
" clip-path="url(#p4a723db368)" style="fill: #f2f2c2; stroke: #777777; stroke-width: 0.8; stroke-linejoin: miter"/>
   </g>
   <g id="patch_7">
    <path d="M 119.473056 287.825519 
L 154.639372 287.825519 
L 154.639372 151.742044 
L 119.473056 151.742044 
z
" clip-path="url(#p4a723db368)" style="fill: #d8e8cf; stroke: #cf4d32; stroke-width: 2; stroke-linejoin: miter"/>
   </g>
   <g id="patch_8">
    <path d="M 154.639372 287.825519 
L 173.534705 287.825519 
L 173.534705 151.742044 
L 154.639372 151.742044 
z
" clip-path="url(#p4a723db368)" style="fill: #e4d8f5; stroke: #777777; stroke-width: 0.8; stroke-linejoin: miter"/>
   </g>
   <g id="patch_9">
    <path d="M 173.534705 287.825519 
L 193.47978 287.825519 
L 193.47978 151.742044 
L 173.534705 151.742044 
z
" clip-path="url(#p4a723db368)" style="fill: #d9d9d9; stroke: #777777; stroke-width: 0.8; stroke-linejoin: miter"/>
   </g>
   <g id="patch_10">
    <path d="M 193.47978 287.825519 
L 213.949725 287.825519 
L 213.949725 151.742044 
L 193.47978 151.742044 
z
" clip-path="url(#p4a723db368)" style="fill: #f7f7f7; stroke: #777777; stroke-width: 0.8; stroke-linejoin: miter"/>
   </g>
   <g id="line2d_1">
    <path d="M 137.056214 148.649237 
L 137.056214 123.906787 
" clip-path="url(#p4a723db368)" style="fill: none; stroke: #cf4d32; stroke-width: 1.3; stroke-linecap: square"/>
   </g>
   <g id="text_1">
    <!-- PVK -->
    <g style="fill: #cf4d32" transform="translate(127.827854 105.10755) scale(0.095 -0.095)">
     <defs>
      <path id="DejaVuSans-50" d="M 1259 4147 
L 1259 2394 
L 2053 2394 
Q 2494 2394 2734 2622 
Q 2975 2850 2975 3272 
Q 2975 3691 2734 3919 
Q 2494 4147 2053 4147 
L 1259 4147 
z
M 628 4666 
L 2053 4666 
Q 2838 4666 3239 4311 
Q 3641 3956 3641 3272 
Q 3641 2581 3239 2228 
Q 2838 1875 2053 1875 
L 1259 1875 
L 1259 0 
L 628 0 
L 628 4666 
z
" transform="scale(0.015625)"/>
      <path id="DejaVuSans-56" d="M 1831 0 
L 50 4666 
L 709 4666 
L 2188 738 
L 3669 4666 
L 4325 4666 
L 2547 0 
L 1831 0 
z
" transform="scale(0.015625)"/>
      <path id="DejaVuSans-4b" d="M 628 4666 
L 1259 4666 
L 1259 2694 
L 3353 4666 
L 4166 4666 
L 1850 2491 
L 4331 0 
L 3500 0 
L 1259 2247 
L 1259 0 
L 628 0 
L 628 4666 
z
" transform="scale(0.015625)"/>
     </defs>
     <use xlink:href="#DejaVuSans-50"/>
     <use xlink:href="#DejaVuSans-56" transform="translate(60.302734 0)"/>
     <use xlink:href="#DejaVuSans-4b" transform="translate(128.710938 0)"/>
    </g>
    <!-- varied -->
    <g style="fill: #cf4d32" transform="translate(122.123401 115.745472) scale(0.095 -0.095)">
     <defs>
      <path id="DejaVuSans-76" d="M 191 3500 
L 800 3500 
L 1894 563 
L 2988 3500 
L 3597 3500 
L 2284 0 
L 1503 0 
L 191 3500 
z
" transform="scale(0.015625)"/>
      <path id="DejaVuSans-61" d="M 2194 1759 
Q 1497 1759 1228 1600 
Q 959 1441 959 1056 
Q 959 750 1161 570 
Q 1363 391 1709 391 
Q 2188 391 2477 730 
Q 2766 1069 2766 1631 
L 2766 1759 
L 2194 1759 
z
M 3341 1997 
L 3341 0 
L 2766 0 
L 2766 531 
Q 2569 213 2275 61 
Q 1981 -91 1556 -91 
Q 1019 -91 701 211 
Q 384 513 384 1019 
Q 384 1609 779 1909 
Q 1175 2209 1959 2209 
L 2766 2209 
L 2766 2266 
Q 2766 2663 2505 2880 
Q 2244 3097 1772 3097 
Q 1472 3097 1187 3025 
Q 903 2953 641 2809 
L 641 3341 
Q 956 3463 1253 3523 
Q 1550 3584 1831 3584 
Q 2591 3584 2966 3190 
Q 3341 2797 3341 1997 
z
" transform="scale(0.015625)"/>
      <path id="DejaVuSans-72" d="M 2631 2963 
Q 2534 3019 2420 3045 
Q 2306 3072 2169 3072 
Q 1681 3072 1420 2755 
Q 1159 2438 1159 1844 
L 1159 0 
L 581 0 
L 581 3500 
L 1159 3500 
L 1159 2956 
Q 1341 3275 1631 3429 
Q 1922 3584 2338 3584 
Q 2397 3584 2469 3576 
Q 2541 3569 2628 3553 
L 2631 2963 
z
" transform="scale(0.015625)"/>
      <path id="DejaVuSans-69" d="M 603 3500 
L 1178 3500 
L 1178 0 
L 603 0 
L 603 3500 
z
M 603 4863 
L 1178 4863 
L 1178 4134 
L 603 4134 
L 603 4863 
z
" transform="scale(0.015625)"/>
      <path id="DejaVuSans-65" d="M 3597 1894 
L 3597 1613 
L 953 1613 
Q 991 1019 1311 708 
Q 1631 397 2203 397 
Q 2534 397 2845 478 
Q 3156 559 3463 722 
L 3463 178 
Q 3153 47 2828 -22 
Q 2503 -91 2169 -91 
Q 1331 -91 842 396 
Q 353 884 353 1716 
Q 353 2575 817 3079 
Q 1281 3584 2069 3584 
Q 2775 3584 3186 3129 
Q 3597 2675 3597 1894 
z
M 3022 2063 
Q 3016 2534 2758 2815 
Q 2500 3097 2075 3097 
Q 1594 3097 1305 2825 
Q 1016 2553 972 2059 
L 3022 2063 
z
" transform="scale(0.015625)"/>
      <path id="DejaVuSans-64" d="M 2906 2969 
L 2906 4863 
L 3481 4863 
L 3481 0 
L 2906 0 
L 2906 525 
Q 2725 213 2448 61 
Q 2172 -91 1784 -91 
Q 1150 -91 751 415 
Q 353 922 353 1747 
Q 353 2572 751 3078 
Q 1150 3584 1784 3584 
Q 2172 3584 2448 3432 
Q 2725 3281 2906 2969 
z
M 947 1747 
Q 947 1113 1208 752 
Q 1469 391 1925 391 
Q 2381 391 2643 752 
Q 2906 1113 2906 1747 
Q 2906 2381 2643 2742 
Q 2381 3103 1925 3103 
Q 1469 3103 1208 2742 
Q 947 2381 947 1747 
z
" transform="scale(0.015625)"/>
     </defs>
     <use xlink:href="#DejaVuSans-76"/>
     <use xlink:href="#DejaVuSans-61" transform="translate(59.179688 0)"/>
     <use xlink:href="#DejaVuSans-72" transform="translate(120.458984 0)"/>
     <use xlink:href="#DejaVuSans-69" transform="translate(161.572266 0)"/>
     <use xlink:href="#DejaVuSans-65" transform="translate(189.355469 0)"/>
     <use xlink:href="#DejaVuSans-64" transform="translate(250.878906 0)"/>
    </g>
   </g>
   <g id="text_2">
    <!-- Thickness -->
    <g transform="translate(78.149062 72.6075) scale(0.12 -0.12)">
     <defs>
      <path id="DejaVuSans-Bold-54" d="M 31 4666 
L 4331 4666 
L 4331 3756 
L 2784 3756 
L 2784 0 
L 1581 0 
L 1581 3756 
L 31 3756 
L 31 4666 
z
" transform="scale(0.015625)"/>
      <path id="DejaVuSans-Bold-68" d="M 4056 2131 
L 4056 0 
L 2931 0 
L 2931 347 
L 2931 1625 
Q 2931 2084 2911 2256 
Q 2891 2428 2841 2509 
Q 2775 2619 2662 2680 
Q 2550 2741 2406 2741 
Q 2056 2741 1856 2470 
Q 1656 2200 1656 1722 
L 1656 0 
L 538 0 
L 538 4863 
L 1656 4863 
L 1656 2988 
Q 1909 3294 2193 3439 
Q 2478 3584 2822 3584 
Q 3428 3584 3742 3212 
Q 4056 2841 4056 2131 
z
" transform="scale(0.015625)"/>
      <path id="DejaVuSans-Bold-69" d="M 538 3500 
L 1656 3500 
L 1656 0 
L 538 0 
L 538 3500 
z
M 538 4863 
L 1656 4863 
L 1656 3950 
L 538 3950 
L 538 4863 
z
" transform="scale(0.015625)"/>
      <path id="DejaVuSans-Bold-63" d="M 3366 3391 
L 3366 2478 
Q 3138 2634 2908 2709 
Q 2678 2784 2431 2784 
Q 1963 2784 1702 2511 
Q 1441 2238 1441 1747 
Q 1441 1256 1702 982 
Q 1963 709 2431 709 
Q 2694 709 2930 787 
Q 3166 866 3366 1019 
L 3366 103 
Q 3103 6 2833 -42 
Q 2563 -91 2291 -91 
Q 1344 -91 809 395 
Q 275 881 275 1747 
Q 275 2613 809 3098 
Q 1344 3584 2291 3584 
Q 2566 3584 2833 3536 
Q 3100 3488 3366 3391 
z
" transform="scale(0.015625)"/>
      <path id="DejaVuSans-Bold-6b" d="M 538 4863 
L 1656 4863 
L 1656 2216 
L 2944 3500 
L 4244 3500 
L 2534 1894 
L 4378 0 
L 3022 0 
L 1656 1459 
L 1656 0 
L 538 0 
L 538 4863 
z
" transform="scale(0.015625)"/>
      <path id="DejaVuSans-Bold-6e" d="M 4056 2131 
L 4056 0 
L 2931 0 
L 2931 347 
L 2931 1631 
Q 2931 2084 2911 2256 
Q 2891 2428 2841 2509 
Q 2775 2619 2662 2680 
Q 2550 2741 2406 2741 
Q 2056 2741 1856 2470 
Q 1656 2200 1656 1722 
L 1656 0 
L 538 0 
L 538 3500 
L 1656 3500 
L 1656 2988 
Q 1909 3294 2193 3439 
Q 2478 3584 2822 3584 
Q 3428 3584 3742 3212 
Q 4056 2841 4056 2131 
z
" transform="scale(0.015625)"/>
      <path id="DejaVuSans-Bold-65" d="M 4031 1759 
L 4031 1441 
L 1416 1441 
Q 1456 1047 1700 850 
Q 1944 653 2381 653 
Q 2734 653 3104 758 
Q 3475 863 3866 1075 
L 3866 213 
Q 3469 63 3072 -14 
Q 2675 -91 2278 -91 
Q 1328 -91 801 392 
Q 275 875 275 1747 
Q 275 2603 792 3093 
Q 1309 3584 2216 3584 
Q 3041 3584 3536 3087 
Q 4031 2591 4031 1759 
z
M 2881 2131 
Q 2881 2450 2695 2645 
Q 2509 2841 2209 2841 
Q 1884 2841 1681 2658 
Q 1478 2475 1428 2131 
L 2881 2131 
z
" transform="scale(0.015625)"/>
      <path id="DejaVuSans-Bold-73" d="M 3272 3391 
L 3272 2541 
Q 2913 2691 2578 2766 
Q 2244 2841 1947 2841 
Q 1628 2841 1473 2761 
Q 1319 2681 1319 2516 
Q 1319 2381 1436 2309 
Q 1553 2238 1856 2203 
L 2053 2175 
Q 2913 2066 3209 1816 
Q 3506 1566 3506 1031 
Q 3506 472 3093 190 
Q 2681 -91 1863 -91 
Q 1516 -91 1145 -36 
Q 775 19 384 128 
L 384 978 
Q 719 816 1070 734 
Q 1422 653 1784 653 
Q 2113 653 2278 743 
Q 2444 834 2444 1013 
Q 2444 1163 2330 1236 
Q 2216 1309 1875 1350 
L 1678 1375 
Q 931 1469 631 1722 
Q 331 1975 331 2491 
Q 331 3047 712 3315 
Q 1094 3584 1881 3584 
Q 2191 3584 2531 3537 
Q 2872 3491 3272 3391 
z
" transform="scale(0.015625)"/>
     </defs>
     <use xlink:href="#DejaVuSans-Bold-54"/>
     <use xlink:href="#DejaVuSans-Bold-68" transform="translate(68.212891 0)"/>
     <use xlink:href="#DejaVuSans-Bold-69" transform="translate(139.404297 0)"/>
     <use xlink:href="#DejaVuSans-Bold-63" transform="translate(173.681641 0)"/>
     <use xlink:href="#DejaVuSans-Bold-6b" transform="translate(232.958984 0)"/>
     <use xlink:href="#DejaVuSans-Bold-6e" transform="translate(299.462891 0)"/>
     <use xlink:href="#DejaVuSans-Bold-65" transform="translate(370.654297 0)"/>
     <use xlink:href="#DejaVuSans-Bold-73" transform="translate(438.476562 0)"/>
     <use xlink:href="#DejaVuSans-Bold-73" transform="translate(497.998047 0)"/>
    </g>
   </g>
  </g>
  <g id="axes_2">
   <g id="patch_11">
    <path d="M 228.76625 287.825519 
L 248.397288 287.825519 
L 248.397288 151.742044 
L 228.76625 151.742044 
z
" clip-path="url(#p38cdaa1da6)" style="fill: #f7f7f7; stroke: #777777; stroke-width: 0.8; stroke-linejoin: miter"/>
   </g>
   <g id="patch_12">
    <path d="M 248.397288 287.825519 
L 278.095525 287.825519 
L 278.095525 151.742044 
L 248.397288 151.742044 
z
" clip-path="url(#p38cdaa1da6)" style="fill: #dfe8f5; stroke: #777777; stroke-width: 0.8; stroke-linejoin: miter"/>
   </g>
   <g id="patch_13">
    <path d="M 278.095525 287.825519 
L 299.236643 287.825519 
L 299.236643 151.742044 
L 278.095525 151.742044 
z
" clip-path="url(#p38cdaa1da6)" style="fill: #e8f0cf; stroke: #777777; stroke-width: 0.8; stroke-linejoin: miter"/>
   </g>
   <g id="patch_14">
    <path d="M 299.236643 287.825519 
L 318.867681 287.825519 
L 318.867681 151.742044 
L 299.236643 151.742044 
z
" clip-path="url(#p38cdaa1da6)" style="fill: #f7d8bf; stroke: #777777; stroke-width: 0.8; stroke-linejoin: miter"/>
   </g>
   <g id="patch_15">
    <path d="M 318.867681 287.825519 
L 334.47184 287.825519 
L 334.47184 151.742044 
L 318.867681 151.742044 
z
" clip-path="url(#p38cdaa1da6)" style="fill: #f2f2c2; stroke: #777777; stroke-width: 0.8; stroke-linejoin: miter"/>
   </g>
   <g id="patch_16">
    <path d="M 334.47184 287.825519 
L 368.196956 287.825519 
L 368.196956 151.742044 
L 334.47184 151.742044 
z
" clip-path="url(#p38cdaa1da6)" style="fill: #d8e8cf; stroke: #777777; stroke-width: 0.8; stroke-linejoin: miter"/>
   </g>
   <g id="patch_17">
    <path d="M 368.196956 287.825519 
L 376.754076 287.825519 
L 376.754076 151.742044 
L 368.196956 151.742044 
z
" clip-path="url(#p38cdaa1da6)" style="fill: #fff0d8; stroke: #cc6d1f; stroke-width: 2; stroke-linejoin: miter"/>
   </g>
   <g id="patch_18">
    <path d="M 376.754076 287.825519 
L 394.875034 287.825519 
L 394.875034 151.742044 
L 376.754076 151.742044 
z
" clip-path="url(#p38cdaa1da6)" style="fill: #e4d8f5; stroke: #777777; stroke-width: 0.8; stroke-linejoin: miter"/>
   </g>
   <g id="patch_19">
    <path d="M 394.875034 287.825519 
L 414.002712 287.825519 
L 414.002712 151.742044 
L 394.875034 151.742044 
z
" clip-path="url(#p38cdaa1da6)" style="fill: #d9d9d9; stroke: #777777; stroke-width: 0.8; stroke-linejoin: miter"/>
   </g>
   <g id="patch_20">
    <path d="M 414.002712 287.825519 
L 433.63375 287.825519 
L 433.63375 151.742044 
L 414.002712 151.742044 
z
" clip-path="url(#p38cdaa1da6)" style="fill: #f7f7f7; stroke: #777777; stroke-width: 0.8; stroke-linejoin: miter"/>
   </g>
   <g id="line2d_2">
    <path d="M 372.475516 148.649237 
L 372.475516 123.906787 
" clip-path="url(#p38cdaa1da6)" style="fill: none; stroke: #cc6d1f; stroke-width: 1.3; stroke-linecap: square"/>
   </g>
   <g id="text_3">
    <!-- mix -->
    <g style="fill: #cc6d1f" transform="translate(363.717704 115.745472) scale(0.095 -0.095)">
     <defs>
      <path id="DejaVuSans-6d" d="M 3328 2828 
Q 3544 3216 3844 3400 
Q 4144 3584 4550 3584 
Q 5097 3584 5394 3201 
Q 5691 2819 5691 2113 
L 5691 0 
L 5113 0 
L 5113 2094 
Q 5113 2597 4934 2840 
Q 4756 3084 4391 3084 
Q 3944 3084 3684 2787 
Q 3425 2491 3425 1978 
L 3425 0 
L 2847 0 
L 2847 2094 
Q 2847 2600 2669 2842 
Q 2491 3084 2119 3084 
Q 1678 3084 1418 2786 
Q 1159 2488 1159 1978 
L 1159 0 
L 581 0 
L 581 3500 
L 1159 3500 
L 1159 2956 
Q 1356 3278 1631 3431 
Q 1906 3584 2284 3584 
Q 2666 3584 2933 3390 
Q 3200 3197 3328 2828 
z
" transform="scale(0.015625)"/>
      <path id="DejaVuSans-78" d="M 3513 3500 
L 2247 1797 
L 3578 0 
L 2900 0 
L 1881 1375 
L 863 0 
L 184 0 
L 1544 1831 
L 300 3500 
L 978 3500 
L 1906 2253 
L 2834 3500 
L 3513 3500 
z
" transform="scale(0.015625)"/>
     </defs>
     <use xlink:href="#DejaVuSans-6d"/>
     <use xlink:href="#DejaVuSans-69" transform="translate(97.412109 0)"/>
     <use xlink:href="#DejaVuSans-78" transform="translate(125.195312 0)"/>
    </g>
   </g>
   <g id="text_4">
    <!-- Rear-BEMA -->
    <g transform="translate(293.72625 72.6075) scale(0.12 -0.12)">
     <defs>
      <path id="DejaVuSans-Bold-52" d="M 2297 2597 
Q 2675 2597 2839 2737 
Q 3003 2878 3003 3200 
Q 3003 3519 2839 3656 
Q 2675 3794 2297 3794 
L 1791 3794 
L 1791 2597 
L 2297 2597 
z
M 1791 1766 
L 1791 0 
L 588 0 
L 588 4666 
L 2425 4666 
Q 3347 4666 3776 4356 
Q 4206 4047 4206 3378 
Q 4206 2916 3982 2619 
Q 3759 2322 3309 2181 
Q 3556 2125 3751 1926 
Q 3947 1728 4147 1325 
L 4800 0 
L 3519 0 
L 2950 1159 
Q 2778 1509 2601 1637 
Q 2425 1766 2131 1766 
L 1791 1766 
z
" transform="scale(0.015625)"/>
      <path id="DejaVuSans-Bold-61" d="M 2106 1575 
Q 1756 1575 1579 1456 
Q 1403 1338 1403 1106 
Q 1403 894 1545 773 
Q 1688 653 1941 653 
Q 2256 653 2472 879 
Q 2688 1106 2688 1447 
L 2688 1575 
L 2106 1575 
z
M 3816 1997 
L 3816 0 
L 2688 0 
L 2688 519 
Q 2463 200 2181 54 
Q 1900 -91 1497 -91 
Q 953 -91 614 226 
Q 275 544 275 1050 
Q 275 1666 698 1953 
Q 1122 2241 2028 2241 
L 2688 2241 
L 2688 2328 
Q 2688 2594 2478 2717 
Q 2269 2841 1825 2841 
Q 1466 2841 1156 2769 
Q 847 2697 581 2553 
L 581 3406 
Q 941 3494 1303 3539 
Q 1666 3584 2028 3584 
Q 2975 3584 3395 3211 
Q 3816 2838 3816 1997 
z
" transform="scale(0.015625)"/>
      <path id="DejaVuSans-Bold-72" d="M 3138 2547 
Q 2991 2616 2845 2648 
Q 2700 2681 2553 2681 
Q 2122 2681 1889 2404 
Q 1656 2128 1656 1613 
L 1656 0 
L 538 0 
L 538 3500 
L 1656 3500 
L 1656 2925 
Q 1872 3269 2151 3426 
Q 2431 3584 2822 3584 
Q 2878 3584 2943 3579 
Q 3009 3575 3134 3559 
L 3138 2547 
z
" transform="scale(0.015625)"/>
      <path id="DejaVuSans-Bold-2d" d="M 347 2297 
L 2309 2297 
L 2309 1388 
L 347 1388 
L 347 2297 
z
" transform="scale(0.015625)"/>
      <path id="DejaVuSans-Bold-42" d="M 2456 2859 
Q 2741 2859 2887 2984 
Q 3034 3109 3034 3353 
Q 3034 3594 2887 3720 
Q 2741 3847 2456 3847 
L 1791 3847 
L 1791 2859 
L 2456 2859 
z
M 2497 819 
Q 2859 819 3042 972 
Q 3225 1125 3225 1434 
Q 3225 1738 3044 1889 
Q 2863 2041 2497 2041 
L 1791 2041 
L 1791 819 
L 2497 819 
z
M 3616 2497 
Q 4003 2384 4215 2081 
Q 4428 1778 4428 1338 
Q 4428 663 3972 331 
Q 3516 0 2584 0 
L 588 0 
L 588 4666 
L 2394 4666 
Q 3366 4666 3802 4372 
Q 4238 4078 4238 3431 
Q 4238 3091 4078 2852 
Q 3919 2613 3616 2497 
z
" transform="scale(0.015625)"/>
      <path id="DejaVuSans-Bold-45" d="M 588 4666 
L 3834 4666 
L 3834 3756 
L 1791 3756 
L 1791 2888 
L 3713 2888 
L 3713 1978 
L 1791 1978 
L 1791 909 
L 3903 909 
L 3903 0 
L 588 0 
L 588 4666 
z
" transform="scale(0.015625)"/>
      <path id="DejaVuSans-Bold-4d" d="M 588 4666 
L 2119 4666 
L 3181 2169 
L 4250 4666 
L 5778 4666 
L 5778 0 
L 4641 0 
L 4641 3413 
L 3566 897 
L 2803 897 
L 1728 3413 
L 1728 0 
L 588 0 
L 588 4666 
z
" transform="scale(0.015625)"/>
      <path id="DejaVuSans-Bold-41" d="M 3419 850 
L 1538 850 
L 1241 0 
L 31 0 
L 1759 4666 
L 3194 4666 
L 4922 0 
L 3713 0 
L 3419 850 
z
M 1838 1716 
L 3116 1716 
L 2478 3572 
L 1838 1716 
z
" transform="scale(0.015625)"/>
     </defs>
     <use xlink:href="#DejaVuSans-Bold-52"/>
     <use xlink:href="#DejaVuSans-Bold-65" transform="translate(77.001953 0)"/>
     <use xlink:href="#DejaVuSans-Bold-61" transform="translate(144.824219 0)"/>
     <use xlink:href="#DejaVuSans-Bold-72" transform="translate(212.304688 0)"/>
     <use xlink:href="#DejaVuSans-Bold-2d" transform="translate(261.621094 0)"/>
     <use xlink:href="#DejaVuSans-Bold-42" transform="translate(303.125 0)"/>
     <use xlink:href="#DejaVuSans-Bold-45" transform="translate(379.345703 0)"/>
     <use xlink:href="#DejaVuSans-Bold-4d" transform="translate(447.65625 0)"/>
     <use xlink:href="#DejaVuSans-Bold-41" transform="translate(547.167969 0)"/>
    </g>
   </g>
  </g>
  <g id="axes_3">
   <g id="patch_21">
    <path d="M 448.361521 287.825519 
L 467.945348 287.825519 
L 467.945348 151.742044 
L 448.361521 151.742044 
z
" clip-path="url(#p600ec92146)" style="fill: #f7f7f7; stroke: #777777; stroke-width: 0.8; stroke-linejoin: miter"/>
   </g>
   <g id="patch_22">
    <path d="M 467.945348 287.825519 
L 497.572163 287.825519 
L 497.572163 151.742044 
L 467.945348 151.742044 
z
" clip-path="url(#p600ec92146)" style="fill: #dfe8f5; stroke: #777777; stroke-width: 0.8; stroke-linejoin: miter"/>
   </g>
   <g id="patch_23">
    <path d="M 497.572163 287.825519 
L 518.662438 287.825519 
L 518.662438 151.742044 
L 497.572163 151.742044 
z
" clip-path="url(#p600ec92146)" style="fill: #e8f0cf; stroke: #777777; stroke-width: 0.8; stroke-linejoin: miter"/>
   </g>
   <g id="patch_24">
    <path d="M 518.662438 287.825519 
L 538.246265 287.825519 
L 538.246265 151.742044 
L 518.662438 151.742044 
z
" clip-path="url(#p600ec92146)" style="fill: #f7d8bf; stroke: #777777; stroke-width: 0.8; stroke-linejoin: miter"/>
   </g>
   <g id="patch_25">
    <path d="M 538.246265 287.825519 
L 553.812896 287.825519 
L 553.812896 151.742044 
L 538.246265 151.742044 
z
" clip-path="url(#p600ec92146)" style="fill: #f2f2c2; stroke: #777777; stroke-width: 0.8; stroke-linejoin: miter"/>
   </g>
   <g id="patch_26">
    <path d="M 553.812896 287.825519 
L 562.851586 287.825519 
L 562.851586 151.742044 
L 553.812896 151.742044 
z
" clip-path="url(#p600ec92146)" style="fill: #fff0d8; stroke: #cc6d1f; stroke-width: 2; stroke-linejoin: miter"/>
   </g>
   <g id="patch_27">
    <path d="M 562.851586 287.825519 
L 596.495596 287.825519 
L 596.495596 151.742044 
L 562.851586 151.742044 
z
" clip-path="url(#p600ec92146)" style="fill: #d8e8cf; stroke: #777777; stroke-width: 0.8; stroke-linejoin: miter"/>
   </g>
   <g id="patch_28">
    <path d="M 596.495596 287.825519 
L 614.572975 287.825519 
L 614.572975 151.742044 
L 596.495596 151.742044 
z
" clip-path="url(#p600ec92146)" style="fill: #e4d8f5; stroke: #777777; stroke-width: 0.8; stroke-linejoin: miter"/>
   </g>
   <g id="patch_29">
    <path d="M 614.572975 287.825519 
L 633.654652 287.825519 
L 633.654652 151.742044 
L 614.572975 151.742044 
z
" clip-path="url(#p600ec92146)" style="fill: #d9d9d9; stroke: #777777; stroke-width: 0.8; stroke-linejoin: miter"/>
   </g>
   <g id="patch_30">
    <path d="M 633.654652 287.825519 
L 653.238479 287.825519 
L 653.238479 151.742044 
L 633.654652 151.742044 
z
" clip-path="url(#p600ec92146)" style="fill: #f7f7f7; stroke: #777777; stroke-width: 0.8; stroke-linejoin: miter"/>
   </g>
   <g id="line2d_3">
    <path d="M 558.332241 148.649237 
L 558.332241 123.906787 
" clip-path="url(#p600ec92146)" style="fill: none; stroke: #cc6d1f; stroke-width: 1.3; stroke-linecap: square"/>
   </g>
   <g id="text_5">
    <!-- proxy -->
    <g style="fill: #cc6d1f" transform="translate(545.090132 115.745472) scale(0.095 -0.095)">
     <defs>
      <path id="DejaVuSans-70" d="M 1159 525 
L 1159 -1331 
L 581 -1331 
L 581 3500 
L 1159 3500 
L 1159 2969 
Q 1341 3281 1617 3432 
Q 1894 3584 2278 3584 
Q 2916 3584 3314 3078 
Q 3713 2572 3713 1747 
Q 3713 922 3314 415 
Q 2916 -91 2278 -91 
Q 1894 -91 1617 61 
Q 1341 213 1159 525 
z
M 3116 1747 
Q 3116 2381 2855 2742 
Q 2594 3103 2138 3103 
Q 1681 3103 1420 2742 
Q 1159 2381 1159 1747 
Q 1159 1113 1420 752 
Q 1681 391 2138 391 
Q 2594 391 2855 752 
Q 3116 1113 3116 1747 
z
" transform="scale(0.015625)"/>
      <path id="DejaVuSans-6f" d="M 1959 3097 
Q 1497 3097 1228 2736 
Q 959 2375 959 1747 
Q 959 1119 1226 758 
Q 1494 397 1959 397 
Q 2419 397 2687 759 
Q 2956 1122 2956 1747 
Q 2956 2369 2687 2733 
Q 2419 3097 1959 3097 
z
M 1959 3584 
Q 2709 3584 3137 3096 
Q 3566 2609 3566 1747 
Q 3566 888 3137 398 
Q 2709 -91 1959 -91 
Q 1206 -91 779 398 
Q 353 888 353 1747 
Q 353 2609 779 3096 
Q 1206 3584 1959 3584 
z
" transform="scale(0.015625)"/>
      <path id="DejaVuSans-79" d="M 2059 -325 
Q 1816 -950 1584 -1140 
Q 1353 -1331 966 -1331 
L 506 -1331 
L 506 -850 
L 844 -850 
Q 1081 -850 1212 -737 
Q 1344 -625 1503 -206 
L 1606 56 
L 191 3500 
L 800 3500 
L 1894 763 
L 2988 3500 
L 3597 3500 
L 2059 -325 
z
" transform="scale(0.015625)"/>
     </defs>
     <use xlink:href="#DejaVuSans-70"/>
     <use xlink:href="#DejaVuSans-72" transform="translate(63.476562 0)"/>
     <use xlink:href="#DejaVuSans-6f" transform="translate(102.339844 0)"/>
     <use xlink:href="#DejaVuSans-78" transform="translate(160.396484 0)"/>
     <use xlink:href="#DejaVuSans-79" transform="translate(219.576172 0)"/>
    </g>
   </g>
   <g id="text_6">
    <!-- Front-BEMA -->
    <g transform="translate(511.0875 72.6075) scale(0.12 -0.12)">
     <defs>
      <path id="DejaVuSans-Bold-46" d="M 588 4666 
L 3834 4666 
L 3834 3756 
L 1791 3756 
L 1791 2888 
L 3713 2888 
L 3713 1978 
L 1791 1978 
L 1791 0 
L 588 0 
L 588 4666 
z
" transform="scale(0.015625)"/>
      <path id="DejaVuSans-Bold-6f" d="M 2203 2784 
Q 1831 2784 1636 2517 
Q 1441 2250 1441 1747 
Q 1441 1244 1636 976 
Q 1831 709 2203 709 
Q 2569 709 2762 976 
Q 2956 1244 2956 1747 
Q 2956 2250 2762 2517 
Q 2569 2784 2203 2784 
z
M 2203 3584 
Q 3106 3584 3614 3096 
Q 4122 2609 4122 1747 
Q 4122 884 3614 396 
Q 3106 -91 2203 -91 
Q 1297 -91 786 396 
Q 275 884 275 1747 
Q 275 2609 786 3096 
Q 1297 3584 2203 3584 
z
" transform="scale(0.015625)"/>
      <path id="DejaVuSans-Bold-74" d="M 1759 4494 
L 1759 3500 
L 2913 3500 
L 2913 2700 
L 1759 2700 
L 1759 1216 
Q 1759 972 1856 886 
Q 1953 800 2241 800 
L 2816 800 
L 2816 0 
L 1856 0 
Q 1194 0 917 276 
Q 641 553 641 1216 
L 641 2700 
L 84 2700 
L 84 3500 
L 641 3500 
L 641 4494 
L 1759 4494 
z
" transform="scale(0.015625)"/>
     </defs>
     <use xlink:href="#DejaVuSans-Bold-46"/>
     <use xlink:href="#DejaVuSans-Bold-72" transform="translate(61.935547 0)"/>
     <use xlink:href="#DejaVuSans-Bold-6f" transform="translate(111.251953 0)"/>
     <use xlink:href="#DejaVuSans-Bold-6e" transform="translate(179.953125 0)"/>
     <use xlink:href="#DejaVuSans-Bold-74" transform="translate(251.144531 0)"/>
     <use xlink:href="#DejaVuSans-Bold-2d" transform="translate(298.947266 0)"/>
     <use xlink:href="#DejaVuSans-Bold-42" transform="translate(340.451172 0)"/>
     <use xlink:href="#DejaVuSans-Bold-45" transform="translate(416.671875 0)"/>
     <use xlink:href="#DejaVuSans-Bold-4d" transform="translate(484.982422 0)"/>
     <use xlink:href="#DejaVuSans-Bold-41" transform="translate(584.494141 0)"/>
    </g>
   </g>
  </g>
  <g id="axes_4">
   <g id="patch_31">
    <path d="M 667.980574 287.825519 
L 687.754621 287.825519 
L 687.754621 151.742044 
L 667.980574 151.742044 
z
" clip-path="url(#p17bfa4abba)" style="fill: #f7f7f7; stroke: #777777; stroke-width: 0.8; stroke-linejoin: miter"/>
   </g>
   <g id="patch_32">
    <path d="M 687.754621 287.825519 
L 717.669206 287.825519 
L 717.669206 151.742044 
L 687.754621 151.742044 
z
" clip-path="url(#p17bfa4abba)" style="fill: #dfe8f5; stroke: #777777; stroke-width: 0.8; stroke-linejoin: miter"/>
   </g>
   <g id="patch_33">
    <path d="M 717.669206 287.825519 
L 738.964334 287.825519 
L 738.964334 151.742044 
L 717.669206 151.742044 
z
" clip-path="url(#p17bfa4abba)" style="fill: #e8f0cf; stroke: #777777; stroke-width: 0.8; stroke-linejoin: miter"/>
   </g>
   <g id="patch_34">
    <path d="M 738.964334 287.825519 
L 758.738382 287.825519 
L 758.738382 151.742044 
L 738.964334 151.742044 
z
" clip-path="url(#p17bfa4abba)" style="fill: #f7d8bf; stroke: #777777; stroke-width: 0.8; stroke-linejoin: miter"/>
   </g>
   <g id="patch_35">
    <path d="M 758.738382 287.825519 
L 774.456215 287.825519 
L 774.456215 151.742044 
L 758.738382 151.742044 
z
" clip-path="url(#p17bfa4abba)" style="fill: #f2f2c2; stroke: #777777; stroke-width: 0.8; stroke-linejoin: miter"/>
   </g>
   <g id="patch_36">
    <path d="M 774.456215 287.825519 
L 808.427015 287.825519 
L 808.427015 151.742044 
L 774.456215 151.742044 
z
" clip-path="url(#p17bfa4abba)" style="fill: #d8e8cf; stroke: #777777; stroke-width: 0.8; stroke-linejoin: miter"/>
   </g>
   <g id="patch_37">
    <path d="M 808.427015 287.825519 
L 815.525391 287.825519 
L 815.525391 151.742044 
L 808.427015 151.742044 
z
" clip-path="url(#p17bfa4abba)" style="fill: #ffffff; stroke: #d95f02; stroke-width: 2; stroke-linejoin: miter"/>
   </g>
   <g id="patch_38">
    <path d="M 815.525391 287.825519 
L 833.778358 287.825519 
L 833.778358 151.742044 
L 815.525391 151.742044 
z
" clip-path="url(#p17bfa4abba)" style="fill: #e4d8f5; stroke: #777777; stroke-width: 0.8; stroke-linejoin: miter"/>
   </g>
   <g id="patch_39">
    <path d="M 833.778358 287.825519 
L 853.045379 287.825519 
L 853.045379 151.742044 
L 833.778358 151.742044 
z
" clip-path="url(#p17bfa4abba)" style="fill: #d9d9d9; stroke: #777777; stroke-width: 0.8; stroke-linejoin: miter"/>
   </g>
   <g id="patch_40">
    <path d="M 853.045379 287.825519 
L 872.819426 287.825519 
L 872.819426 151.742044 
L 853.045379 151.742044 
z
" clip-path="url(#p17bfa4abba)" style="fill: #f7f7f7; stroke: #777777; stroke-width: 0.8; stroke-linejoin: miter"/>
   </g>
   <g id="line2d_4">
    <path d="M 811.976203 148.649237 
L 811.976203 123.906787 
" clip-path="url(#p17bfa4abba)" style="fill: none; stroke: #d95f02; stroke-width: 1.3; stroke-linecap: square"/>
   </g>
   <g id="text_7">
    <!-- gap -->
    <g style="fill: #d95f02" transform="translate(803.034328 115.745472) scale(0.095 -0.095)">
     <defs>
      <path id="DejaVuSans-67" d="M 2906 1791 
Q 2906 2416 2648 2759 
Q 2391 3103 1925 3103 
Q 1463 3103 1205 2759 
Q 947 2416 947 1791 
Q 947 1169 1205 825 
Q 1463 481 1925 481 
Q 2391 481 2648 825 
Q 2906 1169 2906 1791 
z
M 3481 434 
Q 3481 -459 3084 -895 
Q 2688 -1331 1869 -1331 
Q 1566 -1331 1297 -1286 
Q 1028 -1241 775 -1147 
L 775 -588 
Q 1028 -725 1275 -790 
Q 1522 -856 1778 -856 
Q 2344 -856 2625 -561 
Q 2906 -266 2906 331 
L 2906 616 
Q 2728 306 2450 153 
Q 2172 0 1784 0 
Q 1141 0 747 490 
Q 353 981 353 1791 
Q 353 2603 747 3093 
Q 1141 3584 1784 3584 
Q 2172 3584 2450 3431 
Q 2728 3278 2906 2969 
L 2906 3500 
L 3481 3500 
L 3481 434 
z
" transform="scale(0.015625)"/>
     </defs>
     <use xlink:href="#DejaVuSans-67"/>
     <use xlink:href="#DejaVuSans-61" transform="translate(63.476562 0)"/>
     <use xlink:href="#DejaVuSans-70" transform="translate(124.755859 0)"/>
    </g>
   </g>
   <g id="text_8">
    <!-- Rear-gap -->
    <g transform="translate(739.574062 72.6075) scale(0.12 -0.12)">
     <defs>
      <path id="DejaVuSans-Bold-67" d="M 2919 594 
Q 2688 288 2409 144 
Q 2131 0 1766 0 
Q 1125 0 706 504 
Q 288 1009 288 1791 
Q 288 2575 706 3076 
Q 1125 3578 1766 3578 
Q 2131 3578 2409 3434 
Q 2688 3291 2919 2981 
L 2919 3500 
L 4044 3500 
L 4044 353 
Q 4044 -491 3511 -936 
Q 2978 -1381 1966 -1381 
Q 1638 -1381 1331 -1331 
Q 1025 -1281 716 -1178 
L 716 -306 
Q 1009 -475 1290 -558 
Q 1572 -641 1856 -641 
Q 2406 -641 2662 -400 
Q 2919 -159 2919 353 
L 2919 594 
z
M 2181 2772 
Q 1834 2772 1640 2515 
Q 1447 2259 1447 1791 
Q 1447 1309 1634 1061 
Q 1822 813 2181 813 
Q 2531 813 2725 1069 
Q 2919 1325 2919 1791 
Q 2919 2259 2725 2515 
Q 2531 2772 2181 2772 
z
" transform="scale(0.015625)"/>
      <path id="DejaVuSans-Bold-70" d="M 1656 506 
L 1656 -1331 
L 538 -1331 
L 538 3500 
L 1656 3500 
L 1656 2988 
Q 1888 3294 2169 3439 
Q 2450 3584 2816 3584 
Q 3463 3584 3878 3070 
Q 4294 2556 4294 1747 
Q 4294 938 3878 423 
Q 3463 -91 2816 -91 
Q 2450 -91 2169 54 
Q 1888 200 1656 506 
z
M 2400 2772 
Q 2041 2772 1848 2508 
Q 1656 2244 1656 1747 
Q 1656 1250 1848 986 
Q 2041 722 2400 722 
Q 2759 722 2948 984 
Q 3138 1247 3138 1747 
Q 3138 2247 2948 2509 
Q 2759 2772 2400 2772 
z
" transform="scale(0.015625)"/>
     </defs>
     <use xlink:href="#DejaVuSans-Bold-52"/>
     <use xlink:href="#DejaVuSans-Bold-65" transform="translate(77.001953 0)"/>
     <use xlink:href="#DejaVuSans-Bold-61" transform="translate(144.824219 0)"/>
     <use xlink:href="#DejaVuSans-Bold-72" transform="translate(212.304688 0)"/>
     <use xlink:href="#DejaVuSans-Bold-2d" transform="translate(261.621094 0)"/>
     <use xlink:href="#DejaVuSans-Bold-67" transform="translate(303.125 0)"/>
     <use xlink:href="#DejaVuSans-Bold-61" transform="translate(374.707031 0)"/>
     <use xlink:href="#DejaVuSans-Bold-70" transform="translate(442.1875 0)"/>
    </g>
   </g>
  </g>
  <g id="axes_5">
   <g id="patch_41">
    <path d="M 887.580574 287.825519 
L 907.354621 287.825519 
L 907.354621 151.742044 
L 887.580574 151.742044 
z
" clip-path="url(#p846fc2d2cb)" style="fill: #f7f7f7; stroke: #777777; stroke-width: 0.8; stroke-linejoin: miter"/>
   </g>
   <g id="patch_42">
    <path d="M 907.354621 287.825519 
L 937.269206 287.825519 
L 937.269206 151.742044 
L 907.354621 151.742044 
z
" clip-path="url(#p846fc2d2cb)" style="fill: #dfe8f5; stroke: #777777; stroke-width: 0.8; stroke-linejoin: miter"/>
   </g>
   <g id="patch_43">
    <path d="M 937.269206 287.825519 
L 958.564334 287.825519 
L 958.564334 151.742044 
L 937.269206 151.742044 
z
" clip-path="url(#p846fc2d2cb)" style="fill: #e8f0cf; stroke: #777777; stroke-width: 0.8; stroke-linejoin: miter"/>
   </g>
   <g id="patch_44">
    <path d="M 958.564334 287.825519 
L 978.338382 287.825519 
L 978.338382 151.742044 
L 958.564334 151.742044 
z
" clip-path="url(#p846fc2d2cb)" style="fill: #f7d8bf; stroke: #777777; stroke-width: 0.8; stroke-linejoin: miter"/>
   </g>
   <g id="patch_45">
    <path d="M 978.338382 287.825519 
L 994.056215 287.825519 
L 994.056215 151.742044 
L 978.338382 151.742044 
z
" clip-path="url(#p846fc2d2cb)" style="fill: #f2f2c2; stroke: #777777; stroke-width: 0.8; stroke-linejoin: miter"/>
   </g>
   <g id="patch_46">
    <path d="M 994.056215 287.825519 
L 1001.154591 287.825519 
L 1001.154591 151.742044 
L 994.056215 151.742044 
z
" clip-path="url(#p846fc2d2cb)" style="fill: #ffffff; stroke: #d95f02; stroke-width: 2; stroke-linejoin: miter"/>
   </g>
   <g id="patch_47">
    <path d="M 1001.154591 287.825519 
L 1035.125391 287.825519 
L 1035.125391 151.742044 
L 1001.154591 151.742044 
z
" clip-path="url(#p846fc2d2cb)" style="fill: #d8e8cf; stroke: #777777; stroke-width: 0.8; stroke-linejoin: miter"/>
   </g>
   <g id="patch_48">
    <path d="M 1035.125391 287.825519 
L 1053.378358 287.825519 
L 1053.378358 151.742044 
L 1035.125391 151.742044 
z
" clip-path="url(#p846fc2d2cb)" style="fill: #e4d8f5; stroke: #777777; stroke-width: 0.8; stroke-linejoin: miter"/>
   </g>
   <g id="patch_49">
    <path d="M 1053.378358 287.825519 
L 1072.645379 287.825519 
L 1072.645379 151.742044 
L 1053.378358 151.742044 
z
" clip-path="url(#p846fc2d2cb)" style="fill: #d9d9d9; stroke: #777777; stroke-width: 0.8; stroke-linejoin: miter"/>
   </g>
   <g id="patch_50">
    <path d="M 1072.645379 287.825519 
L 1092.419426 287.825519 
L 1092.419426 151.742044 
L 1072.645379 151.742044 
z
" clip-path="url(#p846fc2d2cb)" style="fill: #f7f7f7; stroke: #777777; stroke-width: 0.8; stroke-linejoin: miter"/>
   </g>
   <g id="line2d_5">
    <path d="M 997.605403 148.649237 
L 997.605403 123.906787 
" clip-path="url(#p846fc2d2cb)" style="fill: none; stroke: #d95f02; stroke-width: 1.3; stroke-linecap: square"/>
   </g>
   <g id="text_9">
    <!-- gap -->
    <g style="fill: #d95f02" transform="translate(988.663528 115.745472) scale(0.095 -0.095)">
     <use xlink:href="#DejaVuSans-67"/>
     <use xlink:href="#DejaVuSans-61" transform="translate(63.476562 0)"/>
     <use xlink:href="#DejaVuSans-70" transform="translate(124.755859 0)"/>
    </g>
   </g>
   <g id="text_10">
    <!-- Front-gap -->
    <g transform="translate(956.935313 72.6075) scale(0.12 -0.12)">
     <use xlink:href="#DejaVuSans-Bold-46"/>
     <use xlink:href="#DejaVuSans-Bold-72" transform="translate(61.935547 0)"/>
     <use xlink:href="#DejaVuSans-Bold-6f" transform="translate(111.251953 0)"/>
     <use xlink:href="#DejaVuSans-Bold-6e" transform="translate(179.953125 0)"/>
     <use xlink:href="#DejaVuSans-Bold-74" transform="translate(251.144531 0)"/>
     <use xlink:href="#DejaVuSans-Bold-2d" transform="translate(298.947266 0)"/>
     <use xlink:href="#DejaVuSans-Bold-67" transform="translate(340.451172 0)"/>
     <use xlink:href="#DejaVuSans-Bold-61" transform="translate(412.033203 0)"/>
     <use xlink:href="#DejaVuSans-Bold-70" transform="translate(479.513672 0)"/>
    </g>
   </g>
  </g>
  <g id="text_11">
   <!-- Structure overview of the five single-factor mechanisms -->
   <g transform="translate(264.594375 20.877187) scale(0.18 -0.18)">
    <defs>
     <path id="DejaVuSans-Bold-53" d="M 3834 4519 
L 3834 3531 
Q 3450 3703 3084 3790 
Q 2719 3878 2394 3878 
Q 1963 3878 1756 3759 
Q 1550 3641 1550 3391 
Q 1550 3203 1689 3098 
Q 1828 2994 2194 2919 
L 2706 2816 
Q 3484 2659 3812 2340 
Q 4141 2022 4141 1434 
Q 4141 663 3683 286 
Q 3225 -91 2284 -91 
Q 1841 -91 1394 -6 
Q 947 78 500 244 
L 500 1259 
Q 947 1022 1364 901 
Q 1781 781 2169 781 
Q 2563 781 2772 912 
Q 2981 1044 2981 1288 
Q 2981 1506 2839 1625 
Q 2697 1744 2272 1838 
L 1806 1941 
Q 1106 2091 782 2419 
Q 459 2747 459 3303 
Q 459 4000 909 4375 
Q 1359 4750 2203 4750 
Q 2588 4750 2994 4692 
Q 3400 4634 3834 4519 
z
" transform="scale(0.015625)"/>
     <path id="DejaVuSans-Bold-75" d="M 500 1363 
L 500 3500 
L 1625 3500 
L 1625 3150 
Q 1625 2866 1622 2436 
Q 1619 2006 1619 1863 
Q 1619 1441 1641 1255 
Q 1663 1069 1716 984 
Q 1784 875 1895 815 
Q 2006 756 2150 756 
Q 2500 756 2700 1025 
Q 2900 1294 2900 1772 
L 2900 3500 
L 4019 3500 
L 4019 0 
L 2900 0 
L 2900 506 
Q 2647 200 2364 54 
Q 2081 -91 1741 -91 
Q 1134 -91 817 281 
Q 500 653 500 1363 
z
" transform="scale(0.015625)"/>
     <path id="DejaVuSans-Bold-20" transform="scale(0.015625)"/>
     <path id="DejaVuSans-Bold-76" d="M 97 3500 
L 1216 3500 
L 2088 1081 
L 2956 3500 
L 4078 3500 
L 2700 0 
L 1472 0 
L 97 3500 
z
" transform="scale(0.015625)"/>
     <path id="DejaVuSans-Bold-77" d="M 225 3500 
L 1313 3500 
L 1900 1088 
L 2491 3500 
L 3425 3500 
L 4013 1113 
L 4603 3500 
L 5691 3500 
L 4769 0 
L 3547 0 
L 2956 2406 
L 2369 0 
L 1147 0 
L 225 3500 
z
" transform="scale(0.015625)"/>
     <path id="DejaVuSans-Bold-66" d="M 2841 4863 
L 2841 4128 
L 2222 4128 
Q 1984 4128 1890 4042 
Q 1797 3956 1797 3744 
L 1797 3500 
L 2753 3500 
L 2753 2700 
L 1797 2700 
L 1797 0 
L 678 0 
L 678 2700 
L 122 2700 
L 122 3500 
L 678 3500 
L 678 3744 
Q 678 4316 997 4589 
Q 1316 4863 1984 4863 
L 2841 4863 
z
" transform="scale(0.015625)"/>
     <path id="DejaVuSans-Bold-6c" d="M 538 4863 
L 1656 4863 
L 1656 0 
L 538 0 
L 538 4863 
z
" transform="scale(0.015625)"/>
     <path id="DejaVuSans-Bold-6d" d="M 3781 2919 
Q 3994 3244 4286 3414 
Q 4578 3584 4928 3584 
Q 5531 3584 5847 3212 
Q 6163 2841 6163 2131 
L 6163 0 
L 5038 0 
L 5038 1825 
Q 5041 1866 5042 1909 
Q 5044 1953 5044 2034 
Q 5044 2406 4934 2573 
Q 4825 2741 4581 2741 
Q 4263 2741 4089 2478 
Q 3916 2216 3909 1719 
L 3909 0 
L 2784 0 
L 2784 1825 
Q 2784 2406 2684 2573 
Q 2584 2741 2328 2741 
Q 2006 2741 1831 2477 
Q 1656 2213 1656 1722 
L 1656 0 
L 531 0 
L 531 3500 
L 1656 3500 
L 1656 2988 
Q 1863 3284 2130 3434 
Q 2397 3584 2719 3584 
Q 3081 3584 3359 3409 
Q 3638 3234 3781 2919 
z
" transform="scale(0.015625)"/>
    </defs>
    <use xlink:href="#DejaVuSans-Bold-53"/>
    <use xlink:href="#DejaVuSans-Bold-74" transform="translate(72.021484 0)"/>
    <use xlink:href="#DejaVuSans-Bold-72" transform="translate(119.824219 0)"/>
    <use xlink:href="#DejaVuSans-Bold-75" transform="translate(169.140625 0)"/>
    <use xlink:href="#DejaVuSans-Bold-63" transform="translate(240.332031 0)"/>
    <use xlink:href="#DejaVuSans-Bold-74" transform="translate(299.609375 0)"/>
    <use xlink:href="#DejaVuSans-Bold-75" transform="translate(347.412109 0)"/>
    <use xlink:href="#DejaVuSans-Bold-72" transform="translate(418.603516 0)"/>
    <use xlink:href="#DejaVuSans-Bold-65" transform="translate(467.919922 0)"/>
    <use xlink:href="#DejaVuSans-Bold-20" transform="translate(535.742188 0)"/>
    <use xlink:href="#DejaVuSans-Bold-6f" transform="translate(570.556641 0)"/>
    <use xlink:href="#DejaVuSans-Bold-76" transform="translate(639.257812 0)"/>
    <use xlink:href="#DejaVuSans-Bold-65" transform="translate(704.443359 0)"/>
    <use xlink:href="#DejaVuSans-Bold-72" transform="translate(772.265625 0)"/>
    <use xlink:href="#DejaVuSans-Bold-76" transform="translate(821.582031 0)"/>
    <use xlink:href="#DejaVuSans-Bold-69" transform="translate(886.767578 0)"/>
    <use xlink:href="#DejaVuSans-Bold-65" transform="translate(921.044922 0)"/>
    <use xlink:href="#DejaVuSans-Bold-77" transform="translate(988.867188 0)"/>
    <use xlink:href="#DejaVuSans-Bold-20" transform="translate(1081.25 0)"/>
    <use xlink:href="#DejaVuSans-Bold-6f" transform="translate(1116.064453 0)"/>
    <use xlink:href="#DejaVuSans-Bold-66" transform="translate(1184.765625 0)"/>
    <use xlink:href="#DejaVuSans-Bold-20" transform="translate(1228.271484 0)"/>
    <use xlink:href="#DejaVuSans-Bold-74" transform="translate(1263.085938 0)"/>
    <use xlink:href="#DejaVuSans-Bold-68" transform="translate(1310.888672 0)"/>
    <use xlink:href="#DejaVuSans-Bold-65" transform="translate(1382.080078 0)"/>
    <use xlink:href="#DejaVuSans-Bold-20" transform="translate(1449.902344 0)"/>
    <use xlink:href="#DejaVuSans-Bold-66" transform="translate(1484.716797 0)"/>
    <use xlink:href="#DejaVuSans-Bold-69" transform="translate(1528.222656 0)"/>
    <use xlink:href="#DejaVuSans-Bold-76" transform="translate(1562.5 0)"/>
    <use xlink:href="#DejaVuSans-Bold-65" transform="translate(1627.685547 0)"/>
    <use xlink:href="#DejaVuSans-Bold-20" transform="translate(1695.507812 0)"/>
    <use xlink:href="#DejaVuSans-Bold-73" transform="translate(1730.322266 0)"/>
    <use xlink:href="#DejaVuSans-Bold-69" transform="translate(1789.84375 0)"/>
    <use xlink:href="#DejaVuSans-Bold-6e" transform="translate(1824.121094 0)"/>
    <use xlink:href="#DejaVuSans-Bold-67" transform="translate(1895.3125 0)"/>
    <use xlink:href="#DejaVuSans-Bold-6c" transform="translate(1966.894531 0)"/>
    <use xlink:href="#DejaVuSans-Bold-65" transform="translate(2001.171875 0)"/>
    <use xlink:href="#DejaVuSans-Bold-2d" transform="translate(2068.994141 0)"/>
    <use xlink:href="#DejaVuSans-Bold-66" transform="translate(2110.498047 0)"/>
    <use xlink:href="#DejaVuSans-Bold-61" transform="translate(2154.003906 0)"/>
    <use xlink:href="#DejaVuSans-Bold-63" transform="translate(2221.484375 0)"/>
    <use xlink:href="#DejaVuSans-Bold-74" transform="translate(2280.761719 0)"/>
    <use xlink:href="#DejaVuSans-Bold-6f" transform="translate(2328.564453 0)"/>
    <use xlink:href="#DejaVuSans-Bold-72" transform="translate(2397.265625 0)"/>
    <use xlink:href="#DejaVuSans-Bold-20" transform="translate(2446.582031 0)"/>
    <use xlink:href="#DejaVuSans-Bold-6d" transform="translate(2481.396484 0)"/>
    <use xlink:href="#DejaVuSans-Bold-65" transform="translate(2585.595703 0)"/>
    <use xlink:href="#DejaVuSans-Bold-63" transform="translate(2653.417969 0)"/>
    <use xlink:href="#DejaVuSans-Bold-68" transform="translate(2712.695312 0)"/>
    <use xlink:href="#DejaVuSans-Bold-61" transform="translate(2783.886719 0)"/>
    <use xlink:href="#DejaVuSans-Bold-6e" transform="translate(2851.367188 0)"/>
    <use xlink:href="#DejaVuSans-Bold-69" transform="translate(2922.558594 0)"/>
    <use xlink:href="#DejaVuSans-Bold-73" transform="translate(2956.835938 0)"/>
    <use xlink:href="#DejaVuSans-Bold-6d" transform="translate(3016.357422 0)"/>
    <use xlink:href="#DejaVuSans-Bold-73" transform="translate(3120.556641 0)"/>
   </g>
  </g>
 </g>
 <defs>
  <clipPath id="p4a723db368">
   <rect x="7.2" y="80.6075" width="208.8" height="247.4245"/>
  </clipPath>
  <clipPath id="p38cdaa1da6">
   <rect x="226.8" y="80.6075" width="208.8" height="247.4245"/>
  </clipPath>
  <clipPath id="p600ec92146">
   <rect x="446.4" y="80.6075" width="208.8" height="247.4245"/>
  </clipPath>
  <clipPath id="p17bfa4abba">
   <rect x="666" y="80.6075" width="208.8" height="247.4245"/>
  </clipPath>
  <clipPath id="p846fc2d2cb">
   <rect x="885.6" y="80.6075" width="208.8" height="247.4245"/>
  </clipPath>
 </defs>
</svg>
