<?xml version="1.0" encoding="utf-8" standalone="no"?>
<!DOCTYPE svg PUBLIC "-//W3C//DTD SVG 1.1//EN"
  "http://www.w3.org/Graphics/SVG/1.1/DTD/svg11.dtd">
<svg xmlns:xlink="http://www.w3.org/1999/xlink" width="1101.6pt" height="335.232pt" viewBox="0 0 1101.6 335.232" xmlns="http://www.w3.org/2000/svg" version="1.1">
 <metadata>
  <rdf:RDF xmlns:dc="http://purl.org/dc/elements/1.1/" xmlns:cc="http://creativecommons.org/ns#" xmlns:rdf="http://www.w3.org/1999/02/22-rdf-syntax-ns#">
   <cc:Work>
    <dc:type rdf:resource="http://purl.org/dc/dcmitype/StillImage"/>
    <dc:date>2026-04-12T22:00:02.322737</dc:date>
    <dc:format>image/svg+xml</dc:format>
    <dc:creator>
     <cc:Agent>
      <dc:title>Matplotlib v3.10.8, https://matplotlib.org/</dc:title>
     </cc:Agent>
    </dc:creator>
   </cc:Work>
  </rdf:RDF>
 </metadata>
 <defs>
  <style type="text/css">*{stroke-linejoin: round; stroke-linecap: butt}</style>
 </defs>
 <g id="figure_1">
  <g id="patch_1">
   <path d="M 0 335.232 
L 1101.6 335.232 
L 1101.6 -0 
L 0 -0 
z
" style="fill: #ffffff"/>
  </g>
  <g id="axes_1">
   <g id="patch_2">
    <path d="M 9.250275 287.441612 
L 29.72022 287.441612 
L 29.72022 150.058762 
L 9.250275 150.058762 
z
" clip-path="url(#pcbed68711a)" style="fill: #f7f7f7; stroke: #777777; stroke-width: 0.8; stroke-linejoin: miter"/>
   </g>
   <g id="patch_3">
    <path d="M 29.72022 287.441612 
L 60.687573 287.441612 
L 60.687573 150.058762 
L 29.72022 150.058762 
z
" clip-path="url(#pcbed68711a)" style="fill: #dfe8f5; stroke: #777777; stroke-width: 0.8; stroke-linejoin: miter"/>
   </g>
   <g id="patch_4">
    <path d="M 60.687573 287.441612 
L 82.732129 287.441612 
L 82.732129 150.058762 
L 60.687573 150.058762 
z
" clip-path="url(#pcbed68711a)" style="fill: #e8f0cf; stroke: #777777; stroke-width: 0.8; stroke-linejoin: miter"/>
   </g>
   <g id="patch_5">
    <path d="M 82.732129 287.441612 
L 103.202074 287.441612 
L 103.202074 150.058762 
L 82.732129 150.058762 
z
" clip-path="url(#pcbed68711a)" style="fill: #f7d8bf; stroke: #777777; stroke-width: 0.8; stroke-linejoin: miter"/>
   </g>
   <g id="patch_6">
    <path d="M 103.202074 287.441612 
L 119.473056 287.441612 
L 119.473056 150.058762 
L 103.202074 150.058762 
z
" clip-path="url(#pcbed68711a)" style="fill: #f2f2c2; stroke: #777777; stroke-width: 0.8; stroke-linejoin: miter"/>
   </g>
   <g id="patch_7">
    <path d="M 119.473056 287.441612 
L 154.639372 287.441612 
L 154.639372 150.058762 
L 119.473056 150.058762 
z
" clip-path="url(#pcbed68711a)" style="fill: #d8e8cf; stroke: #cf4d32; stroke-width: 2; stroke-linejoin: miter"/>
   </g>
   <g id="patch_8">
    <path d="M 154.639372 287.441612 
L 173.534705 287.441612 
L 173.534705 150.058762 
L 154.639372 150.058762 
z
" clip-path="url(#pcbed68711a)" style="fill: #e4d8f5; stroke: #777777; stroke-width: 0.8; stroke-linejoin: miter"/>
   </g>
   <g id="patch_9">
    <path d="M 173.534705 287.441612 
L 193.47978 287.441612 
L 193.47978 150.058762 
L 173.534705 150.058762 
z
" clip-path="url(#pcbed68711a)" style="fill: #d9d9d9; stroke: #777777; stroke-width: 0.8; stroke-linejoin: miter"/>
   </g>
   <g id="patch_10">
    <path d="M 193.47978 287.441612 
L 213.949725 287.441612 
L 213.949725 150.058762 
L 193.47978 150.058762 
z
" clip-path="url(#pcbed68711a)" style="fill: #f7f7f7; stroke: #777777; stroke-width: 0.8; stroke-linejoin: miter"/>
   </g>
   <g id="line2d_1">
    <path d="M 137.056214 146.936425 
L 137.056214 121.957725 
" clip-path="url(#pcbed68711a)" style="fill: none; stroke: #cf4d32; stroke-width: 1.3; stroke-linecap: square"/>
   </g>
   <g id="text_1">
    <!-- PVK -->
    <g style="fill: #cf4d32" transform="translate(125.974612 102.877456) scale(0.105 -0.105)">
     <defs>
      <path id="TimesNewRomanPS-BoldMT-50" d="M 1728 1919 
L 1728 744 
Q 1728 400 1770 311 
Q 1813 222 1920 169 
Q 2028 116 2316 116 
L 2316 0 
L 163 0 
L 163 116 
Q 456 116 561 170 
Q 666 225 708 312 
Q 750 400 750 744 
L 750 3494 
Q 750 3838 708 3927 
Q 666 4016 559 4069 
Q 453 4122 163 4122 
L 163 4238 
L 2009 4238 
Q 2922 4238 3319 3913 
Q 3716 3588 3716 3100 
Q 3716 2688 3459 2394 
Q 3203 2100 2753 1994 
Q 2450 1919 1728 1919 
z
M 1728 3994 
L 1728 2163 
Q 1831 2156 1884 2156 
Q 2266 2156 2472 2382 
Q 2678 2609 2678 3084 
Q 2678 3556 2472 3775 
Q 2266 3994 1856 3994 
L 1728 3994 
z
" transform="scale(0.015625)"/>
      <path id="TimesNewRomanPS-BoldMT-56" d="M 4556 4238 
L 4556 4122 
Q 4325 4084 4144 3875 
Q 4013 3719 3753 3141 
L 2294 -97 
L 2191 -97 
L 738 3272 
Q 475 3881 386 3987 
Q 297 4094 50 4122 
L 50 4238 
L 2081 4238 
L 2081 4122 
L 2013 4122 
Q 1738 4122 1638 4053 
Q 1566 4006 1566 3916 
Q 1566 3859 1591 3782 
Q 1616 3706 1759 3372 
L 2663 1263 
L 3500 3141 
Q 3650 3481 3684 3597 
Q 3719 3713 3719 3794 
Q 3719 3888 3669 3959 
Q 3619 4031 3522 4069 
Q 3388 4122 3166 4122 
L 3166 4238 
L 4556 4238 
z
" transform="scale(0.015625)"/>
      <path id="TimesNewRomanPS-BoldMT-4b" d="M 2666 2616 
L 4156 750 
Q 4472 356 4700 216 
Q 4866 116 5050 116 
L 5050 0 
L 2844 0 
L 2844 116 
Q 3053 134 3114 181 
Q 3175 228 3175 297 
Q 3175 428 2888 791 
L 1916 2013 
L 1759 1881 
L 1759 725 
Q 1759 394 1796 312 
Q 1834 231 1940 173 
Q 2047 116 2281 116 
L 2281 0 
L 144 0 
L 144 116 
L 284 116 
Q 469 116 581 181 
Q 663 225 706 331 
Q 741 406 741 725 
L 741 3513 
Q 741 3838 706 3919 
Q 672 4000 567 4061 
Q 463 4122 284 4122 
L 144 4122 
L 144 4238 
L 2253 4238 
L 2253 4122 
Q 2038 4122 1925 4059 
Q 1844 4016 1797 3913 
Q 1759 3834 1759 3513 
L 1759 2194 
L 3331 3466 
Q 3659 3731 3659 3891 
Q 3659 4009 3525 4078 
Q 3456 4113 3184 4122 
L 3184 4238 
L 4838 4238 
L 4838 4122 
Q 4616 4106 4489 4042 
Q 4363 3978 3906 3609 
L 2666 2616 
z
" transform="scale(0.015625)"/>
     </defs>
     <use xlink:href="#TimesNewRomanPS-BoldMT-50"/>
     <use xlink:href="#TimesNewRomanPS-BoldMT-56" transform="translate(61.083984 0)"/>
     <use xlink:href="#TimesNewRomanPS-BoldMT-4b" transform="translate(133.300781 0)"/>
    </g>
    <!-- varied -->
    <g style="fill: #cf4d32" transform="translate(122.76719 113.467034) scale(0.105 -0.105)">
     <defs>
      <path id="TimesNewRomanPS-BoldMT-76" d="M 1534 -88 
L 550 2178 
Q 372 2588 272 2697 
Q 200 2778 59 2806 
L 59 2922 
L 1613 2922 
L 1613 2806 
Q 1466 2806 1413 2753 
Q 1338 2684 1338 2591 
Q 1338 2475 1475 2156 
L 1956 1059 
L 2341 2006 
Q 2506 2413 2506 2581 
Q 2506 2678 2436 2739 
Q 2366 2800 2188 2806 
L 2188 2922 
L 3144 2922 
L 3144 2806 
Q 3006 2788 2918 2703 
Q 2831 2619 2656 2206 
L 1681 -88 
L 1534 -88 
z
" transform="scale(0.015625)"/>
      <path id="TimesNewRomanPS-BoldMT-61" d="M 1828 431 
Q 1294 -41 869 -41 
Q 619 -41 453 123 
Q 288 288 288 534 
Q 288 869 575 1136 
Q 863 1403 1828 1847 
L 1828 2141 
Q 1828 2472 1792 2558 
Q 1756 2644 1656 2708 
Q 1556 2772 1431 2772 
Q 1228 2772 1097 2681 
Q 1016 2625 1016 2550 
Q 1016 2484 1103 2388 
Q 1222 2253 1222 2128 
Q 1222 1975 1108 1867 
Q 994 1759 809 1759 
Q 613 1759 480 1878 
Q 347 1997 347 2156 
Q 347 2381 525 2586 
Q 703 2791 1022 2900 
Q 1341 3009 1684 3009 
Q 2100 3009 2342 2832 
Q 2584 2656 2656 2450 
Q 2700 2319 2700 1847 
L 2700 713 
Q 2700 513 2715 461 
Q 2731 409 2762 384 
Q 2794 359 2834 359 
Q 2916 359 3000 475 
L 3094 400 
Q 2938 169 2770 64 
Q 2603 -41 2391 -41 
Q 2141 -41 2000 76 
Q 1859 194 1828 431 
z
M 1828 659 
L 1828 1638 
Q 1450 1416 1266 1163 
Q 1144 994 1144 822 
Q 1144 678 1247 569 
Q 1325 484 1466 484 
Q 1622 484 1828 659 
z
" transform="scale(0.015625)"/>
      <path id="TimesNewRomanPS-BoldMT-72" d="M 1428 2922 
L 1428 2259 
Q 1719 2713 1937 2861 
Q 2156 3009 2359 3009 
Q 2534 3009 2639 2901 
Q 2744 2794 2744 2597 
Q 2744 2388 2642 2272 
Q 2541 2156 2397 2156 
Q 2231 2156 2109 2262 
Q 1988 2369 1966 2381 
Q 1934 2400 1894 2400 
Q 1803 2400 1722 2331 
Q 1594 2225 1528 2028 
Q 1428 1725 1428 1359 
L 1428 688 
L 1431 513 
Q 1431 334 1453 284 
Q 1491 200 1564 161 
Q 1638 122 1813 113 
L 1813 0 
L 234 0 
L 234 113 
Q 425 128 492 217 
Q 559 306 559 688 
L 559 2303 
Q 559 2553 534 2622 
Q 503 2709 443 2750 
Q 384 2791 234 2806 
L 234 2922 
L 1428 2922 
z
" transform="scale(0.015625)"/>
      <path id="TimesNewRomanPS-BoldMT-69" d="M 919 4338 
Q 1122 4338 1262 4195 
Q 1403 4053 1403 3853 
Q 1403 3653 1261 3512 
Q 1119 3372 919 3372 
Q 719 3372 578 3512 
Q 438 3653 438 3853 
Q 438 4053 578 4195 
Q 719 4338 919 4338 
z
M 1356 2922 
L 1356 606 
Q 1356 297 1428 211 
Q 1500 125 1709 113 
L 1709 0 
L 131 0 
L 131 113 
Q 325 119 419 225 
Q 481 297 481 606 
L 481 2313 
Q 481 2622 409 2708 
Q 338 2794 131 2806 
L 131 2922 
L 1356 2922 
z
" transform="scale(0.015625)"/>
      <path id="TimesNewRomanPS-BoldMT-65" d="M 2691 1566 
L 1088 1566 
Q 1116 984 1397 647 
Q 1613 388 1916 388 
Q 2103 388 2256 492 
Q 2409 597 2584 869 
L 2691 800 
Q 2453 316 2165 114 
Q 1878 -88 1500 -88 
Q 850 -88 516 413 
Q 247 816 247 1413 
Q 247 2144 642 2576 
Q 1038 3009 1569 3009 
Q 2013 3009 2339 2645 
Q 2666 2281 2691 1566 
z
M 1922 1775 
Q 1922 2278 1867 2465 
Q 1813 2653 1697 2750 
Q 1631 2806 1522 2806 
Q 1359 2806 1256 2647 
Q 1072 2369 1072 1884 
L 1072 1775 
L 1922 1775 
z
" transform="scale(0.015625)"/>
      <path id="TimesNewRomanPS-BoldMT-64" d="M 3056 4238 
L 3056 875 
Q 3056 534 3075 472 
Q 3100 369 3170 319 
Q 3241 269 3416 256 
L 3416 153 
L 2181 -88 
L 2181 375 
Q 1959 106 1786 9 
Q 1613 -88 1394 -88 
Q 834 -88 509 413 
Q 247 819 247 1409 
Q 247 1881 409 2254 
Q 572 2628 855 2818 
Q 1138 3009 1463 3009 
Q 1672 3009 1834 2928 
Q 1997 2847 2181 2644 
L 2181 3525 
Q 2181 3859 2153 3928 
Q 2116 4019 2041 4062 
Q 1966 4106 1759 4106 
L 1759 4238 
L 3056 4238 
z
M 2181 2256 
Q 1950 2700 1616 2700 
Q 1500 2700 1425 2638 
Q 1309 2541 1236 2297 
Q 1163 2053 1163 1550 
Q 1163 997 1244 731 
Q 1325 466 1466 347 
Q 1538 288 1663 288 
Q 1938 288 2181 719 
L 2181 2256 
z
" transform="scale(0.015625)"/>
     </defs>
     <use xlink:href="#TimesNewRomanPS-BoldMT-76"/>
     <use xlink:href="#TimesNewRomanPS-BoldMT-61" transform="translate(50 0)"/>
     <use xlink:href="#TimesNewRomanPS-BoldMT-72" transform="translate(100 0)"/>
     <use xlink:href="#TimesNewRomanPS-BoldMT-69" transform="translate(144.384766 0)"/>
     <use xlink:href="#TimesNewRomanPS-BoldMT-65" transform="translate(172.167969 0)"/>
     <use xlink:href="#TimesNewRomanPS-BoldMT-64" transform="translate(216.552734 0)"/>
    </g>
   </g>
   <g id="text_2">
    <!-- Thickness -->
    <g transform="translate(84.853906 70.245) scale(0.125 -0.125)">
     <defs>
      <path id="TimesNewRomanPS-BoldMT-54" d="M 4038 4238 
L 4038 3091 
L 3925 3091 
Q 3825 3488 3703 3661 
Q 3581 3834 3369 3938 
Q 3250 3994 2953 3994 
L 2638 3994 
L 2638 725 
Q 2638 400 2673 319 
Q 2709 238 2814 177 
Q 2919 116 3100 116 
L 3241 116 
L 3241 0 
L 1022 0 
L 1022 116 
L 1163 116 
Q 1347 116 1459 181 
Q 1541 225 1588 331 
Q 1622 406 1622 725 
L 1622 3994 
L 1316 3994 
Q 888 3994 694 3813 
Q 422 3559 350 3091 
L 231 3091 
L 231 4238 
L 4038 4238 
z
" transform="scale(0.015625)"/>
      <path id="TimesNewRomanPS-BoldMT-68" d="M 1409 4238 
L 1409 2547 
Q 1650 2800 1850 2904 
Q 2050 3009 2266 3009 
Q 2541 3009 2736 2853 
Q 2931 2697 2995 2486 
Q 3059 2275 3059 1775 
L 3059 634 
Q 3059 300 3121 217 
Q 3184 134 3375 113 
L 3375 0 
L 1894 0 
L 1894 113 
Q 2050 134 2128 238 
Q 2184 319 2184 634 
L 2184 1938 
Q 2184 2300 2156 2392 
Q 2128 2484 2061 2536 
Q 1994 2588 1909 2588 
Q 1784 2588 1665 2502 
Q 1547 2416 1409 2200 
L 1409 634 
Q 1409 322 1456 244 
Q 1516 138 1700 113 
L 1700 0 
L 219 0 
L 219 113 
Q 403 131 481 231 
Q 534 300 534 634 
L 534 3603 
Q 534 3934 473 4015 
Q 413 4097 219 4122 
L 219 4238 
L 1409 4238 
z
" transform="scale(0.015625)"/>
      <path id="TimesNewRomanPS-BoldMT-63" d="M 2600 753 
L 2697 678 
Q 2491 291 2183 101 
Q 1875 -88 1528 -88 
Q 944 -88 594 353 
Q 244 794 244 1413 
Q 244 2009 563 2463 
Q 947 3009 1622 3009 
Q 2075 3009 2342 2781 
Q 2609 2553 2609 2272 
Q 2609 2094 2501 1987 
Q 2394 1881 2219 1881 
Q 2034 1881 1914 2003 
Q 1794 2125 1766 2438 
Q 1747 2634 1675 2713 
Q 1603 2791 1506 2791 
Q 1356 2791 1250 2631 
Q 1088 2391 1088 1894 
Q 1088 1481 1219 1104 
Q 1350 728 1578 544 
Q 1750 409 1984 409 
Q 2138 409 2275 481 
Q 2413 553 2600 753 
z
" transform="scale(0.015625)"/>
      <path id="TimesNewRomanPS-BoldMT-6b" d="M 1403 4238 
L 1403 1450 
L 2081 2116 
Q 2291 2319 2342 2409 
Q 2394 2500 2394 2584 
Q 2394 2669 2325 2725 
Q 2256 2781 2056 2806 
L 2056 2922 
L 3366 2922 
L 3366 2806 
Q 3178 2797 3037 2717 
Q 2897 2638 2488 2238 
L 2169 1925 
L 2856 919 
Q 3272 306 3350 231 
Q 3456 125 3619 113 
L 3619 0 
L 2109 0 
L 2109 113 
Q 2209 113 2254 150 
Q 2300 188 2300 231 
Q 2300 303 2169 497 
L 1591 1344 
L 1403 1159 
L 1403 634 
Q 1403 300 1465 217 
Q 1528 134 1722 113 
L 1722 0 
L 213 0 
L 213 113 
Q 397 131 475 231 
Q 528 300 528 634 
L 528 3603 
Q 528 3934 467 4015 
Q 406 4097 213 4122 
L 213 4238 
L 1403 4238 
z
" transform="scale(0.015625)"/>
      <path id="TimesNewRomanPS-BoldMT-6e" d="M 1409 2922 
L 1409 2544 
Q 1634 2788 1840 2898 
Q 2047 3009 2284 3009 
Q 2569 3009 2756 2851 
Q 2944 2694 3006 2459 
Q 3056 2281 3056 1775 
L 3056 638 
Q 3056 300 3117 217 
Q 3178 134 3372 113 
L 3372 0 
L 1894 0 
L 1894 113 
Q 2059 134 2131 250 
Q 2181 328 2181 638 
L 2181 1938 
Q 2181 2297 2153 2390 
Q 2125 2484 2058 2536 
Q 1991 2588 1909 2588 
Q 1641 2588 1409 2203 
L 1409 638 
Q 1409 309 1470 221 
Q 1531 134 1697 113 
L 1697 0 
L 219 0 
L 219 113 
Q 403 131 481 231 
Q 534 300 534 638 
L 534 2288 
Q 534 2619 473 2700 
Q 413 2781 219 2806 
L 219 2922 
L 1409 2922 
z
" transform="scale(0.015625)"/>
      <path id="TimesNewRomanPS-BoldMT-73" d="M 2063 3003 
L 2109 2006 
L 2003 2006 
Q 1813 2450 1608 2612 
Q 1403 2775 1200 2775 
Q 1072 2775 981 2689 
Q 891 2603 891 2491 
Q 891 2406 953 2328 
Q 1053 2200 1512 1889 
Q 1972 1578 2117 1361 
Q 2263 1144 2263 875 
Q 2263 631 2141 397 
Q 2019 163 1797 37 
Q 1575 -88 1306 -88 
Q 1097 -88 747 44 
Q 653 78 619 78 
Q 516 78 447 -78 
L 344 -78 
L 294 972 
L 400 972 
Q 541 559 786 353 
Q 1031 147 1250 147 
Q 1400 147 1495 239 
Q 1591 331 1591 463 
Q 1591 613 1497 722 
Q 1403 831 1078 1053 
Q 600 1384 459 1559 
Q 253 1816 253 2125 
Q 253 2463 486 2736 
Q 719 3009 1159 3009 
Q 1397 3009 1619 2894 
Q 1703 2847 1756 2847 
Q 1813 2847 1847 2870 
Q 1881 2894 1956 3003 
L 2063 3003 
z
" transform="scale(0.015625)"/>
     </defs>
     <use xlink:href="#TimesNewRomanPS-BoldMT-54"/>
     <use xlink:href="#TimesNewRomanPS-BoldMT-68" transform="translate(66.699219 0)"/>
     <use xlink:href="#TimesNewRomanPS-BoldMT-69" transform="translate(122.314453 0)"/>
     <use xlink:href="#TimesNewRomanPS-BoldMT-63" transform="translate(150.097656 0)"/>
     <use xlink:href="#TimesNewRomanPS-BoldMT-6b" transform="translate(194.482422 0)"/>
     <use xlink:href="#TimesNewRomanPS-BoldMT-6e" transform="translate(250.097656 0)"/>
     <use xlink:href="#TimesNewRomanPS-BoldMT-65" transform="translate(305.712891 0)"/>
     <use xlink:href="#TimesNewRomanPS-BoldMT-73" transform="translate(350.097656 0)"/>
     <use xlink:href="#TimesNewRomanPS-BoldMT-73" transform="translate(389.013672 0)"/>
    </g>
   </g>
  </g>
  <g id="axes_2">
   <g id="patch_11">
    <path d="M 228.76625 287.441612 
L 248.397288 287.441612 
L 248.397288 150.058762 
L 228.76625 150.058762 
z
" clip-path="url(#pdfba54a208)" style="fill: #f7f7f7; stroke: #777777; stroke-width: 0.8; stroke-linejoin: miter"/>
   </g>
   <g id="patch_12">
    <path d="M 248.397288 287.441612 
L 278.095525 287.441612 
L 278.095525 150.058762 
L 248.397288 150.058762 
z
" clip-path="url(#pdfba54a208)" style="fill: #dfe8f5; stroke: #777777; stroke-width: 0.8; stroke-linejoin: miter"/>
   </g>
   <g id="patch_13">
    <path d="M 278.095525 287.441612 
L 299.236643 287.441612 
L 299.236643 150.058762 
L 278.095525 150.058762 
z
" clip-path="url(#pdfba54a208)" style="fill: #e8f0cf; stroke: #777777; stroke-width: 0.8; stroke-linejoin: miter"/>
   </g>
   <g id="patch_14">
    <path d="M 299.236643 287.441612 
L 318.867681 287.441612 
L 318.867681 150.058762 
L 299.236643 150.058762 
z
" clip-path="url(#pdfba54a208)" style="fill: #f7d8bf; stroke: #777777; stroke-width: 0.8; stroke-linejoin: miter"/>
   </g>
   <g id="patch_15">
    <path d="M 318.867681 287.441612 
L 334.47184 287.441612 
L 334.47184 150.058762 
L 318.867681 150.058762 
z
" clip-path="url(#pdfba54a208)" style="fill: #f2f2c2; stroke: #777777; stroke-width: 0.8; stroke-linejoin: miter"/>
   </g>
   <g id="patch_16">
    <path d="M 334.47184 287.441612 
L 368.196956 287.441612 
L 368.196956 150.058762 
L 334.47184 150.058762 
z
" clip-path="url(#pdfba54a208)" style="fill: #d8e8cf; stroke: #777777; stroke-width: 0.8; stroke-linejoin: miter"/>
   </g>
   <g id="patch_17">
    <path d="M 368.196956 287.441612 
L 376.754076 287.441612 
L 376.754076 150.058762 
L 368.196956 150.058762 
z
" clip-path="url(#pdfba54a208)" style="fill: #fff0d8; stroke: #cc6d1f; stroke-width: 2; stroke-linejoin: miter"/>
   </g>
   <g id="patch_18">
    <path d="M 376.754076 287.441612 
L 394.875034 287.441612 
L 394.875034 150.058762 
L 376.754076 150.058762 
z
" clip-path="url(#pdfba54a208)" style="fill: #e4d8f5; stroke: #777777; stroke-width: 0.8; stroke-linejoin: miter"/>
   </g>
   <g id="patch_19">
    <path d="M 394.875034 287.441612 
L 414.002712 287.441612 
L 414.002712 150.058762 
L 394.875034 150.058762 
z
" clip-path="url(#pdfba54a208)" style="fill: #d9d9d9; stroke: #777777; stroke-width: 0.8; stroke-linejoin: miter"/>
   </g>
   <g id="patch_20">
    <path d="M 414.002712 287.441612 
L 433.63375 287.441612 
L 433.63375 150.058762 
L 414.002712 150.058762 
z
" clip-path="url(#pdfba54a208)" style="fill: #f7f7f7; stroke: #777777; stroke-width: 0.8; stroke-linejoin: miter"/>
   </g>
   <g id="line2d_2">
    <path d="M 372.475516 146.936425 
L 372.475516 121.957725 
" clip-path="url(#pdfba54a208)" style="fill: none; stroke: #cc6d1f; stroke-width: 1.3; stroke-linecap: square"/>
   </g>
   <g id="text_3">
    <!-- mix -->
    <g style="fill: #cc6d1f" transform="translate(364.018914 113.467034) scale(0.105 -0.105)">
     <defs>
      <path id="TimesNewRomanPS-BoldMT-6d" d="M 1428 2922 
L 1428 2538 
Q 1669 2800 1873 2904 
Q 2078 3009 2322 3009 
Q 2603 3009 2793 2878 
Q 2984 2747 3088 2478 
Q 3338 2759 3567 2884 
Q 3797 3009 4047 3009 
Q 4350 3009 4529 2870 
Q 4709 2731 4779 2517 
Q 4850 2303 4850 1834 
L 4850 638 
Q 4850 300 4911 219 
Q 4972 138 5166 113 
L 5166 0 
L 3656 0 
L 3656 113 
Q 3834 128 3919 250 
Q 3975 334 3975 638 
L 3975 1894 
Q 3975 2284 3944 2390 
Q 3913 2497 3845 2548 
Q 3778 2600 3688 2600 
Q 3553 2600 3415 2501 
Q 3278 2403 3138 2206 
L 3138 638 
Q 3138 322 3191 241 
Q 3263 125 3466 113 
L 3466 0 
L 1953 0 
L 1953 113 
Q 2075 119 2145 173 
Q 2216 228 2239 304 
Q 2263 381 2263 638 
L 2263 1894 
Q 2263 2291 2231 2391 
Q 2200 2491 2126 2547 
Q 2053 2603 1969 2603 
Q 1844 2603 1741 2538 
Q 1594 2441 1428 2206 
L 1428 638 
Q 1428 328 1489 229 
Q 1550 131 1744 113 
L 1744 0 
L 238 0 
L 238 113 
Q 422 131 500 231 
Q 553 300 553 638 
L 553 2288 
Q 553 2619 492 2700 
Q 431 2781 238 2806 
L 238 2922 
L 1428 2922 
z
" transform="scale(0.015625)"/>
      <path id="TimesNewRomanPS-BoldMT-78" d="M 1944 1791 
L 2450 828 
Q 2713 325 2866 191 
Q 2950 119 3097 113 
L 3097 0 
L 1469 0 
L 1469 113 
Q 1659 128 1704 162 
Q 1750 197 1750 256 
Q 1750 344 1650 531 
L 1397 1006 
L 1181 691 
Q 1034 475 1016 434 
Q 991 375 991 328 
Q 991 256 1020 207 
Q 1050 159 1101 136 
Q 1153 113 1291 113 
L 1291 0 
L 147 0 
L 147 113 
Q 359 113 536 230 
Q 713 347 1050 844 
L 1291 1200 
L 788 2131 
Q 541 2588 419 2691 
Q 297 2794 147 2806 
L 147 2922 
L 1766 2922 
L 1766 2806 
L 1681 2803 
L 1519 2747 
Q 1494 2725 1494 2675 
Q 1494 2628 1509 2578 
Q 1519 2556 1597 2409 
L 1825 1984 
L 1944 2153 
Q 2194 2497 2194 2634 
Q 2194 2700 2139 2745 
Q 2084 2791 1944 2806 
L 1944 2922 
L 2978 2922 
L 2978 2806 
Q 2788 2800 2622 2689 
Q 2456 2578 2250 2259 
L 1944 1791 
z
" transform="scale(0.015625)"/>
     </defs>
     <use xlink:href="#TimesNewRomanPS-BoldMT-6d"/>
     <use xlink:href="#TimesNewRomanPS-BoldMT-69" transform="translate(83.300781 0)"/>
     <use xlink:href="#TimesNewRomanPS-BoldMT-78" transform="translate(111.083984 0)"/>
    </g>
   </g>
   <g id="text_4">
    <!-- Rear-BEMA -->
    <g transform="translate(297.414844 70.245) scale(0.125 -0.125)">
     <defs>
      <path id="TimesNewRomanPS-BoldMT-52" d="M 1700 1931 
L 1700 744 
Q 1700 400 1742 311 
Q 1784 222 1890 169 
Q 1997 116 2288 116 
L 2288 0 
L 119 0 
L 119 116 
Q 413 116 517 170 
Q 622 225 664 312 
Q 706 400 706 744 
L 706 3494 
Q 706 3838 664 3927 
Q 622 4016 515 4069 
Q 409 4122 119 4122 
L 119 4238 
L 2088 4238 
Q 2856 4238 3212 4131 
Q 3569 4025 3794 3739 
Q 4019 3453 4019 3069 
Q 4019 2600 3681 2294 
Q 3466 2100 3078 2003 
L 4097 569 
Q 4297 291 4381 222 
Q 4509 125 4678 116 
L 4678 0 
L 3344 0 
L 1978 1931 
L 1700 1931 
z
M 1700 4009 
L 1700 2153 
L 1878 2153 
Q 2313 2153 2528 2233 
Q 2744 2313 2867 2520 
Q 2991 2728 2991 3063 
Q 2991 3547 2764 3778 
Q 2538 4009 2034 4009 
L 1700 4009 
z
" transform="scale(0.015625)"/>
      <path id="TimesNewRomanPS-BoldMT-2d" d="M 1978 1147 
L 156 1147 
L 156 1794 
L 1978 1794 
L 1978 1147 
z
" transform="scale(0.015625)"/>
      <path id="TimesNewRomanPS-BoldMT-42" d="M 2847 2247 
Q 3450 2106 3694 1906 
Q 4044 1622 4044 1169 
Q 4044 691 3659 378 
Q 3188 0 2288 0 
L 134 0 
L 134 116 
Q 428 116 533 170 
Q 638 225 680 312 
Q 722 400 722 744 
L 722 3494 
Q 722 3838 680 3927 
Q 638 4016 531 4069 
Q 425 4122 134 4122 
L 134 4238 
L 2166 4238 
Q 2894 4238 3197 4108 
Q 3500 3978 3675 3720 
Q 3850 3463 3850 3172 
Q 3850 2866 3628 2627 
Q 3406 2388 2847 2247 
z
M 1709 2331 
Q 2153 2331 2364 2431 
Q 2575 2531 2687 2712 
Q 2800 2894 2800 3175 
Q 2800 3456 2689 3636 
Q 2578 3816 2372 3909 
Q 2166 4003 1709 4000 
L 1709 2331 
z
M 1709 2088 
L 1709 728 
L 1706 572 
Q 1706 403 1792 317 
Q 1878 231 2047 231 
Q 2297 231 2508 342 
Q 2719 453 2831 664 
Q 2944 875 2944 1134 
Q 2944 1431 2806 1667 
Q 2669 1903 2428 1997 
Q 2188 2091 1709 2088 
z
" transform="scale(0.015625)"/>
      <path id="TimesNewRomanPS-BoldMT-45" d="M 1744 3994 
L 1744 2269 
L 1828 2269 
Q 2231 2269 2412 2522 
Q 2594 2775 2644 3269 
L 2763 3269 
L 2763 1050 
L 2644 1050 
Q 2606 1413 2486 1644 
Q 2366 1875 2206 1954 
Q 2047 2034 1744 2034 
L 1744 841 
Q 1744 491 1773 412 
Q 1803 334 1884 284 
Q 1966 234 2147 234 
L 2400 234 
Q 2994 234 3351 509 
Q 3709 784 3866 1347 
L 3981 1347 
L 3791 0 
L 128 0 
L 128 116 
L 269 116 
Q 453 116 566 181 
Q 647 225 691 331 
Q 725 406 725 725 
L 725 3513 
Q 725 3800 709 3866 
Q 678 3975 594 4034 
Q 475 4122 269 4122 
L 128 4122 
L 128 4238 
L 3675 4238 
L 3675 2984 
L 3556 2984 
Q 3466 3444 3302 3644 
Q 3138 3844 2838 3938 
Q 2663 3994 2181 3994 
L 1744 3994 
z
" transform="scale(0.015625)"/>
      <path id="TimesNewRomanPS-BoldMT-4d" d="M 3050 1444 
L 4200 4238 
L 5925 4238 
L 5925 4122 
L 5788 4122 
Q 5600 4122 5488 4056 
Q 5409 4013 5363 3909 
Q 5328 3834 5328 3519 
L 5328 725 
Q 5328 400 5362 319 
Q 5397 238 5503 177 
Q 5609 116 5788 116 
L 5925 116 
L 5925 0 
L 3713 0 
L 3713 116 
L 3850 116 
Q 4038 116 4150 181 
Q 4228 225 4275 331 
Q 4309 406 4309 725 
L 4309 3866 
L 2684 0 
L 2609 0 
L 959 3838 
L 959 853 
Q 959 541 975 469 
Q 1016 313 1152 214 
Q 1288 116 1578 116 
L 1578 0 
L 128 0 
L 128 116 
L 172 116 
Q 313 113 434 161 
Q 556 209 618 290 
Q 681 372 716 519 
Q 722 553 722 838 
L 722 3519 
Q 722 3841 687 3920 
Q 653 4000 547 4061 
Q 441 4122 263 4122 
L 128 4122 
L 128 4238 
L 1859 4238 
L 3050 1444 
z
" transform="scale(0.015625)"/>
      <path id="TimesNewRomanPS-BoldMT-41" d="M 2663 1206 
L 1166 1206 
L 988 794 
Q 900 588 900 453 
Q 900 275 1044 191 
Q 1128 141 1459 116 
L 1459 0 
L 50 0 
L 50 116 
Q 278 150 425 304 
Q 572 459 788 944 
L 2303 4325 
L 2363 4325 
L 3891 850 
Q 4109 356 4250 228 
Q 4356 131 4550 116 
L 4550 0 
L 2500 0 
L 2500 116 
L 2584 116 
Q 2831 116 2931 184 
Q 3000 234 3000 328 
Q 3000 384 2981 444 
Q 2975 472 2888 678 
L 2663 1206 
z
M 2556 1438 
L 1925 2897 
L 1275 1438 
L 2556 1438 
z
" transform="scale(0.015625)"/>
     </defs>
     <use xlink:href="#TimesNewRomanPS-BoldMT-52"/>
     <use xlink:href="#TimesNewRomanPS-BoldMT-65" transform="translate(72.216797 0)"/>
     <use xlink:href="#TimesNewRomanPS-BoldMT-61" transform="translate(116.601562 0)"/>
     <use xlink:href="#TimesNewRomanPS-BoldMT-72" transform="translate(166.601562 0)"/>
     <use xlink:href="#TimesNewRomanPS-BoldMT-2d" transform="translate(207.236328 0)"/>
     <use xlink:href="#TimesNewRomanPS-BoldMT-42" transform="translate(240.537109 0)"/>
     <use xlink:href="#TimesNewRomanPS-BoldMT-45" transform="translate(307.236328 0)"/>
     <use xlink:href="#TimesNewRomanPS-BoldMT-4d" transform="translate(373.935547 0)"/>
     <use xlink:href="#TimesNewRomanPS-BoldMT-41" transform="translate(468.320312 0)"/>
    </g>
   </g>
  </g>
  <g id="axes_3">
   <g id="patch_21">
    <path d="M 448.361521 287.441612 
L 467.945348 287.441612 
L 467.945348 150.058762 
L 448.361521 150.058762 
z
" clip-path="url(#pdba06964b0)" style="fill: #f7f7f7; stroke: #777777; stroke-width: 0.8; stroke-linejoin: miter"/>
   </g>
   <g id="patch_22">
    <path d="M 467.945348 287.441612 
L 497.572163 287.441612 
L 497.572163 150.058762 
L 467.945348 150.058762 
z
" clip-path="url(#pdba06964b0)" style="fill: #dfe8f5; stroke: #777777; stroke-width: 0.8; stroke-linejoin: miter"/>
   </g>
   <g id="patch_23">
    <path d="M 497.572163 287.441612 
L 518.662438 287.441612 
L 518.662438 150.058762 
L 497.572163 150.058762 
z
" clip-path="url(#pdba06964b0)" style="fill: #e8f0cf; stroke: #777777; stroke-width: 0.8; stroke-linejoin: miter"/>
   </g>
   <g id="patch_24">
    <path d="M 518.662438 287.441612 
L 538.246265 287.441612 
L 538.246265 150.058762 
L 518.662438 150.058762 
z
" clip-path="url(#pdba06964b0)" style="fill: #f7d8bf; stroke: #777777; stroke-width: 0.8; stroke-linejoin: miter"/>
   </g>
   <g id="patch_25">
    <path d="M 538.246265 287.441612 
L 553.812896 287.441612 
L 553.812896 150.058762 
L 538.246265 150.058762 
z
" clip-path="url(#pdba06964b0)" style="fill: #f2f2c2; stroke: #777777; stroke-width: 0.8; stroke-linejoin: miter"/>
   </g>
   <g id="patch_26">
    <path d="M 553.812896 287.441612 
L 562.851586 287.441612 
L 562.851586 150.058762 
L 553.812896 150.058762 
z
" clip-path="url(#pdba06964b0)" style="fill: #fff0d8; stroke: #cc6d1f; stroke-width: 2; stroke-linejoin: miter"/>
   </g>
   <g id="patch_27">
    <path d="M 562.851586 287.441612 
L 596.495596 287.441612 
L 596.495596 150.058762 
L 562.851586 150.058762 
z
" clip-path="url(#pdba06964b0)" style="fill: #d8e8cf; stroke: #777777; stroke-width: 0.8; stroke-linejoin: miter"/>
   </g>
   <g id="patch_28">
    <path d="M 596.495596 287.441612 
L 614.572975 287.441612 
L 614.572975 150.058762 
L 596.495596 150.058762 
z
" clip-path="url(#pdba06964b0)" style="fill: #e4d8f5; stroke: #777777; stroke-width: 0.8; stroke-linejoin: miter"/>
   </g>
   <g id="patch_29">
    <path d="M 614.572975 287.441612 
L 633.654652 287.441612 
L 633.654652 150.058762 
L 614.572975 150.058762 
z
" clip-path="url(#pdba06964b0)" style="fill: #d9d9d9; stroke: #777777; stroke-width: 0.8; stroke-linejoin: miter"/>
   </g>
   <g id="patch_30">
    <path d="M 633.654652 287.441612 
L 653.238479 287.441612 
L 653.238479 150.058762 
L 633.654652 150.058762 
z
" clip-path="url(#pdba06964b0)" style="fill: #f7f7f7; stroke: #777777; stroke-width: 0.8; stroke-linejoin: miter"/>
   </g>
   <g id="line2d_3">
    <path d="M 558.332241 146.936425 
L 558.332241 121.957725 
" clip-path="url(#pdba06964b0)" style="fill: none; stroke: #cc6d1f; stroke-width: 1.3; stroke-linecap: square"/>
   </g>
   <g id="text_5">
    <!-- proxy -->
    <g style="fill: #cc6d1f" transform="translate(545.299116 113.447347) scale(0.105 -0.105)">
     <defs>
      <path id="TimesNewRomanPS-BoldMT-70" d="M 1347 297 
L 1347 -791 
Q 1347 -1016 1383 -1097 
Q 1419 -1178 1494 -1215 
Q 1569 -1253 1788 -1253 
L 1788 -1369 
L 122 -1369 
L 122 -1253 
Q 316 -1247 409 -1144 
Q 472 -1072 472 -772 
L 472 2313 
Q 472 2622 400 2708 
Q 328 2794 122 2806 
L 122 2922 
L 1347 2922 
L 1347 2538 
Q 1500 2763 1659 2863 
Q 1888 3009 2156 3009 
Q 2478 3009 2742 2806 
Q 3006 2603 3143 2245 
Q 3281 1888 3281 1475 
Q 3281 1031 3139 664 
Q 2997 297 2726 104 
Q 2456 -88 2125 -88 
Q 1884 -88 1675 19 
Q 1519 100 1347 297 
z
M 1347 613 
Q 1616 231 1922 231 
Q 2091 231 2200 409 
Q 2363 672 2363 1409 
Q 2363 2166 2184 2444 
Q 2066 2628 1866 2628 
Q 1550 2628 1347 2172 
L 1347 613 
z
" transform="scale(0.015625)"/>
      <path id="TimesNewRomanPS-BoldMT-6f" d="M 1594 3009 
Q 1975 3009 2303 2812 
Q 2631 2616 2801 2253 
Q 2972 1891 2972 1459 
Q 2972 838 2656 419 
Q 2275 -88 1603 -88 
Q 944 -88 587 375 
Q 231 838 231 1447 
Q 231 2075 595 2542 
Q 959 3009 1594 3009 
z
M 1606 2788 
Q 1447 2788 1333 2667 
Q 1219 2547 1183 2192 
Q 1147 1838 1147 1206 
Q 1147 872 1191 581 
Q 1225 359 1337 243 
Q 1450 128 1594 128 
Q 1734 128 1828 206 
Q 1950 313 1991 503 
Q 2053 800 2053 1703 
Q 2053 2234 1993 2432 
Q 1934 2631 1819 2722 
Q 1738 2788 1606 2788 
z
" transform="scale(0.015625)"/>
      <path id="TimesNewRomanPS-BoldMT-79" d="M 1556 -119 
L 613 2047 
Q 400 2538 298 2650 
Q 197 2763 53 2806 
L 53 2922 
L 1606 2922 
L 1606 2806 
Q 1453 2800 1390 2747 
Q 1328 2694 1328 2619 
Q 1328 2500 1484 2150 
L 1984 1006 
L 2325 1891 
Q 2509 2363 2509 2547 
Q 2509 2663 2432 2731 
Q 2356 2800 2163 2806 
L 2163 2922 
L 3141 2922 
L 3141 2806 
Q 2997 2791 2906 2695 
Q 2816 2600 2603 2047 
L 1769 -119 
Q 1453 -931 1300 -1119 
Q 1084 -1381 759 -1381 
Q 500 -1381 339 -1232 
Q 178 -1084 178 -875 
Q 178 -694 289 -575 
Q 400 -456 563 -456 
Q 719 -456 814 -556 
Q 909 -656 913 -866 
Q 916 -984 941 -1019 
Q 966 -1053 1013 -1053 
Q 1088 -1053 1172 -963 
Q 1297 -831 1466 -363 
L 1556 -119 
z
" transform="scale(0.015625)"/>
     </defs>
     <use xlink:href="#TimesNewRomanPS-BoldMT-70"/>
     <use xlink:href="#TimesNewRomanPS-BoldMT-72" transform="translate(55.615234 0)"/>
     <use xlink:href="#TimesNewRomanPS-BoldMT-6f" transform="translate(98.25 0)"/>
     <use xlink:href="#TimesNewRomanPS-BoldMT-78" transform="translate(148.25 0)"/>
     <use xlink:href="#TimesNewRomanPS-BoldMT-79" transform="translate(198.25 0)"/>
    </g>
   </g>
   <g id="text_6">
    <!-- Front-BEMA -->
    <g transform="translate(514.803906 70.245) scale(0.125 -0.125)">
     <defs>
      <path id="TimesNewRomanPS-BoldMT-46" d="M 1759 3994 
L 1759 2253 
L 1881 2253 
Q 2163 2253 2341 2337 
Q 2519 2422 2642 2622 
Q 2766 2822 2803 3163 
L 2913 3163 
L 2913 1034 
L 2803 1034 
Q 2744 1638 2480 1830 
Q 2216 2022 1881 2022 
L 1759 2022 
L 1759 725 
Q 1759 400 1795 319 
Q 1831 238 1936 177 
Q 2041 116 2219 116 
L 2359 116 
L 2359 0 
L 144 0 
L 144 116 
L 284 116 
Q 469 116 581 181 
Q 663 225 706 331 
Q 741 406 741 725 
L 741 3513 
Q 741 3838 706 3919 
Q 672 4000 567 4061 
Q 463 4122 284 4122 
L 144 4122 
L 144 4238 
L 3719 4238 
L 3719 3022 
L 3591 3022 
Q 3547 3450 3367 3656 
Q 3188 3863 2847 3947 
Q 2659 3994 2153 3994 
L 1759 3994 
z
" transform="scale(0.015625)"/>
      <path id="TimesNewRomanPS-BoldMT-74" d="M 1375 3991 
L 1375 2922 
L 2069 2922 
L 2069 2613 
L 1375 2613 
L 1375 809 
Q 1375 556 1398 482 
Q 1422 409 1481 364 
Q 1541 319 1591 319 
Q 1794 319 1975 628 
L 2069 559 
Q 1816 -41 1247 -41 
Q 969 -41 776 114 
Q 584 269 531 459 
Q 500 566 500 1034 
L 500 2613 
L 119 2613 
L 119 2722 
Q 513 3000 789 3306 
Q 1066 3613 1272 3991 
L 1375 3991 
z
" transform="scale(0.015625)"/>
     </defs>
     <use xlink:href="#TimesNewRomanPS-BoldMT-46"/>
     <use xlink:href="#TimesNewRomanPS-BoldMT-72" transform="translate(61.083984 0)"/>
     <use xlink:href="#TimesNewRomanPS-BoldMT-6f" transform="translate(103.71875 0)"/>
     <use xlink:href="#TimesNewRomanPS-BoldMT-6e" transform="translate(153.71875 0)"/>
     <use xlink:href="#TimesNewRomanPS-BoldMT-74" transform="translate(209.333984 0)"/>
     <use xlink:href="#TimesNewRomanPS-BoldMT-2d" transform="translate(242.634766 0)"/>
     <use xlink:href="#TimesNewRomanPS-BoldMT-42" transform="translate(275.935547 0)"/>
     <use xlink:href="#TimesNewRomanPS-BoldMT-45" transform="translate(342.634766 0)"/>
     <use xlink:href="#TimesNewRomanPS-BoldMT-4d" transform="translate(409.333984 0)"/>
     <use xlink:href="#TimesNewRomanPS-BoldMT-41" transform="translate(503.71875 0)"/>
    </g>
   </g>
  </g>
  <g id="axes_4">
   <g id="patch_31">
    <path d="M 667.980574 287.441612 
L 687.754621 287.441612 
L 687.754621 150.058762 
L 667.980574 150.058762 
z
" clip-path="url(#p4335d539ec)" style="fill: #f7f7f7; stroke: #777777; stroke-width: 0.8; stroke-linejoin: miter"/>
   </g>
   <g id="patch_32">
    <path d="M 687.754621 287.441612 
L 717.669206 287.441612 
L 717.669206 150.058762 
L 687.754621 150.058762 
z
" clip-path="url(#p4335d539ec)" style="fill: #dfe8f5; stroke: #777777; stroke-width: 0.8; stroke-linejoin: miter"/>
   </g>
   <g id="patch_33">
    <path d="M 717.669206 287.441612 
L 738.964334 287.441612 
L 738.964334 150.058762 
L 717.669206 150.058762 
z
" clip-path="url(#p4335d539ec)" style="fill: #e8f0cf; stroke: #777777; stroke-width: 0.8; stroke-linejoin: miter"/>
   </g>
   <g id="patch_34">
    <path d="M 738.964334 287.441612 
L 758.738382 287.441612 
L 758.738382 150.058762 
L 738.964334 150.058762 
z
" clip-path="url(#p4335d539ec)" style="fill: #f7d8bf; stroke: #777777; stroke-width: 0.8; stroke-linejoin: miter"/>
   </g>
   <g id="patch_35">
    <path d="M 758.738382 287.441612 
L 774.456215 287.441612 
L 774.456215 150.058762 
L 758.738382 150.058762 
z
" clip-path="url(#p4335d539ec)" style="fill: #f2f2c2; stroke: #777777; stroke-width: 0.8; stroke-linejoin: miter"/>
   </g>
   <g id="patch_36">
    <path d="M 774.456215 287.441612 
L 808.427015 287.441612 
L 808.427015 150.058762 
L 774.456215 150.058762 
z
" clip-path="url(#p4335d539ec)" style="fill: #d8e8cf; stroke: #777777; stroke-width: 0.8; stroke-linejoin: miter"/>
   </g>
   <g id="patch_37">
    <path d="M 808.427015 287.441612 
L 815.525391 287.441612 
L 815.525391 150.058762 
L 808.427015 150.058762 
z
" clip-path="url(#p4335d539ec)" style="fill: #ffffff; stroke: #d95f02; stroke-width: 2; stroke-linejoin: miter"/>
   </g>
   <g id="patch_38">
    <path d="M 815.525391 287.441612 
L 833.778358 287.441612 
L 833.778358 150.058762 
L 815.525391 150.058762 
z
" clip-path="url(#p4335d539ec)" style="fill: #e4d8f5; stroke: #777777; stroke-width: 0.8; stroke-linejoin: miter"/>
   </g>
   <g id="patch_39">
    <path d="M 833.778358 287.441612 
L 853.045379 287.441612 
L 853.045379 150.058762 
L 833.778358 150.058762 
z
" clip-path="url(#p4335d539ec)" style="fill: #d9d9d9; stroke: #777777; stroke-width: 0.8; stroke-linejoin: miter"/>
   </g>
   <g id="patch_40">
    <path d="M 853.045379 287.441612 
L 872.819426 287.441612 
L 872.819426 150.058762 
L 853.045379 150.058762 
z
" clip-path="url(#p4335d539ec)" style="fill: #f7f7f7; stroke: #777777; stroke-width: 0.8; stroke-linejoin: miter"/>
   </g>
   <g id="line2d_4">
    <path d="M 811.976203 146.936425 
L 811.976203 121.957725 
" clip-path="url(#p4335d539ec)" style="fill: none; stroke: #d95f02; stroke-width: 1.3; stroke-linecap: square"/>
   </g>
   <g id="text_7">
    <!-- gap -->
    <g style="fill: #d95f02" transform="translate(803.806711 113.447347) scale(0.105 -0.105)">
     <defs>
      <path id="TimesNewRomanPS-BoldMT-67" d="M 2091 2888 
L 3075 2888 
L 3075 2544 
L 2516 2544 
Q 2669 2391 2728 2266 
Q 2803 2097 2803 1913 
Q 2803 1600 2629 1370 
Q 2456 1141 2157 1011 
Q 1859 881 1628 881 
Q 1609 881 1253 897 
Q 1113 897 1017 805 
Q 922 713 922 584 
Q 922 472 1008 400 
Q 1094 328 1288 328 
L 1828 334 
Q 2484 334 2731 191 
Q 3084 -9 3084 -425 
Q 3084 -691 2921 -908 
Q 2759 -1125 2494 -1228 
Q 2091 -1381 1566 -1381 
Q 1172 -1381 847 -1304 
Q 522 -1228 381 -1092 
Q 241 -956 241 -806 
Q 241 -663 348 -548 
Q 456 -434 750 -356 
Q 344 -156 344 200 
Q 344 416 509 619 
Q 675 822 1034 972 
Q 616 1125 428 1375 
Q 241 1625 241 1953 
Q 241 2381 591 2695 
Q 941 3009 1491 3009 
Q 1781 3009 2091 2888 
z
M 1550 2816 
Q 1369 2816 1244 2633 
Q 1119 2450 1119 1875 
Q 1119 1409 1242 1236 
Q 1366 1063 1534 1063 
Q 1722 1063 1847 1234 
Q 1972 1406 1972 1903 
Q 1972 2463 1831 2666 
Q 1731 2816 1550 2816 
z
M 1366 -431 
Q 1047 -431 944 -484 
Q 766 -581 766 -747 
Q 766 -906 950 -1036 
Q 1134 -1166 1644 -1166 
Q 2078 -1166 2326 -1050 
Q 2575 -934 2575 -725 
Q 2575 -647 2528 -594 
Q 2444 -500 2273 -465 
Q 2103 -431 1366 -431 
z
" transform="scale(0.015625)"/>
     </defs>
     <use xlink:href="#TimesNewRomanPS-BoldMT-67"/>
     <use xlink:href="#TimesNewRomanPS-BoldMT-61" transform="translate(50 0)"/>
     <use xlink:href="#TimesNewRomanPS-BoldMT-70" transform="translate(100 0)"/>
    </g>
   </g>
   <g id="text_8">
    <!-- Rear-gap -->
    <g transform="translate(745.640234 70.245) scale(0.125 -0.125)">
     <use xlink:href="#TimesNewRomanPS-BoldMT-52"/>
     <use xlink:href="#TimesNewRomanPS-BoldMT-65" transform="translate(72.216797 0)"/>
     <use xlink:href="#TimesNewRomanPS-BoldMT-61" transform="translate(116.601562 0)"/>
     <use xlink:href="#TimesNewRomanPS-BoldMT-72" transform="translate(166.601562 0)"/>
     <use xlink:href="#TimesNewRomanPS-BoldMT-2d" transform="translate(207.236328 0)"/>
     <use xlink:href="#TimesNewRomanPS-BoldMT-67" transform="translate(240.537109 0)"/>
     <use xlink:href="#TimesNewRomanPS-BoldMT-61" transform="translate(290.537109 0)"/>
     <use xlink:href="#TimesNewRomanPS-BoldMT-70" transform="translate(340.537109 0)"/>
    </g>
   </g>
  </g>
  <g id="axes_5">
   <g id="patch_41">
    <path d="M 887.580574 287.441612 
L 907.354621 287.441612 
L 907.354621 150.058762 
L 887.580574 150.058762 
z
" clip-path="url(#pf8a4314385)" style="fill: #f7f7f7; stroke: #777777; stroke-width: 0.8; stroke-linejoin: miter"/>
   </g>
   <g id="patch_42">
    <path d="M 907.354621 287.441612 
L 937.269206 287.441612 
L 937.269206 150.058762 
L 907.354621 150.058762 
z
" clip-path="url(#pf8a4314385)" style="fill: #dfe8f5; stroke: #777777; stroke-width: 0.8; stroke-linejoin: miter"/>
   </g>
   <g id="patch_43">
    <path d="M 937.269206 287.441612 
L 958.564334 287.441612 
L 958.564334 150.058762 
L 937.269206 150.058762 
z
" clip-path="url(#pf8a4314385)" style="fill: #e8f0cf; stroke: #777777; stroke-width: 0.8; stroke-linejoin: miter"/>
   </g>
   <g id="patch_44">
    <path d="M 958.564334 287.441612 
L 978.338382 287.441612 
L 978.338382 150.058762 
L 958.564334 150.058762 
z
" clip-path="url(#pf8a4314385)" style="fill: #f7d8bf; stroke: #777777; stroke-width: 0.8; stroke-linejoin: miter"/>
   </g>
   <g id="patch_45">
    <path d="M 978.338382 287.441612 
L 994.056215 287.441612 
L 994.056215 150.058762 
L 978.338382 150.058762 
z
" clip-path="url(#pf8a4314385)" style="fill: #f2f2c2; stroke: #777777; stroke-width: 0.8; stroke-linejoin: miter"/>
   </g>
   <g id="patch_46">
    <path d="M 994.056215 287.441612 
L 1001.154591 287.441612 
L 1001.154591 150.058762 
L 994.056215 150.058762 
z
" clip-path="url(#pf8a4314385)" style="fill: #ffffff; stroke: #d95f02; stroke-width: 2; stroke-linejoin: miter"/>
   </g>
   <g id="patch_47">
    <path d="M 1001.154591 287.441612 
L 1035.125391 287.441612 
L 1035.125391 150.058762 
L 1001.154591 150.058762 
z
" clip-path="url(#pf8a4314385)" style="fill: #d8e8cf; stroke: #777777; stroke-width: 0.8; stroke-linejoin: miter"/>
   </g>
   <g id="patch_48">
    <path d="M 1035.125391 287.441612 
L 1053.378358 287.441612 
L 1053.378358 150.058762 
L 1035.125391 150.058762 
z
" clip-path="url(#pf8a4314385)" style="fill: #e4d8f5; stroke: #777777; stroke-width: 0.8; stroke-linejoin: miter"/>
   </g>
   <g id="patch_49">
    <path d="M 1053.378358 287.441612 
L 1072.645379 287.441612 
L 1072.645379 150.058762 
L 1053.378358 150.058762 
z
" clip-path="url(#pf8a4314385)" style="fill: #d9d9d9; stroke: #777777; stroke-width: 0.8; stroke-linejoin: miter"/>
   </g>
   <g id="patch_50">
    <path d="M 1072.645379 287.441612 
L 1092.419426 287.441612 
L 1092.419426 150.058762 
L 1072.645379 150.058762 
z
" clip-path="url(#pf8a4314385)" style="fill: #f7f7f7; stroke: #777777; stroke-width: 0.8; stroke-linejoin: miter"/>
   </g>
   <g id="line2d_5">
    <path d="M 997.605403 146.936425 
L 997.605403 121.957725 
" clip-path="url(#pf8a4314385)" style="fill: none; stroke: #d95f02; stroke-width: 1.3; stroke-linecap: square"/>
   </g>
   <g id="text_9">
    <!-- gap -->
    <g style="fill: #d95f02" transform="translate(989.435911 113.447347) scale(0.105 -0.105)">
     <use xlink:href="#TimesNewRomanPS-BoldMT-67"/>
     <use xlink:href="#TimesNewRomanPS-BoldMT-61" transform="translate(50 0)"/>
     <use xlink:href="#TimesNewRomanPS-BoldMT-70" transform="translate(100 0)"/>
    </g>
   </g>
   <g id="text_10">
    <!-- Front-gap -->
    <g transform="translate(963.029297 70.245) scale(0.125 -0.125)">
     <use xlink:href="#TimesNewRomanPS-BoldMT-46"/>
     <use xlink:href="#TimesNewRomanPS-BoldMT-72" transform="translate(61.083984 0)"/>
     <use xlink:href="#TimesNewRomanPS-BoldMT-6f" transform="translate(103.71875 0)"/>
     <use xlink:href="#TimesNewRomanPS-BoldMT-6e" transform="translate(153.71875 0)"/>
     <use xlink:href="#TimesNewRomanPS-BoldMT-74" transform="translate(209.333984 0)"/>
     <use xlink:href="#TimesNewRomanPS-BoldMT-2d" transform="translate(242.634766 0)"/>
     <use xlink:href="#TimesNewRomanPS-BoldMT-67" transform="translate(275.935547 0)"/>
     <use xlink:href="#TimesNewRomanPS-BoldMT-61" transform="translate(325.935547 0)"/>
     <use xlink:href="#TimesNewRomanPS-BoldMT-70" transform="translate(375.935547 0)"/>
    </g>
   </g>
  </g>
  <g id="text_11">
   <!-- Structure overview of the five single-factor mechanisms -->
   <g transform="translate(337.671562 19.400625) scale(0.18 -0.18)">
    <defs>
     <path id="TimesNewRomanPS-BoldMT-53" d="M 3006 4334 
L 3041 2922 
L 2913 2922 
Q 2822 3453 2467 3776 
Q 2113 4100 1700 4100 
Q 1381 4100 1195 3929 
Q 1009 3759 1009 3538 
Q 1009 3397 1075 3288 
Q 1166 3141 1366 2997 
Q 1513 2894 2044 2631 
Q 2788 2266 3047 1941 
Q 3303 1616 3303 1197 
Q 3303 666 2889 283 
Q 2475 -100 1838 -100 
Q 1638 -100 1459 -59 
Q 1281 -19 1013 94 
Q 863 156 766 156 
Q 684 156 593 93 
Q 503 31 447 -97 
L 331 -97 
L 331 1503 
L 447 1503 
Q 584 828 976 473 
Q 1369 119 1822 119 
Q 2172 119 2380 309 
Q 2588 500 2588 753 
Q 2588 903 2508 1043 
Q 2428 1184 2265 1311 
Q 2103 1438 1691 1641 
Q 1113 1925 859 2125 
Q 606 2325 470 2572 
Q 334 2819 334 3116 
Q 334 3622 706 3978 
Q 1078 4334 1644 4334 
Q 1850 4334 2044 4284 
Q 2191 4247 2402 4145 
Q 2613 4044 2697 4044 
Q 2778 4044 2825 4094 
Q 2872 4144 2913 4334 
L 3006 4334 
z
" transform="scale(0.015625)"/>
     <path id="TimesNewRomanPS-BoldMT-75" d="M 3038 2922 
L 3038 634 
Q 3038 300 3100 217 
Q 3163 134 3353 113 
L 3353 0 
L 2163 0 
L 2163 391 
Q 1953 141 1743 26 
Q 1534 -88 1275 -88 
Q 1028 -88 836 64 
Q 644 216 578 419 
Q 513 622 513 1128 
L 513 2288 
Q 513 2619 452 2700 
Q 391 2781 197 2806 
L 197 2922 
L 1388 2922 
L 1388 925 
Q 1388 613 1417 522 
Q 1447 431 1511 384 
Q 1575 338 1659 338 
Q 1772 338 1863 397 
Q 1988 478 2163 725 
L 2163 2288 
Q 2163 2619 2102 2700 
Q 2041 2781 1847 2806 
L 1847 2922 
L 3038 2922 
z
" transform="scale(0.015625)"/>
     <path id="TimesNewRomanPS-BoldMT-20" transform="scale(0.015625)"/>
     <path id="TimesNewRomanPS-BoldMT-77" d="M 3113 -88 
L 2313 2056 
L 1528 -88 
L 1366 -88 
L 588 2031 
Q 413 2516 291 2663 
Q 213 2763 53 2806 
L 53 2922 
L 1528 2922 
L 1528 2806 
Q 1378 2806 1322 2762 
Q 1266 2719 1266 2663 
Q 1266 2609 1366 2344 
L 1794 1203 
L 2206 2344 
L 2175 2419 
Q 2081 2653 2011 2717 
Q 1941 2781 1794 2806 
L 1794 2922 
L 3291 2922 
L 3291 2806 
Q 3116 2797 3069 2758 
Q 3022 2719 3022 2647 
Q 3022 2578 3113 2344 
L 3525 1203 
L 3900 2253 
Q 3981 2478 3981 2559 
Q 3981 2681 3922 2737 
Q 3863 2794 3691 2806 
L 3691 2922 
L 4556 2922 
L 4556 2806 
Q 4413 2788 4328 2705 
Q 4244 2622 4109 2234 
L 3291 -88 
L 3113 -88 
z
" transform="scale(0.015625)"/>
     <path id="TimesNewRomanPS-BoldMT-66" d="M 1497 2616 
L 1497 588 
Q 1497 294 1559 219 
Q 1659 103 1928 113 
L 1928 0 
L 206 0 
L 206 113 
Q 403 116 486 158 
Q 569 200 600 275 
Q 631 350 631 588 
L 631 2616 
L 206 2616 
L 206 2922 
L 631 2922 
L 631 3138 
L 628 3284 
Q 628 3734 958 4034 
Q 1288 4334 1850 4334 
Q 2234 4334 2420 4190 
Q 2606 4047 2606 3872 
Q 2606 3731 2490 3628 
Q 2375 3525 2184 3525 
Q 2022 3525 1926 3609 
Q 1831 3694 1831 3797 
Q 1831 3825 1850 3913 
Q 1863 3966 1863 4013 
Q 1863 4078 1825 4109 
Q 1775 4156 1703 4156 
Q 1613 4156 1552 4081 
Q 1491 4006 1491 3841 
L 1497 3294 
L 1497 2922 
L 1928 2922 
L 1928 2616 
L 1497 2616 
z
" transform="scale(0.015625)"/>
     <path id="TimesNewRomanPS-BoldMT-6c" d="M 1359 4238 
L 1359 606 
Q 1359 297 1431 211 
Q 1503 125 1713 113 
L 1713 0 
L 134 0 
L 134 113 
Q 328 119 422 225 
Q 484 297 484 606 
L 484 3631 
Q 484 3938 412 4023 
Q 341 4109 134 4122 
L 134 4238 
L 1359 4238 
z
" transform="scale(0.015625)"/>
    </defs>
    <use xlink:href="#TimesNewRomanPS-BoldMT-53"/>
    <use xlink:href="#TimesNewRomanPS-BoldMT-74" transform="translate(55.615234 0)"/>
    <use xlink:href="#TimesNewRomanPS-BoldMT-72" transform="translate(88.916016 0)"/>
    <use xlink:href="#TimesNewRomanPS-BoldMT-75" transform="translate(133.300781 0)"/>
    <use xlink:href="#TimesNewRomanPS-BoldMT-63" transform="translate(188.916016 0)"/>
    <use xlink:href="#TimesNewRomanPS-BoldMT-74" transform="translate(233.300781 0)"/>
    <use xlink:href="#TimesNewRomanPS-BoldMT-75" transform="translate(266.601562 0)"/>
    <use xlink:href="#TimesNewRomanPS-BoldMT-72" transform="translate(322.216797 0)"/>
    <use xlink:href="#TimesNewRomanPS-BoldMT-65" transform="translate(364.851562 0)"/>
    <use xlink:href="#TimesNewRomanPS-BoldMT-20" transform="translate(409.236328 0)"/>
    <use xlink:href="#TimesNewRomanPS-BoldMT-6f" transform="translate(434.236328 0)"/>
    <use xlink:href="#TimesNewRomanPS-BoldMT-76" transform="translate(484.236328 0)"/>
    <use xlink:href="#TimesNewRomanPS-BoldMT-65" transform="translate(534.236328 0)"/>
    <use xlink:href="#TimesNewRomanPS-BoldMT-72" transform="translate(578.621094 0)"/>
    <use xlink:href="#TimesNewRomanPS-BoldMT-76" transform="translate(623.005859 0)"/>
    <use xlink:href="#TimesNewRomanPS-BoldMT-69" transform="translate(673.005859 0)"/>
    <use xlink:href="#TimesNewRomanPS-BoldMT-65" transform="translate(700.789062 0)"/>
    <use xlink:href="#TimesNewRomanPS-BoldMT-77" transform="translate(745.173828 0)"/>
    <use xlink:href="#TimesNewRomanPS-BoldMT-20" transform="translate(817.390625 0)"/>
    <use xlink:href="#TimesNewRomanPS-BoldMT-6f" transform="translate(842.390625 0)"/>
    <use xlink:href="#TimesNewRomanPS-BoldMT-66" transform="translate(892.390625 0)"/>
    <use xlink:href="#TimesNewRomanPS-BoldMT-20" transform="translate(925.691406 0)"/>
    <use xlink:href="#TimesNewRomanPS-BoldMT-74" transform="translate(950.691406 0)"/>
    <use xlink:href="#TimesNewRomanPS-BoldMT-68" transform="translate(983.992188 0)"/>
    <use xlink:href="#TimesNewRomanPS-BoldMT-65" transform="translate(1039.607422 0)"/>
    <use xlink:href="#TimesNewRomanPS-BoldMT-20" transform="translate(1083.992188 0)"/>
    <use xlink:href="#TimesNewRomanPS-BoldMT-66" transform="translate(1108.992188 0)"/>
    <use xlink:href="#TimesNewRomanPS-BoldMT-69" transform="translate(1142.292969 0)"/>
    <use xlink:href="#TimesNewRomanPS-BoldMT-76" transform="translate(1170.076172 0)"/>
    <use xlink:href="#TimesNewRomanPS-BoldMT-65" transform="translate(1220.076172 0)"/>
    <use xlink:href="#TimesNewRomanPS-BoldMT-20" transform="translate(1264.460938 0)"/>
    <use xlink:href="#TimesNewRomanPS-BoldMT-73" transform="translate(1289.460938 0)"/>
    <use xlink:href="#TimesNewRomanPS-BoldMT-69" transform="translate(1328.376953 0)"/>
    <use xlink:href="#TimesNewRomanPS-BoldMT-6e" transform="translate(1356.160156 0)"/>
    <use xlink:href="#TimesNewRomanPS-BoldMT-67" transform="translate(1411.775391 0)"/>
    <use xlink:href="#TimesNewRomanPS-BoldMT-6c" transform="translate(1461.775391 0)"/>
    <use xlink:href="#TimesNewRomanPS-BoldMT-65" transform="translate(1489.558594 0)"/>
    <use xlink:href="#TimesNewRomanPS-BoldMT-2d" transform="translate(1533.943359 0)"/>
    <use xlink:href="#TimesNewRomanPS-BoldMT-66" transform="translate(1567.244141 0)"/>
    <use xlink:href="#TimesNewRomanPS-BoldMT-61" transform="translate(1600.544922 0)"/>
    <use xlink:href="#TimesNewRomanPS-BoldMT-63" transform="translate(1650.544922 0)"/>
    <use xlink:href="#TimesNewRomanPS-BoldMT-74" transform="translate(1694.929688 0)"/>
    <use xlink:href="#TimesNewRomanPS-BoldMT-6f" transform="translate(1728.230469 0)"/>
    <use xlink:href="#TimesNewRomanPS-BoldMT-72" transform="translate(1778.230469 0)"/>
    <use xlink:href="#TimesNewRomanPS-BoldMT-20" transform="translate(1820.865234 0)"/>
    <use xlink:href="#TimesNewRomanPS-BoldMT-6d" transform="translate(1845.865234 0)"/>
    <use xlink:href="#TimesNewRomanPS-BoldMT-65" transform="translate(1929.166016 0)"/>
    <use xlink:href="#TimesNewRomanPS-BoldMT-63" transform="translate(1973.550781 0)"/>
    <use xlink:href="#TimesNewRomanPS-BoldMT-68" transform="translate(2017.935547 0)"/>
    <use xlink:href="#TimesNewRomanPS-BoldMT-61" transform="translate(2073.550781 0)"/>
    <use xlink:href="#TimesNewRomanPS-BoldMT-6e" transform="translate(2123.550781 0)"/>
    <use xlink:href="#TimesNewRomanPS-BoldMT-69" transform="translate(2179.166016 0)"/>
    <use xlink:href="#TimesNewRomanPS-BoldMT-73" transform="translate(2206.949219 0)"/>
    <use xlink:href="#TimesNewRomanPS-BoldMT-6d" transform="translate(2245.865234 0)"/>
    <use xlink:href="#TimesNewRomanPS-BoldMT-73" transform="translate(2329.166016 0)"/>
   </g>
  </g>
 </g>
 <defs>
  <clipPath id="pcbed68711a">
   <rect x="7.2" y="78.245" width="208.8" height="249.787"/>
  </clipPath>
  <clipPath id="pdfba54a208">
   <rect x="226.8" y="78.245" width="208.8" height="249.787"/>
  </clipPath>
  <clipPath id="pdba06964b0">
   <rect x="446.4" y="78.245" width="208.8" height="249.787"/>
  </clipPath>
  <clipPath id="p4335d539ec">
   <rect x="666" y="78.245" width="208.8" height="249.787"/>
  </clipPath>
  <clipPath id="pf8a4314385">
   <rect x="885.6" y="78.245" width="208.8" height="249.787"/>
  </clipPath>
 </defs>
</svg>
