<svg xmlns="http://www.w3.org/2000/svg" width="1200" height="800" viewBox="0 0 1200 800" role="img"><rect width="1200" height="800" fill="white"/><text x="70" y="80" font-family="Arial, DejaVu Sans, Helvetica, sans-serif" font-size="34" font-weight="700" text-anchor="start" fill="#111827">反射率校准流程</text><rect x="70" y="320" width="230" height="120" rx="18" fill="#dbeafe" stroke="#334155" stroke-width="3"/><text x="185.0" y="372" font-family="Arial, DejaVu Sans, Helvetica, sans-serif" font-size="23" font-weight="700" text-anchor="middle" fill="#111827">counts</text><line x1="300" y1="380.0" x2="340" y2="380.0" stroke="#334155" stroke-width="5"/><polygon points="340,380.0 322,370.0 322,390.0" fill="#334155"/><rect x="350" y="320" width="230" height="120" rx="18" fill="#e0f2fe" stroke="#334155" stroke-width="3"/><text x="465.0" y="372" font-family="Arial, DejaVu Sans, Helvetica, sans-serif" font-size="23" font-weight="700" text-anchor="middle" fill="#111827">counts/ms</text><line x1="580" y1="380.0" x2="620" y2="380.0" stroke="#334155" stroke-width="5"/><polygon points="620,380.0 602,370.0 602,390.0" fill="#334155"/><rect x="630" y="320" width="230" height="120" rx="18" fill="#ede9fe" stroke="#334155" stroke-width="3"/><text x="745.0" y="372" font-family="Arial, DejaVu Sans, Helvetica, sans-serif" font-size="23" font-weight="700" text-anchor="middle" fill="#111827">ratio</text><line x1="860" y1="380.0" x2="900" y2="380.0" stroke="#334155" stroke-width="5"/><polygon points="900,380.0 882,370.0 882,390.0" fill="#334155"/><rect x="910" y="320" width="230" height="120" rx="18" fill="#fef3c7" stroke="#334155" stroke-width="3"/><text x="1025.0" y="372" font-family="Arial, DejaVu Sans, Helvetica, sans-serif" font-size="23" font-weight="700" text-anchor="middle" fill="#111827">× R_ref</text><line x1="1140" y1="380.0" x2="1180" y2="380.0" stroke="#334155" stroke-width="5"/><polygon points="1180,380.0 1162,370.0 1162,390.0" fill="#334155"/><rect x="1190" y="320" width="230" height="120" rx="18" fill="#dcfce7" stroke="#334155" stroke-width="3"/><text x="1305.0" y="372" font-family="Arial, DejaVu Sans, Helvetica, sans-serif" font-size="23" font-weight="700" text-anchor="middle" fill="#111827">R_exp</text></svg>