<?xml version="1.0" encoding="utf-8" standalone="no"?>
<!DOCTYPE svg PUBLIC "-//W3C//DTD SVG 1.1//EN"
  "http://www.w3.org/Graphics/SVG/1.1/DTD/svg11.dtd">
<svg xmlns:xlink="http://www.w3.org/1999/xlink" width="885.6pt" height="316.8pt" viewBox="0 0 885.6 316.8" xmlns="http://www.w3.org/2000/svg" version="1.1">
 <metadata>
  <rdf:RDF xmlns:dc="http://purl.org/dc/elements/1.1/" xmlns:cc="http://creativecommons.org/ns#" xmlns:rdf="http://www.w3.org/1999/02/22-rdf-syntax-ns#">
   <cc:Work>
    <dc:type rdf:resource="http://purl.org/dc/dcmitype/StillImage"/>
    <dc:date>2026-04-12T21:53:28.487778</dc:date>
    <dc:format>image/svg+xml</dc:format>
    <dc:creator>
     <cc:Agent>
      <dc:title>Matplotlib v3.10.8, https://matplotlib.org/</dc:title>
     </cc:Agent>
    </dc:creator>
   </cc:Work>
  </rdf:RDF>
 </metadata>
 <defs>
  <style type="text/css">*{stroke-linejoin: round; stroke-linecap: butt}</style>
 </defs>
 <g id="figure_1">
  <g id="patch_1">
   <path d="M 0 316.8 
L 885.6 316.8 
L 885.6 0 
L 0 0 
z
" style="fill: #ffffff"/>
  </g>
  <g id="axes_1">
   <g id="patch_2">
    <path d="M 17.658583 249.718812 
L 99.235534 249.718812 
L 99.235534 111.992079 
L 17.658583 111.992079 
z
" clip-path="url(#p84aa300cfb)" style="fill: #f7f7f7; stroke: #666666; stroke-width: 1.15; stroke-linejoin: miter"/>
   </g>
   <g id="patch_3">
    <path d="M 99.235534 249.718812 
L 222.646819 249.718812 
L 222.646819 111.992079 
L 99.235534 111.992079 
z
" clip-path="url(#p84aa300cfb)" style="fill: #dfe8f5; stroke: #666666; stroke-width: 1.15; stroke-linejoin: miter"/>
   </g>
   <g id="patch_4">
    <path d="M 222.646819 249.718812 
L 310.49892 249.718812 
L 310.49892 111.992079 
L 222.646819 111.992079 
z
" clip-path="url(#p84aa300cfb)" style="fill: #e8f0cf; stroke: #666666; stroke-width: 1.15; stroke-linejoin: miter"/>
   </g>
   <g id="patch_5">
    <path d="M 310.49892 249.718812 
L 392.07587 249.718812 
L 392.07587 111.992079 
L 310.49892 111.992079 
z
" clip-path="url(#p84aa300cfb)" style="fill: #f7d8bf; stroke: #666666; stroke-width: 1.15; stroke-linejoin: miter"/>
   </g>
   <g id="patch_6">
    <path d="M 392.07587 249.718812 
L 456.919088 249.718812 
L 456.919088 111.992079 
L 392.07587 111.992079 
z
" clip-path="url(#p84aa300cfb)" style="fill: #f2f2c2; stroke: #666666; stroke-width: 1.15; stroke-linejoin: miter"/>
   </g>
   <g id="patch_7">
    <path d="M 456.919088 249.718812 
L 566.734214 249.718812 
L 566.734214 111.992079 
L 456.919088 111.992079 
z
" clip-path="url(#p84aa300cfb)" style="fill: #d8e8cf; stroke: #666666; stroke-width: 1.15; stroke-linejoin: miter"/>
   </g>
   <g id="patch_8">
    <path d="M 566.734214 249.718812 
L 631.577431 249.718812 
L 631.577431 111.992079 
L 566.734214 111.992079 
z
" clip-path="url(#p84aa300cfb)" style="fill: #fff0d8; stroke: #cc6d1f; stroke-width: 2.2; stroke-linejoin: miter"/>
   </g>
   <g id="patch_9">
    <path d="M 631.577431 249.718812 
L 706.879232 249.718812 
L 706.879232 111.992079 
L 631.577431 111.992079 
z
" clip-path="url(#p84aa300cfb)" style="fill: #e4d8f5; stroke: #666666; stroke-width: 1.15; stroke-linejoin: miter"/>
   </g>
   <g id="patch_10">
    <path d="M 706.879232 249.718812 
L 786.364466 249.718812 
L 786.364466 111.992079 
L 706.879232 111.992079 
z
" clip-path="url(#p84aa300cfb)" style="fill: #d9d9d9; stroke: #666666; stroke-width: 1.15; stroke-linejoin: miter"/>
   </g>
   <g id="patch_11">
    <path d="M 786.364466 249.718812 
L 867.941417 249.718812 
L 867.941417 111.992079 
L 786.364466 111.992079 
z
" clip-path="url(#p84aa300cfb)" style="fill: #f7f7f7; stroke: #666666; stroke-width: 1.15; stroke-linejoin: miter"/>
   </g>
   <g id="patch_12">
    <path d="M 40.577257 77.061386 
Q 442.799401 77.061386 843.009084 77.061386 
" clip-path="url(#p84aa300cfb)" style="fill: none; stroke: #444444; stroke-width: 1.8; stroke-linecap: round"/>
    <path d="M 836.609084 73.861386 
L 843.009084 77.061386 
L 836.609084 80.261386 
" clip-path="url(#p84aa300cfb)" style="fill: none; stroke: #444444; stroke-width: 1.8; stroke-linecap: round"/>
   </g>
   <g id="text_1">
    <!-- Air -->
    <g transform="translate(50.895731 183.890758) scale(0.11 -0.11)">
     <defs>
      <path id="DejaVuSans-41" d="M 2188 4044 
L 1331 1722 
L 3047 1722 
L 2188 4044 
z
M 1831 4666 
L 2547 4666 
L 4325 0 
L 3669 0 
L 3244 1197 
L 1141 1197 
L 716 0 
L 50 0 
L 1831 4666 
z
" transform="scale(0.015625)"/>
      <path id="DejaVuSans-69" d="M 603 3500 
L 1178 3500 
L 1178 0 
L 603 0 
L 603 3500 
z
M 603 4863 
L 1178 4863 
L 1178 4134 
L 603 4134 
L 603 4863 
z
" transform="scale(0.015625)"/>
      <path id="DejaVuSans-72" d="M 2631 2963 
Q 2534 3019 2420 3045 
Q 2306 3072 2169 3072 
Q 1681 3072 1420 2755 
Q 1159 2438 1159 1844 
L 1159 0 
L 581 0 
L 581 3500 
L 1159 3500 
L 1159 2956 
Q 1341 3275 1631 3429 
Q 1922 3584 2338 3584 
Q 2397 3584 2469 3576 
Q 2541 3569 2628 3553 
L 2631 2963 
z
" transform="scale(0.015625)"/>
     </defs>
     <use xlink:href="#DejaVuSans-41"/>
     <use xlink:href="#DejaVuSans-69" transform="translate(68.408203 0)"/>
     <use xlink:href="#DejaVuSans-72" transform="translate(96.191406 0)"/>
    </g>
   </g>
   <g id="text_2">
    <!-- Glass -->
    <g transform="translate(146.050786 177.731961) scale(0.11 -0.11)">
     <defs>
      <path id="DejaVuSans-47" d="M 3809 666 
L 3809 1919 
L 2778 1919 
L 2778 2438 
L 4434 2438 
L 4434 434 
Q 4069 175 3628 42 
Q 3188 -91 2688 -91 
Q 1594 -91 976 548 
Q 359 1188 359 2328 
Q 359 3472 976 4111 
Q 1594 4750 2688 4750 
Q 3144 4750 3555 4637 
Q 3966 4525 4313 4306 
L 4313 3634 
Q 3963 3931 3569 4081 
Q 3175 4231 2741 4231 
Q 1884 4231 1454 3753 
Q 1025 3275 1025 2328 
Q 1025 1384 1454 906 
Q 1884 428 2741 428 
Q 3075 428 3337 486 
Q 3600 544 3809 666 
z
" transform="scale(0.015625)"/>
      <path id="DejaVuSans-6c" d="M 603 4863 
L 1178 4863 
L 1178 0 
L 603 0 
L 603 4863 
z
" transform="scale(0.015625)"/>
      <path id="DejaVuSans-61" d="M 2194 1759 
Q 1497 1759 1228 1600 
Q 959 1441 959 1056 
Q 959 750 1161 570 
Q 1363 391 1709 391 
Q 2188 391 2477 730 
Q 2766 1069 2766 1631 
L 2766 1759 
L 2194 1759 
z
M 3341 1997 
L 3341 0 
L 2766 0 
L 2766 531 
Q 2569 213 2275 61 
Q 1981 -91 1556 -91 
Q 1019 -91 701 211 
Q 384 513 384 1019 
Q 384 1609 779 1909 
Q 1175 2209 1959 2209 
L 2766 2209 
L 2766 2266 
Q 2766 2663 2505 2880 
Q 2244 3097 1772 3097 
Q 1472 3097 1187 3025 
Q 903 2953 641 2809 
L 641 3341 
Q 956 3463 1253 3523 
Q 1550 3584 1831 3584 
Q 2591 3584 2966 3190 
Q 3341 2797 3341 1997 
z
" transform="scale(0.015625)"/>
      <path id="DejaVuSans-73" d="M 2834 3397 
L 2834 2853 
Q 2591 2978 2328 3040 
Q 2066 3103 1784 3103 
Q 1356 3103 1142 2972 
Q 928 2841 928 2578 
Q 928 2378 1081 2264 
Q 1234 2150 1697 2047 
L 1894 2003 
Q 2506 1872 2764 1633 
Q 3022 1394 3022 966 
Q 3022 478 2636 193 
Q 2250 -91 1575 -91 
Q 1294 -91 989 -36 
Q 684 19 347 128 
L 347 722 
Q 666 556 975 473 
Q 1284 391 1588 391 
Q 1994 391 2212 530 
Q 2431 669 2431 922 
Q 2431 1156 2273 1281 
Q 2116 1406 1581 1522 
L 1381 1569 
Q 847 1681 609 1914 
Q 372 2147 372 2553 
Q 372 3047 722 3315 
Q 1072 3584 1716 3584 
Q 2034 3584 2315 3537 
Q 2597 3491 2834 3397 
z
" transform="scale(0.015625)"/>
     </defs>
     <use xlink:href="#DejaVuSans-47"/>
     <use xlink:href="#DejaVuSans-6c" transform="translate(77.490234 0)"/>
     <use xlink:href="#DejaVuSans-61" transform="translate(105.273438 0)"/>
     <use xlink:href="#DejaVuSans-73" transform="translate(166.552734 0)"/>
     <use xlink:href="#DejaVuSans-73" transform="translate(218.652344 0)"/>
    </g>
    <!-- 1 mm -->
    <g transform="translate(144.979145 190.049555) scale(0.11 -0.11)">
     <defs>
      <path id="DejaVuSans-31" d="M 794 531 
L 1825 531 
L 1825 4091 
L 703 3866 
L 703 4441 
L 1819 4666 
L 2450 4666 
L 2450 531 
L 3481 531 
L 3481 0 
L 794 0 
L 794 531 
z
" transform="scale(0.015625)"/>
      <path id="DejaVuSans-20" transform="scale(0.015625)"/>
      <path id="DejaVuSans-6d" d="M 3328 2828 
Q 3544 3216 3844 3400 
Q 4144 3584 4550 3584 
Q 5097 3584 5394 3201 
Q 5691 2819 5691 2113 
L 5691 0 
L 5113 0 
L 5113 2094 
Q 5113 2597 4934 2840 
Q 4756 3084 4391 3084 
Q 3944 3084 3684 2787 
Q 3425 2491 3425 1978 
L 3425 0 
L 2847 0 
L 2847 2094 
Q 2847 2600 2669 2842 
Q 2491 3084 2119 3084 
Q 1678 3084 1418 2786 
Q 1159 2488 1159 1978 
L 1159 0 
L 581 0 
L 581 3500 
L 1159 3500 
L 1159 2956 
Q 1356 3278 1631 3431 
Q 1906 3584 2284 3584 
Q 2666 3584 2933 3390 
Q 3200 3197 3328 2828 
z
" transform="scale(0.015625)"/>
     </defs>
     <use xlink:href="#DejaVuSans-31"/>
     <use xlink:href="#DejaVuSans-20" transform="translate(63.623047 0)"/>
     <use xlink:href="#DejaVuSans-6d" transform="translate(95.410156 0)"/>
     <use xlink:href="#DejaVuSans-6d" transform="translate(192.822266 0)"/>
    </g>
   </g>
   <g id="text_3">
    <!-- ITO -->
    <g transform="translate(257.261541 177.731961) scale(0.11 -0.11)">
     <defs>
      <path id="DejaVuSans-49" d="M 628 4666 
L 1259 4666 
L 1259 0 
L 628 0 
L 628 4666 
z
" transform="scale(0.015625)"/>
      <path id="DejaVuSans-54" d="M -19 4666 
L 3928 4666 
L 3928 4134 
L 2272 4134 
L 2272 0 
L 1638 0 
L 1638 4134 
L -19 4134 
L -19 4666 
z
" transform="scale(0.015625)"/>
      <path id="DejaVuSans-4f" d="M 2522 4238 
Q 1834 4238 1429 3725 
Q 1025 3213 1025 2328 
Q 1025 1447 1429 934 
Q 1834 422 2522 422 
Q 3209 422 3611 934 
Q 4013 1447 4013 2328 
Q 4013 3213 3611 3725 
Q 3209 4238 2522 4238 
z
M 2522 4750 
Q 3503 4750 4090 4092 
Q 4678 3434 4678 2328 
Q 4678 1225 4090 567 
Q 3503 -91 2522 -91 
Q 1538 -91 948 565 
Q 359 1222 359 2328 
Q 359 3434 948 4092 
Q 1538 4750 2522 4750 
z
" transform="scale(0.015625)"/>
     </defs>
     <use xlink:href="#DejaVuSans-49"/>
     <use xlink:href="#DejaVuSans-54" transform="translate(29.492188 0)"/>
     <use xlink:href="#DejaVuSans-4f" transform="translate(90.576172 0)"/>
    </g>
    <!-- 100 nm -->
    <g transform="translate(245.483807 190.049555) scale(0.11 -0.11)">
     <defs>
      <path id="DejaVuSans-30" d="M 2034 4250 
Q 1547 4250 1301 3770 
Q 1056 3291 1056 2328 
Q 1056 1369 1301 889 
Q 1547 409 2034 409 
Q 2525 409 2770 889 
Q 3016 1369 3016 2328 
Q 3016 3291 2770 3770 
Q 2525 4250 2034 4250 
z
M 2034 4750 
Q 2819 4750 3233 4129 
Q 3647 3509 3647 2328 
Q 3647 1150 3233 529 
Q 2819 -91 2034 -91 
Q 1250 -91 836 529 
Q 422 1150 422 2328 
Q 422 3509 836 4129 
Q 1250 4750 2034 4750 
z
" transform="scale(0.015625)"/>
      <path id="DejaVuSans-6e" d="M 3513 2113 
L 3513 0 
L 2938 0 
L 2938 2094 
Q 2938 2591 2744 2837 
Q 2550 3084 2163 3084 
Q 1697 3084 1428 2787 
Q 1159 2491 1159 1978 
L 1159 0 
L 581 0 
L 581 3500 
L 1159 3500 
L 1159 2956 
Q 1366 3272 1645 3428 
Q 1925 3584 2291 3584 
Q 2894 3584 3203 3211 
Q 3513 2838 3513 2113 
z
" transform="scale(0.015625)"/>
     </defs>
     <use xlink:href="#DejaVuSans-31"/>
     <use xlink:href="#DejaVuSans-30" transform="translate(63.623047 0)"/>
     <use xlink:href="#DejaVuSans-30" transform="translate(127.246094 0)"/>
     <use xlink:href="#DejaVuSans-20" transform="translate(190.869141 0)"/>
     <use xlink:href="#DejaVuSans-6e" transform="translate(222.65625 0)"/>
     <use xlink:href="#DejaVuSans-6d" transform="translate(286.035156 0)"/>
    </g>
   </g>
   <g id="text_4">
    <!-- NiOx -->
    <g transform="translate(338.059895 177.731961) scale(0.11 -0.11)">
     <defs>
      <path id="DejaVuSans-4e" d="M 628 4666 
L 1478 4666 
L 3547 763 
L 3547 4666 
L 4159 4666 
L 4159 0 
L 3309 0 
L 1241 3903 
L 1241 0 
L 628 0 
L 628 4666 
z
" transform="scale(0.015625)"/>
      <path id="DejaVuSans-78" d="M 3513 3500 
L 2247 1797 
L 3578 0 
L 2900 0 
L 1881 1375 
L 863 0 
L 184 0 
L 1544 1831 
L 300 3500 
L 978 3500 
L 1906 2253 
L 2834 3500 
L 3513 3500 
z
" transform="scale(0.015625)"/>
     </defs>
     <use xlink:href="#DejaVuSans-4e"/>
     <use xlink:href="#DejaVuSans-69" transform="translate(74.804688 0)"/>
     <use xlink:href="#DejaVuSans-4f" transform="translate(102.587891 0)"/>
     <use xlink:href="#DejaVuSans-78" transform="translate(181.298828 0)"/>
    </g>
    <!-- 45 nm -->
    <g transform="translate(333.697707 190.049555) scale(0.11 -0.11)">
     <defs>
      <path id="DejaVuSans-34" d="M 2419 4116 
L 825 1625 
L 2419 1625 
L 2419 4116 
z
M 2253 4666 
L 3047 4666 
L 3047 1625 
L 3713 1625 
L 3713 1100 
L 3047 1100 
L 3047 0 
L 2419 0 
L 2419 1100 
L 313 1100 
L 313 1709 
L 2253 4666 
z
" transform="scale(0.015625)"/>
      <path id="DejaVuSans-35" d="M 691 4666 
L 3169 4666 
L 3169 4134 
L 1269 4134 
L 1269 2991 
Q 1406 3038 1543 3061 
Q 1681 3084 1819 3084 
Q 2600 3084 3056 2656 
Q 3513 2228 3513 1497 
Q 3513 744 3044 326 
Q 2575 -91 1722 -91 
Q 1428 -91 1123 -41 
Q 819 9 494 109 
L 494 744 
Q 775 591 1075 516 
Q 1375 441 1709 441 
Q 2250 441 2565 725 
Q 2881 1009 2881 1497 
Q 2881 1984 2565 2268 
Q 2250 2553 1709 2553 
Q 1456 2553 1204 2497 
Q 953 2441 691 2322 
L 691 4666 
z
" transform="scale(0.015625)"/>
     </defs>
     <use xlink:href="#DejaVuSans-34"/>
     <use xlink:href="#DejaVuSans-35" transform="translate(63.623047 0)"/>
     <use xlink:href="#DejaVuSans-20" transform="translate(127.246094 0)"/>
     <use xlink:href="#DejaVuSans-6e" transform="translate(159.033203 0)"/>
     <use xlink:href="#DejaVuSans-6d" transform="translate(222.412109 0)"/>
    </g>
   </g>
   <g id="text_5">
    <!-- SAM -->
    <g transform="translate(412.394901 177.731961) scale(0.11 -0.11)">
     <defs>
      <path id="DejaVuSans-53" d="M 3425 4513 
L 3425 3897 
Q 3066 4069 2747 4153 
Q 2428 4238 2131 4238 
Q 1616 4238 1336 4038 
Q 1056 3838 1056 3469 
Q 1056 3159 1242 3001 
Q 1428 2844 1947 2747 
L 2328 2669 
Q 3034 2534 3370 2195 
Q 3706 1856 3706 1288 
Q 3706 609 3251 259 
Q 2797 -91 1919 -91 
Q 1588 -91 1214 -16 
Q 841 59 441 206 
L 441 856 
Q 825 641 1194 531 
Q 1563 422 1919 422 
Q 2459 422 2753 634 
Q 3047 847 3047 1241 
Q 3047 1584 2836 1778 
Q 2625 1972 2144 2069 
L 1759 2144 
Q 1053 2284 737 2584 
Q 422 2884 422 3419 
Q 422 4038 858 4394 
Q 1294 4750 2059 4750 
Q 2388 4750 2728 4690 
Q 3069 4631 3425 4513 
z
" transform="scale(0.015625)"/>
      <path id="DejaVuSans-4d" d="M 628 4666 
L 1569 4666 
L 2759 1491 
L 3956 4666 
L 4897 4666 
L 4897 0 
L 4281 0 
L 4281 4097 
L 3078 897 
L 2444 897 
L 1241 4097 
L 1241 0 
L 628 0 
L 628 4666 
z
" transform="scale(0.015625)"/>
     </defs>
     <use xlink:href="#DejaVuSans-53"/>
     <use xlink:href="#DejaVuSans-41" transform="translate(65.351562 0)"/>
     <use xlink:href="#DejaVuSans-4d" transform="translate(133.759766 0)"/>
    </g>
    <!-- 5 nm -->
    <g transform="translate(410.407166 190.049555) scale(0.11 -0.11)">
     <use xlink:href="#DejaVuSans-35"/>
     <use xlink:href="#DejaVuSans-20" transform="translate(63.623047 0)"/>
     <use xlink:href="#DejaVuSans-6e" transform="translate(95.410156 0)"/>
     <use xlink:href="#DejaVuSans-6d" transform="translate(158.789062 0)"/>
    </g>
   </g>
   <g id="text_6">
    <!-- PVK_bulk -->
    <g transform="translate(486.701104 183.737789) scale(0.11 -0.11)">
     <defs>
      <path id="DejaVuSans-50" d="M 1259 4147 
L 1259 2394 
L 2053 2394 
Q 2494 2394 2734 2622 
Q 2975 2850 2975 3272 
Q 2975 3691 2734 3919 
Q 2494 4147 2053 4147 
L 1259 4147 
z
M 628 4666 
L 2053 4666 
Q 2838 4666 3239 4311 
Q 3641 3956 3641 3272 
Q 3641 2581 3239 2228 
Q 2838 1875 2053 1875 
L 1259 1875 
L 1259 0 
L 628 0 
L 628 4666 
z
" transform="scale(0.015625)"/>
      <path id="DejaVuSans-56" d="M 1831 0 
L 50 4666 
L 709 4666 
L 2188 738 
L 3669 4666 
L 4325 4666 
L 2547 0 
L 1831 0 
z
" transform="scale(0.015625)"/>
      <path id="DejaVuSans-4b" d="M 628 4666 
L 1259 4666 
L 1259 2694 
L 3353 4666 
L 4166 4666 
L 1850 2491 
L 4331 0 
L 3500 0 
L 1259 2247 
L 1259 0 
L 628 0 
L 628 4666 
z
" transform="scale(0.015625)"/>
      <path id="DejaVuSans-5f" d="M 3263 -1063 
L 3263 -1509 
L -63 -1509 
L -63 -1063 
L 3263 -1063 
z
" transform="scale(0.015625)"/>
      <path id="DejaVuSans-62" d="M 3116 1747 
Q 3116 2381 2855 2742 
Q 2594 3103 2138 3103 
Q 1681 3103 1420 2742 
Q 1159 2381 1159 1747 
Q 1159 1113 1420 752 
Q 1681 391 2138 391 
Q 2594 391 2855 752 
Q 3116 1113 3116 1747 
z
M 1159 2969 
Q 1341 3281 1617 3432 
Q 1894 3584 2278 3584 
Q 2916 3584 3314 3078 
Q 3713 2572 3713 1747 
Q 3713 922 3314 415 
Q 2916 -91 2278 -91 
Q 1894 -91 1617 61 
Q 1341 213 1159 525 
L 1159 0 
L 581 0 
L 581 4863 
L 1159 4863 
L 1159 2969 
z
" transform="scale(0.015625)"/>
      <path id="DejaVuSans-75" d="M 544 1381 
L 544 3500 
L 1119 3500 
L 1119 1403 
Q 1119 906 1312 657 
Q 1506 409 1894 409 
Q 2359 409 2629 706 
Q 2900 1003 2900 1516 
L 2900 3500 
L 3475 3500 
L 3475 0 
L 2900 0 
L 2900 538 
Q 2691 219 2414 64 
Q 2138 -91 1772 -91 
Q 1169 -91 856 284 
Q 544 659 544 1381 
z
M 1991 3584 
L 1991 3584 
z
" transform="scale(0.015625)"/>
      <path id="DejaVuSans-6b" d="M 581 4863 
L 1159 4863 
L 1159 1991 
L 2875 3500 
L 3609 3500 
L 1753 1863 
L 3688 0 
L 2938 0 
L 1159 1709 
L 1159 0 
L 581 0 
L 581 4863 
z
" transform="scale(0.015625)"/>
     </defs>
     <use xlink:href="#DejaVuSans-50"/>
     <use xlink:href="#DejaVuSans-56" transform="translate(60.302734 0)"/>
     <use xlink:href="#DejaVuSans-4b" transform="translate(128.710938 0)"/>
     <use xlink:href="#DejaVuSans-5f" transform="translate(194.287109 0)"/>
     <use xlink:href="#DejaVuSans-62" transform="translate(244.287109 0)"/>
     <use xlink:href="#DejaVuSans-75" transform="translate(307.763672 0)"/>
     <use xlink:href="#DejaVuSans-6c" transform="translate(371.142578 0)"/>
     <use xlink:href="#DejaVuSans-6b" transform="translate(398.925781 0)"/>
    </g>
   </g>
   <g id="text_7">
    <!-- BEMA -->
    <g transform="translate(583.399182 177.731961) scale(0.11 -0.11)">
     <defs>
      <path id="DejaVuSans-42" d="M 1259 2228 
L 1259 519 
L 2272 519 
Q 2781 519 3026 730 
Q 3272 941 3272 1375 
Q 3272 1813 3026 2020 
Q 2781 2228 2272 2228 
L 1259 2228 
z
M 1259 4147 
L 1259 2741 
L 2194 2741 
Q 2656 2741 2882 2914 
Q 3109 3088 3109 3444 
Q 3109 3797 2882 3972 
Q 2656 4147 2194 4147 
L 1259 4147 
z
M 628 4666 
L 2241 4666 
Q 2963 4666 3353 4366 
Q 3744 4066 3744 3513 
Q 3744 3084 3544 2831 
Q 3344 2578 2956 2516 
Q 3422 2416 3680 2098 
Q 3938 1781 3938 1306 
Q 3938 681 3513 340 
Q 3088 0 2303 0 
L 628 0 
L 628 4666 
z
" transform="scale(0.015625)"/>
      <path id="DejaVuSans-45" d="M 628 4666 
L 3578 4666 
L 3578 4134 
L 1259 4134 
L 1259 2753 
L 3481 2753 
L 3481 2222 
L 1259 2222 
L 1259 531 
L 3634 531 
L 3634 0 
L 628 0 
L 628 4666 
z
" transform="scale(0.015625)"/>
     </defs>
     <use xlink:href="#DejaVuSans-42"/>
     <use xlink:href="#DejaVuSans-45" transform="translate(68.603516 0)"/>
     <use xlink:href="#DejaVuSans-4d" transform="translate(131.787109 0)"/>
     <use xlink:href="#DejaVuSans-41" transform="translate(218.066406 0)"/>
    </g>
    <!-- (PVK/C60) -->
    <g transform="translate(571.486525 190.049555) scale(0.11 -0.11)">
     <defs>
      <path id="DejaVuSans-28" d="M 1984 4856 
Q 1566 4138 1362 3434 
Q 1159 2731 1159 2009 
Q 1159 1288 1364 580 
Q 1569 -128 1984 -844 
L 1484 -844 
Q 1016 -109 783 600 
Q 550 1309 550 2009 
Q 550 2706 781 3412 
Q 1013 4119 1484 4856 
L 1984 4856 
z
" transform="scale(0.015625)"/>
      <path id="DejaVuSans-2f" d="M 1625 4666 
L 2156 4666 
L 531 -594 
L 0 -594 
L 1625 4666 
z
" transform="scale(0.015625)"/>
      <path id="DejaVuSans-43" d="M 4122 4306 
L 4122 3641 
Q 3803 3938 3442 4084 
Q 3081 4231 2675 4231 
Q 1875 4231 1450 3742 
Q 1025 3253 1025 2328 
Q 1025 1406 1450 917 
Q 1875 428 2675 428 
Q 3081 428 3442 575 
Q 3803 722 4122 1019 
L 4122 359 
Q 3791 134 3420 21 
Q 3050 -91 2638 -91 
Q 1578 -91 968 557 
Q 359 1206 359 2328 
Q 359 3453 968 4101 
Q 1578 4750 2638 4750 
Q 3056 4750 3426 4639 
Q 3797 4528 4122 4306 
z
" transform="scale(0.015625)"/>
      <path id="DejaVuSans-36" d="M 2113 2584 
Q 1688 2584 1439 2293 
Q 1191 2003 1191 1497 
Q 1191 994 1439 701 
Q 1688 409 2113 409 
Q 2538 409 2786 701 
Q 3034 994 3034 1497 
Q 3034 2003 2786 2293 
Q 2538 2584 2113 2584 
z
M 3366 4563 
L 3366 3988 
Q 3128 4100 2886 4159 
Q 2644 4219 2406 4219 
Q 1781 4219 1451 3797 
Q 1122 3375 1075 2522 
Q 1259 2794 1537 2939 
Q 1816 3084 2150 3084 
Q 2853 3084 3261 2657 
Q 3669 2231 3669 1497 
Q 3669 778 3244 343 
Q 2819 -91 2113 -91 
Q 1303 -91 875 529 
Q 447 1150 447 2328 
Q 447 3434 972 4092 
Q 1497 4750 2381 4750 
Q 2619 4750 2861 4703 
Q 3103 4656 3366 4563 
z
" transform="scale(0.015625)"/>
      <path id="DejaVuSans-29" d="M 513 4856 
L 1013 4856 
Q 1481 4119 1714 3412 
Q 1947 2706 1947 2009 
Q 1947 1309 1714 600 
Q 1481 -109 1013 -844 
L 513 -844 
Q 928 -128 1133 580 
Q 1338 1288 1338 2009 
Q 1338 2731 1133 3434 
Q 928 4138 513 4856 
z
" transform="scale(0.015625)"/>
     </defs>
     <use xlink:href="#DejaVuSans-28"/>
     <use xlink:href="#DejaVuSans-50" transform="translate(39.013672 0)"/>
     <use xlink:href="#DejaVuSans-56" transform="translate(99.316406 0)"/>
     <use xlink:href="#DejaVuSans-4b" transform="translate(167.724609 0)"/>
     <use xlink:href="#DejaVuSans-2f" transform="translate(233.300781 0)"/>
     <use xlink:href="#DejaVuSans-43" transform="translate(266.992188 0)"/>
     <use xlink:href="#DejaVuSans-36" transform="translate(336.816406 0)"/>
     <use xlink:href="#DejaVuSans-30" transform="translate(400.439453 0)"/>
     <use xlink:href="#DejaVuSans-29" transform="translate(464.0625 0)"/>
    </g>
   </g>
   <g id="text_8">
    <!-- C60_bulk -->
    <g transform="translate(643.948956 177.578992) scale(0.11 -0.11)">
     <use xlink:href="#DejaVuSans-43"/>
     <use xlink:href="#DejaVuSans-36" transform="translate(69.824219 0)"/>
     <use xlink:href="#DejaVuSans-30" transform="translate(133.447266 0)"/>
     <use xlink:href="#DejaVuSans-5f" transform="translate(197.070312 0)"/>
     <use xlink:href="#DejaVuSans-62" transform="translate(247.070312 0)"/>
     <use xlink:href="#DejaVuSans-75" transform="translate(310.546875 0)"/>
     <use xlink:href="#DejaVuSans-6c" transform="translate(373.925781 0)"/>
     <use xlink:href="#DejaVuSans-6b" transform="translate(401.708984 0)"/>
    </g>
    <!-- 15 nm -->
    <g transform="translate(651.638644 190.202524) scale(0.11 -0.11)">
     <use xlink:href="#DejaVuSans-31"/>
     <use xlink:href="#DejaVuSans-35" transform="translate(63.623047 0)"/>
     <use xlink:href="#DejaVuSans-20" transform="translate(127.246094 0)"/>
     <use xlink:href="#DejaVuSans-6e" transform="translate(159.033203 0)"/>
     <use xlink:href="#DejaVuSans-6d" transform="translate(222.412109 0)"/>
    </g>
   </g>
   <g id="text_9">
    <!-- Ag -->
    <g transform="translate(739.367864 177.731961) scale(0.11 -0.11)">
     <defs>
      <path id="DejaVuSans-67" d="M 2906 1791 
Q 2906 2416 2648 2759 
Q 2391 3103 1925 3103 
Q 1463 3103 1205 2759 
Q 947 2416 947 1791 
Q 947 1169 1205 825 
Q 1463 481 1925 481 
Q 2391 481 2648 825 
Q 2906 1169 2906 1791 
z
M 3481 434 
Q 3481 -459 3084 -895 
Q 2688 -1331 1869 -1331 
Q 1566 -1331 1297 -1286 
Q 1028 -1241 775 -1147 
L 775 -588 
Q 1028 -725 1275 -790 
Q 1522 -856 1778 -856 
Q 2344 -856 2625 -561 
Q 2906 -266 2906 331 
L 2906 616 
Q 2728 306 2450 153 
Q 2172 0 1784 0 
Q 1141 0 747 490 
Q 353 981 353 1791 
Q 353 2603 747 3093 
Q 1141 3584 1784 3584 
Q 2172 3584 2450 3431 
Q 2728 3278 2906 2969 
L 2906 3500 
L 3481 3500 
L 3481 434 
z
" transform="scale(0.015625)"/>
     </defs>
     <use xlink:href="#DejaVuSans-41"/>
     <use xlink:href="#DejaVuSans-67" transform="translate(68.408203 0)"/>
    </g>
    <!-- 100 nm -->
    <g transform="translate(725.532786 190.049555) scale(0.11 -0.11)">
     <use xlink:href="#DejaVuSans-31"/>
     <use xlink:href="#DejaVuSans-30" transform="translate(63.623047 0)"/>
     <use xlink:href="#DejaVuSans-30" transform="translate(127.246094 0)"/>
     <use xlink:href="#DejaVuSans-20" transform="translate(190.869141 0)"/>
     <use xlink:href="#DejaVuSans-6e" transform="translate(222.65625 0)"/>
     <use xlink:href="#DejaVuSans-6d" transform="translate(286.035156 0)"/>
    </g>
   </g>
   <g id="text_10">
    <!-- Air -->
    <g transform="translate(819.601613 183.890758) scale(0.11 -0.11)">
     <use xlink:href="#DejaVuSans-41"/>
     <use xlink:href="#DejaVuSans-69" transform="translate(68.408203 0)"/>
     <use xlink:href="#DejaVuSans-72" transform="translate(96.191406 0)"/>
    </g>
   </g>
   <g id="text_11">
    <!-- Incident light -->
    <g transform="translate(28.117167 54.605365) scale(0.12 -0.12)">
     <defs>
      <path id="DejaVuSans-63" d="M 3122 3366 
L 3122 2828 
Q 2878 2963 2633 3030 
Q 2388 3097 2138 3097 
Q 1578 3097 1268 2742 
Q 959 2388 959 1747 
Q 959 1106 1268 751 
Q 1578 397 2138 397 
Q 2388 397 2633 464 
Q 2878 531 3122 666 
L 3122 134 
Q 2881 22 2623 -34 
Q 2366 -91 2075 -91 
Q 1284 -91 818 406 
Q 353 903 353 1747 
Q 353 2603 823 3093 
Q 1294 3584 2113 3584 
Q 2378 3584 2631 3529 
Q 2884 3475 3122 3366 
z
" transform="scale(0.015625)"/>
      <path id="DejaVuSans-64" d="M 2906 2969 
L 2906 4863 
L 3481 4863 
L 3481 0 
L 2906 0 
L 2906 525 
Q 2725 213 2448 61 
Q 2172 -91 1784 -91 
Q 1150 -91 751 415 
Q 353 922 353 1747 
Q 353 2572 751 3078 
Q 1150 3584 1784 3584 
Q 2172 3584 2448 3432 
Q 2725 3281 2906 2969 
z
M 947 1747 
Q 947 1113 1208 752 
Q 1469 391 1925 391 
Q 2381 391 2643 752 
Q 2906 1113 2906 1747 
Q 2906 2381 2643 2742 
Q 2381 3103 1925 3103 
Q 1469 3103 1208 2742 
Q 947 2381 947 1747 
z
" transform="scale(0.015625)"/>
      <path id="DejaVuSans-65" d="M 3597 1894 
L 3597 1613 
L 953 1613 
Q 991 1019 1311 708 
Q 1631 397 2203 397 
Q 2534 397 2845 478 
Q 3156 559 3463 722 
L 3463 178 
Q 3153 47 2828 -22 
Q 2503 -91 2169 -91 
Q 1331 -91 842 396 
Q 353 884 353 1716 
Q 353 2575 817 3079 
Q 1281 3584 2069 3584 
Q 2775 3584 3186 3129 
Q 3597 2675 3597 1894 
z
M 3022 2063 
Q 3016 2534 2758 2815 
Q 2500 3097 2075 3097 
Q 1594 3097 1305 2825 
Q 1016 2553 972 2059 
L 3022 2063 
z
" transform="scale(0.015625)"/>
      <path id="DejaVuSans-74" d="M 1172 4494 
L 1172 3500 
L 2356 3500 
L 2356 3053 
L 1172 3053 
L 1172 1153 
Q 1172 725 1289 603 
Q 1406 481 1766 481 
L 2356 481 
L 2356 0 
L 1766 0 
Q 1100 0 847 248 
Q 594 497 594 1153 
L 594 3053 
L 172 3053 
L 172 3500 
L 594 3500 
L 594 4494 
L 1172 4494 
z
" transform="scale(0.015625)"/>
      <path id="DejaVuSans-68" d="M 3513 2113 
L 3513 0 
L 2938 0 
L 2938 2094 
Q 2938 2591 2744 2837 
Q 2550 3084 2163 3084 
Q 1697 3084 1428 2787 
Q 1159 2491 1159 1978 
L 1159 0 
L 581 0 
L 581 4863 
L 1159 4863 
L 1159 2956 
Q 1366 3272 1645 3428 
Q 1925 3584 2291 3584 
Q 2894 3584 3203 3211 
Q 3513 2838 3513 2113 
z
" transform="scale(0.015625)"/>
     </defs>
     <use xlink:href="#DejaVuSans-49"/>
     <use xlink:href="#DejaVuSans-6e" transform="translate(29.492188 0)"/>
     <use xlink:href="#DejaVuSans-63" transform="translate(92.871094 0)"/>
     <use xlink:href="#DejaVuSans-69" transform="translate(147.851562 0)"/>
     <use xlink:href="#DejaVuSans-64" transform="translate(175.634766 0)"/>
     <use xlink:href="#DejaVuSans-65" transform="translate(239.111328 0)"/>
     <use xlink:href="#DejaVuSans-6e" transform="translate(300.634766 0)"/>
     <use xlink:href="#DejaVuSans-74" transform="translate(364.013672 0)"/>
     <use xlink:href="#DejaVuSans-20" transform="translate(403.222656 0)"/>
     <use xlink:href="#DejaVuSans-6c" transform="translate(435.009766 0)"/>
     <use xlink:href="#DejaVuSans-69" transform="translate(462.792969 0)"/>
     <use xlink:href="#DejaVuSans-67" transform="translate(490.576172 0)"/>
     <use xlink:href="#DejaVuSans-68" transform="translate(554.052734 0)"/>
     <use xlink:href="#DejaVuSans-74" transform="translate(617.431641 0)"/>
    </g>
   </g>
   <g id="text_12">
    <!-- observable = R_total -->
    <g style="fill: #005b96" transform="translate(731.702208 54.271615) scale(0.12 -0.12)">
     <defs>
      <path id="DejaVuSans-6f" d="M 1959 3097 
Q 1497 3097 1228 2736 
Q 959 2375 959 1747 
Q 959 1119 1226 758 
Q 1494 397 1959 397 
Q 2419 397 2687 759 
Q 2956 1122 2956 1747 
Q 2956 2369 2687 2733 
Q 2419 3097 1959 3097 
z
M 1959 3584 
Q 2709 3584 3137 3096 
Q 3566 2609 3566 1747 
Q 3566 888 3137 398 
Q 2709 -91 1959 -91 
Q 1206 -91 779 398 
Q 353 888 353 1747 
Q 353 2609 779 3096 
Q 1206 3584 1959 3584 
z
" transform="scale(0.015625)"/>
      <path id="DejaVuSans-76" d="M 191 3500 
L 800 3500 
L 1894 563 
L 2988 3500 
L 3597 3500 
L 2284 0 
L 1503 0 
L 191 3500 
z
" transform="scale(0.015625)"/>
      <path id="DejaVuSans-3d" d="M 678 2906 
L 4684 2906 
L 4684 2381 
L 678 2381 
L 678 2906 
z
M 678 1631 
L 4684 1631 
L 4684 1100 
L 678 1100 
L 678 1631 
z
" transform="scale(0.015625)"/>
      <path id="DejaVuSans-52" d="M 2841 2188 
Q 3044 2119 3236 1894 
Q 3428 1669 3622 1275 
L 4263 0 
L 3584 0 
L 2988 1197 
Q 2756 1666 2539 1819 
Q 2322 1972 1947 1972 
L 1259 1972 
L 1259 0 
L 628 0 
L 628 4666 
L 2053 4666 
Q 2853 4666 3247 4331 
Q 3641 3997 3641 3322 
Q 3641 2881 3436 2590 
Q 3231 2300 2841 2188 
z
M 1259 4147 
L 1259 2491 
L 2053 2491 
Q 2509 2491 2742 2702 
Q 2975 2913 2975 3322 
Q 2975 3731 2742 3939 
Q 2509 4147 2053 4147 
L 1259 4147 
z
" transform="scale(0.015625)"/>
     </defs>
     <use xlink:href="#DejaVuSans-6f"/>
     <use xlink:href="#DejaVuSans-62" transform="translate(61.181641 0)"/>
     <use xlink:href="#DejaVuSans-73" transform="translate(124.658203 0)"/>
     <use xlink:href="#DejaVuSans-65" transform="translate(176.757812 0)"/>
     <use xlink:href="#DejaVuSans-72" transform="translate(238.28125 0)"/>
     <use xlink:href="#DejaVuSans-76" transform="translate(279.394531 0)"/>
     <use xlink:href="#DejaVuSans-61" transform="translate(338.574219 0)"/>
     <use xlink:href="#DejaVuSans-62" transform="translate(399.853516 0)"/>
     <use xlink:href="#DejaVuSans-6c" transform="translate(463.330078 0)"/>
     <use xlink:href="#DejaVuSans-65" transform="translate(491.113281 0)"/>
     <use xlink:href="#DejaVuSans-20" transform="translate(552.636719 0)"/>
     <use xlink:href="#DejaVuSans-3d" transform="translate(584.423828 0)"/>
     <use xlink:href="#DejaVuSans-20" transform="translate(668.212891 0)"/>
     <use xlink:href="#DejaVuSans-52" transform="translate(700 0)"/>
     <use xlink:href="#DejaVuSans-5f" transform="translate(769.482422 0)"/>
     <use xlink:href="#DejaVuSans-74" transform="translate(819.482422 0)"/>
     <use xlink:href="#DejaVuSans-6f" transform="translate(858.691406 0)"/>
     <use xlink:href="#DejaVuSans-74" transform="translate(919.873047 0)"/>
     <use xlink:href="#DejaVuSans-61" transform="translate(959.082031 0)"/>
     <use xlink:href="#DejaVuSans-6c" transform="translate(1020.361328 0)"/>
    </g>
   </g>
   <g id="text_13">
    <!-- glass front surface = incoherent -->
    <g style="fill: #444444" transform="translate(117.015126 276.665347) scale(0.11 -0.11)">
     <defs>
      <path id="DejaVuSans-66" d="M 2375 4863 
L 2375 4384 
L 1825 4384 
Q 1516 4384 1395 4259 
Q 1275 4134 1275 3809 
L 1275 3500 
L 2222 3500 
L 2222 3053 
L 1275 3053 
L 1275 0 
L 697 0 
L 697 3053 
L 147 3053 
L 147 3500 
L 697 3500 
L 697 3744 
Q 697 4328 969 4595 
Q 1241 4863 1831 4863 
L 2375 4863 
z
" transform="scale(0.015625)"/>
     </defs>
     <use xlink:href="#DejaVuSans-67"/>
     <use xlink:href="#DejaVuSans-6c" transform="translate(63.476562 0)"/>
     <use xlink:href="#DejaVuSans-61" transform="translate(91.259766 0)"/>
     <use xlink:href="#DejaVuSans-73" transform="translate(152.539062 0)"/>
     <use xlink:href="#DejaVuSans-73" transform="translate(204.638672 0)"/>
     <use xlink:href="#DejaVuSans-20" transform="translate(256.738281 0)"/>
     <use xlink:href="#DejaVuSans-66" transform="translate(288.525391 0)"/>
     <use xlink:href="#DejaVuSans-72" transform="translate(323.730469 0)"/>
     <use xlink:href="#DejaVuSans-6f" transform="translate(362.59375 0)"/>
     <use xlink:href="#DejaVuSans-6e" transform="translate(423.775391 0)"/>
     <use xlink:href="#DejaVuSans-74" transform="translate(487.154297 0)"/>
     <use xlink:href="#DejaVuSans-20" transform="translate(526.363281 0)"/>
     <use xlink:href="#DejaVuSans-73" transform="translate(558.150391 0)"/>
     <use xlink:href="#DejaVuSans-75" transform="translate(610.25 0)"/>
     <use xlink:href="#DejaVuSans-72" transform="translate(673.628906 0)"/>
     <use xlink:href="#DejaVuSans-66" transform="translate(714.742188 0)"/>
     <use xlink:href="#DejaVuSans-61" transform="translate(749.947266 0)"/>
     <use xlink:href="#DejaVuSans-63" transform="translate(811.226562 0)"/>
     <use xlink:href="#DejaVuSans-65" transform="translate(866.207031 0)"/>
     <use xlink:href="#DejaVuSans-20" transform="translate(927.730469 0)"/>
     <use xlink:href="#DejaVuSans-3d" transform="translate(959.517578 0)"/>
     <use xlink:href="#DejaVuSans-20" transform="translate(1043.306641 0)"/>
     <use xlink:href="#DejaVuSans-69" transform="translate(1075.09375 0)"/>
     <use xlink:href="#DejaVuSans-6e" transform="translate(1102.876953 0)"/>
     <use xlink:href="#DejaVuSans-63" transform="translate(1166.255859 0)"/>
     <use xlink:href="#DejaVuSans-6f" transform="translate(1221.236328 0)"/>
     <use xlink:href="#DejaVuSans-68" transform="translate(1282.417969 0)"/>
     <use xlink:href="#DejaVuSans-65" transform="translate(1345.796875 0)"/>
     <use xlink:href="#DejaVuSans-72" transform="translate(1407.320312 0)"/>
     <use xlink:href="#DejaVuSans-65" transform="translate(1446.183594 0)"/>
     <use xlink:href="#DejaVuSans-6e" transform="translate(1507.707031 0)"/>
     <use xlink:href="#DejaVuSans-74" transform="translate(1571.085938 0)"/>
    </g>
   </g>
   <g id="text_14">
    <!-- thin-film stack = coherent -->
    <g style="fill: #444444" transform="translate(425.794343 276.665347) scale(0.11 -0.11)">
     <defs>
      <path id="DejaVuSans-2d" d="M 313 2009 
L 1997 2009 
L 1997 1497 
L 313 1497 
L 313 2009 
z
" transform="scale(0.015625)"/>
     </defs>
     <use xlink:href="#DejaVuSans-74"/>
     <use xlink:href="#DejaVuSans-68" transform="translate(39.208984 0)"/>
     <use xlink:href="#DejaVuSans-69" transform="translate(102.587891 0)"/>
     <use xlink:href="#DejaVuSans-6e" transform="translate(130.371094 0)"/>
     <use xlink:href="#DejaVuSans-2d" transform="translate(193.75 0)"/>
     <use xlink:href="#DejaVuSans-66" transform="translate(229.833984 0)"/>
     <use xlink:href="#DejaVuSans-69" transform="translate(265.039062 0)"/>
     <use xlink:href="#DejaVuSans-6c" transform="translate(292.822266 0)"/>
     <use xlink:href="#DejaVuSans-6d" transform="translate(320.605469 0)"/>
     <use xlink:href="#DejaVuSans-20" transform="translate(418.017578 0)"/>
     <use xlink:href="#DejaVuSans-73" transform="translate(449.804688 0)"/>
     <use xlink:href="#DejaVuSans-74" transform="translate(501.904297 0)"/>
     <use xlink:href="#DejaVuSans-61" transform="translate(541.113281 0)"/>
     <use xlink:href="#DejaVuSans-63" transform="translate(602.392578 0)"/>
     <use xlink:href="#DejaVuSans-6b" transform="translate(657.373047 0)"/>
     <use xlink:href="#DejaVuSans-20" transform="translate(715.283203 0)"/>
     <use xlink:href="#DejaVuSans-3d" transform="translate(747.070312 0)"/>
     <use xlink:href="#DejaVuSans-20" transform="translate(830.859375 0)"/>
     <use xlink:href="#DejaVuSans-63" transform="translate(862.646484 0)"/>
     <use xlink:href="#DejaVuSans-6f" transform="translate(917.626953 0)"/>
     <use xlink:href="#DejaVuSans-68" transform="translate(978.808594 0)"/>
     <use xlink:href="#DejaVuSans-65" transform="translate(1042.1875 0)"/>
     <use xlink:href="#DejaVuSans-72" transform="translate(1103.710938 0)"/>
     <use xlink:href="#DejaVuSans-65" transform="translate(1142.574219 0)"/>
     <use xlink:href="#DejaVuSans-6e" transform="translate(1204.097656 0)"/>
     <use xlink:href="#DejaVuSans-74" transform="translate(1267.476562 0)"/>
    </g>
   </g>
   <g id="text_15">
    <!-- rear-interface intermixing proxy -->
    <g style="fill: #666666" transform="translate(355.289844 98.061055) scale(0.11 -0.11)">
     <defs>
      <path id="DejaVuSans-70" d="M 1159 525 
L 1159 -1331 
L 581 -1331 
L 581 3500 
L 1159 3500 
L 1159 2969 
Q 1341 3281 1617 3432 
Q 1894 3584 2278 3584 
Q 2916 3584 3314 3078 
Q 3713 2572 3713 1747 
Q 3713 922 3314 415 
Q 2916 -91 2278 -91 
Q 1894 -91 1617 61 
Q 1341 213 1159 525 
z
M 3116 1747 
Q 3116 2381 2855 2742 
Q 2594 3103 2138 3103 
Q 1681 3103 1420 2742 
Q 1159 2381 1159 1747 
Q 1159 1113 1420 752 
Q 1681 391 2138 391 
Q 2594 391 2855 752 
Q 3116 1113 3116 1747 
z
" transform="scale(0.015625)"/>
      <path id="DejaVuSans-79" d="M 2059 -325 
Q 1816 -950 1584 -1140 
Q 1353 -1331 966 -1331 
L 506 -1331 
L 506 -850 
L 844 -850 
Q 1081 -850 1212 -737 
Q 1344 -625 1503 -206 
L 1606 56 
L 191 3500 
L 800 3500 
L 1894 763 
L 2988 3500 
L 3597 3500 
L 2059 -325 
z
" transform="scale(0.015625)"/>
     </defs>
     <use xlink:href="#DejaVuSans-72"/>
     <use xlink:href="#DejaVuSans-65" transform="translate(38.863281 0)"/>
     <use xlink:href="#DejaVuSans-61" transform="translate(100.386719 0)"/>
     <use xlink:href="#DejaVuSans-72" transform="translate(161.666016 0)"/>
     <use xlink:href="#DejaVuSans-2d" transform="translate(196.404297 0)"/>
     <use xlink:href="#DejaVuSans-69" transform="translate(232.488281 0)"/>
     <use xlink:href="#DejaVuSans-6e" transform="translate(260.271484 0)"/>
     <use xlink:href="#DejaVuSans-74" transform="translate(323.650391 0)"/>
     <use xlink:href="#DejaVuSans-65" transform="translate(362.859375 0)"/>
     <use xlink:href="#DejaVuSans-72" transform="translate(424.382812 0)"/>
     <use xlink:href="#DejaVuSans-66" transform="translate(465.496094 0)"/>
     <use xlink:href="#DejaVuSans-61" transform="translate(500.701172 0)"/>
     <use xlink:href="#DejaVuSans-63" transform="translate(561.980469 0)"/>
     <use xlink:href="#DejaVuSans-65" transform="translate(616.960938 0)"/>
     <use xlink:href="#DejaVuSans-20" transform="translate(678.484375 0)"/>
     <use xlink:href="#DejaVuSans-69" transform="translate(710.271484 0)"/>
     <use xlink:href="#DejaVuSans-6e" transform="translate(738.054688 0)"/>
     <use xlink:href="#DejaVuSans-74" transform="translate(801.433594 0)"/>
     <use xlink:href="#DejaVuSans-65" transform="translate(840.642578 0)"/>
     <use xlink:href="#DejaVuSans-72" transform="translate(902.166016 0)"/>
     <use xlink:href="#DejaVuSans-6d" transform="translate(941.529297 0)"/>
     <use xlink:href="#DejaVuSans-69" transform="translate(1038.941406 0)"/>
     <use xlink:href="#DejaVuSans-78" transform="translate(1066.724609 0)"/>
     <use xlink:href="#DejaVuSans-69" transform="translate(1125.904297 0)"/>
     <use xlink:href="#DejaVuSans-6e" transform="translate(1153.6875 0)"/>
     <use xlink:href="#DejaVuSans-67" transform="translate(1217.066406 0)"/>
     <use xlink:href="#DejaVuSans-20" transform="translate(1280.542969 0)"/>
     <use xlink:href="#DejaVuSans-70" transform="translate(1312.330078 0)"/>
     <use xlink:href="#DejaVuSans-72" transform="translate(1375.806641 0)"/>
     <use xlink:href="#DejaVuSans-6f" transform="translate(1414.669922 0)"/>
     <use xlink:href="#DejaVuSans-78" transform="translate(1472.726562 0)"/>
     <use xlink:href="#DejaVuSans-79" transform="translate(1531.90625 0)"/>
    </g>
   </g>
   <g id="patch_13">
    <path d="M 599.155822 41.145057 
Q 599.155822 74.572495 599.155822 106.211078 
" style="fill: none; stroke: #cc6d1f; stroke-width: 1.6; stroke-linecap: round"/>
    <path d="M 601.355822 101.811078 
L 599.155822 106.211078 
L 596.955822 101.811078 
z
" style="fill: #cc6d1f; stroke: #cc6d1f; stroke-width: 1.6; stroke-linecap: round"/>
   </g>
   <g id="text_16">
    <!-- rear-only intermixing -->
    <g style="fill: #cc6d1f" transform="translate(541.51926 22.535344) scale(0.11 -0.11)">
     <use xlink:href="#DejaVuSans-72"/>
     <use xlink:href="#DejaVuSans-65" transform="translate(38.863281 0)"/>
     <use xlink:href="#DejaVuSans-61" transform="translate(100.386719 0)"/>
     <use xlink:href="#DejaVuSans-72" transform="translate(161.666016 0)"/>
     <use xlink:href="#DejaVuSans-2d" transform="translate(196.404297 0)"/>
     <use xlink:href="#DejaVuSans-6f" transform="translate(234.363281 0)"/>
     <use xlink:href="#DejaVuSans-6e" transform="translate(295.544922 0)"/>
     <use xlink:href="#DejaVuSans-6c" transform="translate(358.923828 0)"/>
     <use xlink:href="#DejaVuSans-79" transform="translate(386.707031 0)"/>
     <use xlink:href="#DejaVuSans-20" transform="translate(445.886719 0)"/>
     <use xlink:href="#DejaVuSans-69" transform="translate(477.673828 0)"/>
     <use xlink:href="#DejaVuSans-6e" transform="translate(505.457031 0)"/>
     <use xlink:href="#DejaVuSans-74" transform="translate(568.835938 0)"/>
     <use xlink:href="#DejaVuSans-65" transform="translate(608.044922 0)"/>
     <use xlink:href="#DejaVuSans-72" transform="translate(669.568359 0)"/>
     <use xlink:href="#DejaVuSans-6d" transform="translate(708.931641 0)"/>
     <use xlink:href="#DejaVuSans-69" transform="translate(806.34375 0)"/>
     <use xlink:href="#DejaVuSans-78" transform="translate(834.126953 0)"/>
     <use xlink:href="#DejaVuSans-69" transform="translate(893.306641 0)"/>
     <use xlink:href="#DejaVuSans-6e" transform="translate(921.089844 0)"/>
     <use xlink:href="#DejaVuSans-67" transform="translate(984.46875 0)"/>
    </g>
    <!-- 50/50 PVK + C60 -->
    <g style="fill: #cc6d1f" transform="translate(551.92801 34.852938) scale(0.11 -0.11)">
     <defs>
      <path id="DejaVuSans-2b" d="M 2944 4013 
L 2944 2272 
L 4684 2272 
L 4684 1741 
L 2944 1741 
L 2944 0 
L 2419 0 
L 2419 1741 
L 678 1741 
L 678 2272 
L 2419 2272 
L 2419 4013 
L 2944 4013 
z
" transform="scale(0.015625)"/>
     </defs>
     <use xlink:href="#DejaVuSans-35"/>
     <use xlink:href="#DejaVuSans-30" transform="translate(63.623047 0)"/>
     <use xlink:href="#DejaVuSans-2f" transform="translate(127.246094 0)"/>
     <use xlink:href="#DejaVuSans-35" transform="translate(160.9375 0)"/>
     <use xlink:href="#DejaVuSans-30" transform="translate(224.560547 0)"/>
     <use xlink:href="#DejaVuSans-20" transform="translate(288.183594 0)"/>
     <use xlink:href="#DejaVuSans-50" transform="translate(319.970703 0)"/>
     <use xlink:href="#DejaVuSans-56" transform="translate(380.273438 0)"/>
     <use xlink:href="#DejaVuSans-4b" transform="translate(448.681641 0)"/>
     <use xlink:href="#DejaVuSans-20" transform="translate(514.257812 0)"/>
     <use xlink:href="#DejaVuSans-2b" transform="translate(546.044922 0)"/>
     <use xlink:href="#DejaVuSans-20" transform="translate(629.833984 0)"/>
     <use xlink:href="#DejaVuSans-43" transform="translate(661.621094 0)"/>
     <use xlink:href="#DejaVuSans-36" transform="translate(731.445312 0)"/>
     <use xlink:href="#DejaVuSans-30" transform="translate(795.068359 0)"/>
    </g>
   </g>
   <g id="text_17">
    <!-- a mixed BEMA layer is inserted at the PVK/C60 rear interface. -->
    <g style="fill: #bf5b04" transform="translate(280.946602 301.610043) scale(0.105 -0.105)">
     <defs>
      <path id="DejaVuSans-2e" d="M 684 794 
L 1344 794 
L 1344 0 
L 684 0 
L 684 794 
z
" transform="scale(0.015625)"/>
     </defs>
     <use xlink:href="#DejaVuSans-61"/>
     <use xlink:href="#DejaVuSans-20" transform="translate(61.279297 0)"/>
     <use xlink:href="#DejaVuSans-6d" transform="translate(93.066406 0)"/>
     <use xlink:href="#DejaVuSans-69" transform="translate(190.478516 0)"/>
     <use xlink:href="#DejaVuSans-78" transform="translate(218.261719 0)"/>
     <use xlink:href="#DejaVuSans-65" transform="translate(274.316406 0)"/>
     <use xlink:href="#DejaVuSans-64" transform="translate(335.839844 0)"/>
     <use xlink:href="#DejaVuSans-20" transform="translate(399.316406 0)"/>
     <use xlink:href="#DejaVuSans-42" transform="translate(431.103516 0)"/>
     <use xlink:href="#DejaVuSans-45" transform="translate(499.707031 0)"/>
     <use xlink:href="#DejaVuSans-4d" transform="translate(562.890625 0)"/>
     <use xlink:href="#DejaVuSans-41" transform="translate(649.169922 0)"/>
     <use xlink:href="#DejaVuSans-20" transform="translate(717.578125 0)"/>
     <use xlink:href="#DejaVuSans-6c" transform="translate(749.365234 0)"/>
     <use xlink:href="#DejaVuSans-61" transform="translate(777.148438 0)"/>
     <use xlink:href="#DejaVuSans-79" transform="translate(838.427734 0)"/>
     <use xlink:href="#DejaVuSans-65" transform="translate(897.607422 0)"/>
     <use xlink:href="#DejaVuSans-72" transform="translate(959.130859 0)"/>
     <use xlink:href="#DejaVuSans-20" transform="translate(1000.244141 0)"/>
     <use xlink:href="#DejaVuSans-69" transform="translate(1032.03125 0)"/>
     <use xlink:href="#DejaVuSans-73" transform="translate(1059.814453 0)"/>
     <use xlink:href="#DejaVuSans-20" transform="translate(1111.914062 0)"/>
     <use xlink:href="#DejaVuSans-69" transform="translate(1143.701172 0)"/>
     <use xlink:href="#DejaVuSans-6e" transform="translate(1171.484375 0)"/>
     <use xlink:href="#DejaVuSans-73" transform="translate(1234.863281 0)"/>
     <use xlink:href="#DejaVuSans-65" transform="translate(1286.962891 0)"/>
     <use xlink:href="#DejaVuSans-72" transform="translate(1348.486328 0)"/>
     <use xlink:href="#DejaVuSans-74" transform="translate(1389.599609 0)"/>
     <use xlink:href="#DejaVuSans-65" transform="translate(1428.808594 0)"/>
     <use xlink:href="#DejaVuSans-64" transform="translate(1490.332031 0)"/>
     <use xlink:href="#DejaVuSans-20" transform="translate(1553.808594 0)"/>
     <use xlink:href="#DejaVuSans-61" transform="translate(1585.595703 0)"/>
     <use xlink:href="#DejaVuSans-74" transform="translate(1646.875 0)"/>
     <use xlink:href="#DejaVuSans-20" transform="translate(1686.083984 0)"/>
     <use xlink:href="#DejaVuSans-74" transform="translate(1717.871094 0)"/>
     <use xlink:href="#DejaVuSans-68" transform="translate(1757.080078 0)"/>
     <use xlink:href="#DejaVuSans-65" transform="translate(1820.458984 0)"/>
     <use xlink:href="#DejaVuSans-20" transform="translate(1881.982422 0)"/>
     <use xlink:href="#DejaVuSans-50" transform="translate(1913.769531 0)"/>
     <use xlink:href="#DejaVuSans-56" transform="translate(1974.072266 0)"/>
     <use xlink:href="#DejaVuSans-4b" transform="translate(2042.480469 0)"/>
     <use xlink:href="#DejaVuSans-2f" transform="translate(2108.056641 0)"/>
     <use xlink:href="#DejaVuSans-43" transform="translate(2141.748047 0)"/>
     <use xlink:href="#DejaVuSans-36" transform="translate(2211.572266 0)"/>
     <use xlink:href="#DejaVuSans-30" transform="translate(2275.195312 0)"/>
     <use xlink:href="#DejaVuSans-20" transform="translate(2338.818359 0)"/>
     <use xlink:href="#DejaVuSans-72" transform="translate(2370.605469 0)"/>
     <use xlink:href="#DejaVuSans-65" transform="translate(2409.46875 0)"/>
     <use xlink:href="#DejaVuSans-61" transform="translate(2470.992188 0)"/>
     <use xlink:href="#DejaVuSans-72" transform="translate(2532.271484 0)"/>
     <use xlink:href="#DejaVuSans-20" transform="translate(2573.384766 0)"/>
     <use xlink:href="#DejaVuSans-69" transform="translate(2605.171875 0)"/>
     <use xlink:href="#DejaVuSans-6e" transform="translate(2632.955078 0)"/>
     <use xlink:href="#DejaVuSans-74" transform="translate(2696.333984 0)"/>
     <use xlink:href="#DejaVuSans-65" transform="translate(2735.542969 0)"/>
     <use xlink:href="#DejaVuSans-72" transform="translate(2797.066406 0)"/>
     <use xlink:href="#DejaVuSans-66" transform="translate(2838.179688 0)"/>
     <use xlink:href="#DejaVuSans-61" transform="translate(2873.384766 0)"/>
     <use xlink:href="#DejaVuSans-63" transform="translate(2934.664062 0)"/>
     <use xlink:href="#DejaVuSans-65" transform="translate(2989.644531 0)"/>
     <use xlink:href="#DejaVuSans-2e" transform="translate(3051.167969 0)"/>
    </g>
   </g>
  </g>
 </g>
 <defs>
  <clipPath id="p84aa300cfb">
   <rect x="7.2" y="7.2" width="871.2" height="302.4"/>
  </clipPath>
 </defs>
</svg>
