<svg xmlns="http://www.w3.org/2000/svg" width="900" height="384" viewBox="0 -16 900 384">
  <rect width="860" height="360" fill="#ffffff"/>
  <text x="74" y="28" font-size="24" font-weight="700" fill="#101828">n,k source window</text>
  <line x1="74" y1="306.00" x2="832" y2="306.00" stroke="#e4e7ec" stroke-width="1"/><text x="62" y="311.00" text-anchor="end" font-size="13" fill="#475467">0.000</text><line x1="74" y1="241.50" x2="832" y2="241.50" stroke="#e4e7ec" stroke-width="1"/><text x="62" y="246.50" text-anchor="end" font-size="13" fill="#475467">1.981</text><line x1="74" y1="177.00" x2="832" y2="177.00" stroke="#e4e7ec" stroke-width="1"/><text x="62" y="182.00" text-anchor="end" font-size="13" fill="#475467">3.961</text><line x1="74" y1="112.50" x2="832" y2="112.50" stroke="#e4e7ec" stroke-width="1"/><text x="62" y="117.50" text-anchor="end" font-size="13" fill="#475467">5.942</text><line x1="74" y1="48.00" x2="832" y2="48.00" stroke="#e4e7ec" stroke-width="1"/><text x="62" y="53.00" text-anchor="end" font-size="13" fill="#475467">7.922</text>
  <line x1="74" y1="306" x2="832" y2="306" stroke="#98a2b3" stroke-width="1.5"/>
  <line x1="74" y1="48" x2="74" y2="306" stroke="#98a2b3" stroke-width="1.5"/>
  <line x1="74.00" y1="306" x2="74.00" y2="312" stroke="#98a2b3" stroke-width="1"/><text x="74.00" y="330" text-anchor="middle" font-size="13" fill="#475467">400</text><line x1="182.29" y1="306" x2="182.29" y2="312" stroke="#98a2b3" stroke-width="1"/><text x="182.29" y="330" text-anchor="middle" font-size="13" fill="#475467">500</text><line x1="290.57" y1="306" x2="290.57" y2="312" stroke="#98a2b3" stroke-width="1"/><text x="290.57" y="330" text-anchor="middle" font-size="13" fill="#475467">600</text><line x1="398.86" y1="306" x2="398.86" y2="312" stroke="#98a2b3" stroke-width="1"/><text x="398.86" y="330" text-anchor="middle" font-size="13" fill="#475467">700</text><line x1="507.14" y1="306" x2="507.14" y2="312" stroke="#98a2b3" stroke-width="1"/><text x="507.14" y="330" text-anchor="middle" font-size="13" fill="#475467">800</text><line x1="615.43" y1="306" x2="615.43" y2="312" stroke="#98a2b3" stroke-width="1"/><text x="615.43" y="330" text-anchor="middle" font-size="13" fill="#475467">900</text>
  <polyline fill="none" stroke="#7c3aed" stroke-width="3" points="74.00,230.66 75.08,230.41 76.17,230.15 77.25,229.92 78.33,229.71 79.41,229.51 80.50,229.32 81.58,229.13 82.66,228.90 83.75,228.75 84.83,228.69 85.91,228.52 86.99,228.37 88.08,228.29 89.16,228.21 90.24,228.13 91.33,228.03 92.41,227.98 93.49,227.98 94.57,227.96 95.66,227.94 96.74,227.95 97.82,227.97 98.91,227.99 99.99,227.99 101.07,228.02 102.15,228.06 103.24,228.07 104.32,228.11 105.40,228.18 106.49,228.24 107.57,228.29 108.65,228.29 109.73,228.32 110.82,228.39 111.90,228.48 112.98,228.53 114.07,228.53 115.15,228.57 116.23,228.62 117.31,228.69 118.40,228.75 119.48,228.81 120.56,228.87 121.65,228.91 122.73,228.94 123.81,228.99 124.89,229.03 125.98,229.09 127.06,229.09 128.14,229.05 129.23,229.12 130.31,229.15 131.39,229.12 132.47,229.15 133.56,229.17 134.64,229.12 135.72,229.12 136.81,229.14 137.89,229.05 138.97,229.00 140.05,229.02 141.14,229.00 142.22,228.97 143.30,228.92 144.39,228.84 145.47,228.75 146.55,228.66 147.63,228.56 148.72,228.47 149.80,228.38 150.88,228.28 151.97,228.14 153.05,228.02 154.13,227.92 155.21,227.80 156.30,227.68 157.38,227.55 158.46,227.32 159.55,227.10 160.63,226.92 161.71,226.76 162.79,226.61 163.88,226.49 164.96,226.31 166.04,226.06 167.13,225.91 168.21,225.73 169.29,225.45 170.37,225.22 171.46,225.03 172.54,224.91 173.62,224.72 174.71,224.46 175.79,224.32 176.87,224.15 177.95,223.94 179.04,223.73 180.12,223.52 181.20,223.35 182.29,223.16 183.37,222.96 184.45,222.80 185.53,222.61 186.62,222.35 187.70,222.19 188.78,222.07 189.87,221.92 190.95,221.75 192.03,221.57 193.11,221.41 194.20,221.26 195.28,221.14 196.36,220.96 197.45,220.79 198.53,220.71 199.61,220.57 200.69,220.38 201.78,220.30 202.86,220.21 203.94,220.12 205.03,220.01 206.11,219.91 207.19,219.80 208.27,219.74 209.36,219.70 210.44,219.58 211.52,219.48 212.61,219.42 213.69,219.32 214.77,219.24 215.85,219.19 216.94,219.16 218.02,219.13 219.10,219.05 220.19,218.96 221.27,218.84 222.35,218.81 223.43,218.80 224.52,218.77 225.60,218.75 226.68,218.73 227.77,218.64 228.85,218.60 229.93,218.61 231.01,218.58 232.10,218.53 233.18,218.46 234.26,218.40 235.35,218.35 236.43,218.38 237.51,218.33 238.59,218.20 239.68,218.19 240.76,218.18 241.84,218.15 242.93,218.18 244.01,218.21 245.09,218.10 246.17,218.05 247.26,218.04 248.34,218.08 249.42,218.05 250.51,217.91 251.59,217.91 252.67,217.94 253.75,217.91 254.84,217.88 255.92,217.85 257.00,217.85 258.09,217.86 259.17,217.88 260.25,217.83 261.33,217.78 262.42,217.75 263.50,217.74 264.58,217.74 265.67,217.68 266.75,217.67 267.83,217.71 268.91,217.72 270.00,217.71 271.08,217.65 272.16,217.65 273.25,217.66 274.33,217.67 275.41,217.66 276.49,217.63 277.58,217.69 278.66,217.75 279.74,217.76 280.83,217.76 281.91,217.75 282.99,217.76 284.07,217.82 285.16,217.94 286.24,217.91 287.32,217.92 288.41,218.03 289.49,218.07 290.57,218.08 291.65,218.13 292.74,218.17 293.82,218.20 294.90,218.25 295.99,218.31 297.07,218.39 298.15,218.46 299.23,218.54 300.32,218.61 301.40,218.66 302.48,218.69 303.57,218.78 304.65,218.85 305.73,218.90 306.81,218.93 307.90,218.98 308.98,219.12 310.06,219.21 311.15,219.26 312.23,219.36 313.31,219.43 314.39,219.47 315.48,219.53 316.56,219.61 317.64,219.71 318.73,219.77 319.81,219.82 320.89,219.93 321.97,220.01 323.06,220.03 324.14,220.10 325.22,220.16 326.31,220.17 327.39,220.23 328.47,220.30 329.55,220.36 330.64,220.36 331.72,220.29 332.80,220.38 333.89,220.46 334.97,220.49 336.05,220.53 337.13,220.55 338.22,220.50 339.30,220.45 340.38,220.40 341.47,220.38 342.55,220.38 343.63,220.43 344.71,220.32 345.80,220.19 346.88,220.16 347.96,220.09 349.05,219.99 350.13,219.84 351.21,219.75 352.29,219.73 353.38,219.60 354.46,219.47 355.54,219.43 356.63,219.35 357.71,219.25 358.79,219.07 359.87,218.93 360.96,218.83 362.04,218.69 363.12,218.53 364.21,218.29 365.29,218.18 366.37,218.12 367.45,217.92 368.54,217.71 369.62,217.50 370.70,217.39 371.79,217.30 372.87,217.19 373.95,217.02 375.03,216.82 376.12,216.61 377.20,216.44 378.28,216.30 379.37,216.13 380.45,215.98 381.53,215.85 382.61,215.76 383.70,215.66 384.78,215.44 385.86,215.21 386.95,214.98 388.03,214.94 389.11,214.82 390.19,214.61 391.28,214.44 392.36,214.31 393.44,214.27 394.53,214.16 395.61,214.02 396.69,213.92 397.77,213.79 398.86,213.64 399.94,213.56 401.02,213.45 402.11,213.26 403.19,213.23 404.27,213.22 405.35,212.95 406.44,212.87 407.52,212.97 408.60,212.99 409.69,213.01 410.77,213.01 411.85,213.26 412.93,213.62 414.02,214.09 415.10,214.52 416.18,214.92 417.27,215.05 418.35,215.22 419.43,215.48 420.51,215.70 421.60,215.90 422.68,216.05 423.76,216.25 424.85,216.48 425.93,216.52 427.01,216.57 428.09,216.65 429.18,216.75 430.26,216.85 431.34,216.93 432.43,217.01 433.51,217.08 434.59,217.14 435.67,217.18 436.76,217.20 437.84,217.26 438.92,217.33 440.01,217.40 441.09,217.46 442.17,217.51 443.25,217.53 444.34,217.58 445.42,217.66 446.50,217.70 447.59,217.74 448.67,217.76 449.75,217.77 450.83,217.79 451.92,217.85 453.00,217.87 454.08,217.88 455.17,217.92 456.25,217.94 457.33,217.93 458.41,217.94 459.50,217.94 460.58,217.92 461.66,217.90 462.75,217.90 463.83,217.89 464.91,217.88 465.99,217.86 467.08,217.85 468.16,217.84 469.24,217.83 470.33,217.77 471.41,217.70 472.49,217.68 473.57,217.68 474.66,217.68 475.74,217.58 476.82,217.50 477.91,217.45 478.99,217.43 480.07,217.40 481.15,217.33 482.24,217.25 483.32,217.16 484.40,217.09 485.49,217.02 486.57,216.95 487.65,216.80 488.73,216.68 489.82,216.66 490.90,216.61 491.98,216.55 493.07,216.43 494.15,216.37 495.23,216.34 496.31,216.28 497.40,216.25 498.48,216.27 499.56,216.29 500.65,216.32 501.73,216.41 502.81,216.49 503.89,216.56 504.98,216.63 506.06,216.72 507.14,216.83 508.23,216.96 509.31,217.10 510.39,217.25 511.47,217.40 512.56,217.55 513.64,217.72 514.72,217.88 515.81,218.04 516.89,218.20 517.97,218.36 519.05,218.51 520.14,218.66 521.22,218.82 522.30,218.98 523.39,219.13 524.47,219.28 525.55,219.46 526.63,219.64 527.72,219.82 528.80,219.98 529.88,220.12 530.97,220.18 532.05,220.21 533.13,220.21 534.21,220.22 535.30,220.25 536.38,220.33 537.46,220.43 538.55,220.51 539.63,220.56 540.71,220.63 541.79,220.73 542.88,220.89 543.96,221.03 545.04,221.13 546.13,221.15 547.21,221.18 548.29,221.21 549.37,221.31 550.46,221.42 551.54,221.52 552.62,221.58 553.71,221.62 554.79,221.66 555.87,221.70 556.95,221.76 558.04,221.86 559.12,221.96 560.20,222.05 561.29,222.15 562.37,222.25 563.45,222.33 564.53,222.41 565.62,222.49 566.70,222.57 567.78,222.65 568.87,222.70 569.95,222.78 571.03,222.86 572.11,222.93 573.20,222.99 574.28,223.04 575.36,223.12 576.45,223.18 577.53,223.22 578.61,223.27 579.69,223.31 580.78,223.34 581.86,223.36 582.94,223.39 584.03,223.46 585.11,223.50 586.19,223.54 587.27,223.57 588.36,223.61 589.44,223.65 590.52,223.69 591.61,223.74 592.69,223.80 593.77,223.82 594.85,223.81 595.94,223.78 597.02,223.74 598.10,223.69 599.19,223.65 600.27,223.62 601.35,223.61 602.43,223.65 603.52,223.70 604.60,223.76 605.68,223.82 606.77,223.89 607.85,223.97 608.93,224.02 610.01,224.06 611.10,224.03 612.18,224.00 613.26,223.99 614.35,224.00 615.43,224.02 616.51,224.09 617.59,224.15 618.68,224.22 619.76,224.25 620.84,224.26 621.93,224.21 623.01,224.19 624.09,224.17 625.17,224.17 626.26,224.20 627.34,224.25 628.42,224.35 629.51,224.43 630.59,224.50 631.67,224.50 632.75,224.49 633.84,224.48 634.92,224.44 636.00,224.41 637.09,224.38 638.17,224.36 639.25,224.34 640.33,224.34 641.42,224.35 642.50,224.36 643.58,224.39 644.67,224.43 645.75,224.45 646.83,224.45 647.91,224.46 649.00,224.53 650.08,224.57 651.16,224.60 652.25,224.63 653.33,224.67 654.41,224.75 655.49,224.76 656.58,224.77 657.66,224.75 658.74,224.75 659.83,224.76 660.91,224.78 661.99,224.79 663.07,224.80 664.16,224.83 665.24,224.85 666.32,224.87 667.41,224.91 668.49,224.94 669.57,224.93 670.65,224.93 671.74,224.94 672.82,224.95 673.90,224.95 674.99,224.96 676.07,224.94 677.15,224.94 678.23,224.97 679.32,224.98 680.40,225.00 681.48,225.05 682.57,225.09 683.65,225.12 684.73,225.16 685.81,225.20 686.90,225.24 687.98,225.26 689.06,225.27 690.15,225.27 691.23,225.29 692.31,225.32 693.39,225.33 694.48,225.33 695.56,225.33 696.64,225.36 697.73,225.39 698.81,225.42 699.89,225.41 700.97,225.39 702.06,225.34 703.14,225.31 704.22,225.28 705.31,225.26 706.39,225.23 707.47,225.19 708.55,225.21 709.64,225.25 710.72,225.31 711.80,225.36 712.89,225.40 713.97,225.42 715.05,225.42 716.13,225.41 717.22,225.39 718.30,225.36 719.38,225.32 720.47,225.28 721.55,225.25 722.63,225.22 723.71,225.27 724.80,225.35 725.88,225.42 726.96,225.50 728.05,225.58 729.13,225.65 730.21,225.73 731.29,225.80 732.38,225.88 733.46,225.95 734.54,226.03 735.63,226.10 736.71,226.18 737.79,226.23 738.87,226.24 739.96,226.26 741.04,226.28 742.12,226.28 743.21,226.29 744.29,226.30 745.37,226.32 746.45,226.34 747.54,226.36 748.62,226.38 749.70,226.39 750.79,226.40 751.87,226.41 752.95,226.42 754.03,226.42 755.12,226.42 756.20,226.43 757.28,226.45 758.37,226.46 759.45,226.47 760.53,226.49 761.61,226.50 762.70,226.51 763.78,226.53 764.86,226.55 765.95,226.57 767.03,226.58 768.11,226.60 769.19,226.61 770.28,226.62 771.36,226.61 772.44,226.60 773.53,226.59 774.61,226.59 775.69,226.60 776.77,226.61 777.86,226.63 778.94,226.64 780.02,226.66 781.11,226.67 782.19,226.68 783.27,226.69 784.35,226.69 785.44,226.70 786.52,226.73 787.60,226.75 788.69,226.77 789.77,226.77 790.85,226.77 791.93,226.78 793.02,226.79 794.10,226.81 795.18,226.83 796.27,226.84 797.35,226.84 798.43,226.84 799.51,226.83 800.60,226.86 801.68,226.88 802.76,226.91 803.85,226.92 804.93,226.91 806.01,226.91 807.09,226.90 808.18,226.89 809.26,226.87 810.34,226.86 811.43,226.88 812.51,226.91 813.59,226.94 814.67,226.96 815.76,226.97 816.84,226.98 817.92,226.99 819.01,227.00 820.09,227.00 821.17,227.01 822.25,227.01 823.34,227.02 824.42,227.03 825.50,227.04 826.59,227.06 827.67,227.09 828.75,227.11 829.83,227.14 830.92,227.16 832.00,227.19"/><polyline fill="none" stroke="#d97706" stroke-width="3" points="74.00,265.68 75.08,265.94 76.17,266.11 77.25,266.39 78.33,266.69 79.41,266.97 80.50,267.26 81.58,267.57 82.66,267.90 83.75,268.23 84.83,268.55 85.91,268.87 86.99,269.18 88.08,269.48 89.16,269.77 90.24,270.04 91.33,270.28 92.41,270.61 93.49,271.00 94.57,271.21 95.66,271.44 96.74,271.74 97.82,272.01 98.91,272.26 99.99,272.44 101.07,272.64 102.15,272.86 103.24,273.06 104.32,273.25 105.40,273.42 106.49,273.63 107.57,273.84 108.65,273.89 109.73,273.99 110.82,274.15 111.90,274.27 112.98,274.36 114.07,274.41 115.15,274.53 116.23,274.67 117.31,274.74 118.40,274.79 119.48,274.81 120.56,274.88 121.65,274.94 122.73,274.98 123.81,275.04 124.89,275.08 125.98,275.08 127.06,275.07 128.14,275.04 129.23,275.06 130.31,275.07 131.39,275.08 132.47,275.05 133.56,275.02 134.64,275.01 135.72,274.99 136.81,274.97 137.89,274.90 138.97,274.86 140.05,274.83 141.14,274.77 142.22,274.70 143.30,274.65 144.39,274.59 145.47,274.53 146.55,274.47 147.63,274.42 148.72,274.41 149.80,274.34 150.88,274.26 151.97,274.19 153.05,274.13 154.13,274.08 155.21,274.06 156.30,274.03 157.38,273.97 158.46,273.93 159.55,273.90 160.63,273.90 161.71,273.83 162.79,273.74 163.88,273.78 164.96,273.80 166.04,273.80 167.13,273.82 168.21,273.83 169.29,273.82 170.37,273.81 171.46,273.82 172.54,273.93 173.62,273.98 174.71,273.99 175.79,274.07 176.87,274.15 177.95,274.22 179.04,274.30 180.12,274.38 181.20,274.48 182.29,274.61 183.37,274.76 184.45,274.85 185.53,274.94 186.62,275.04 187.70,275.15 188.78,275.28 189.87,275.44 190.95,275.57 192.03,275.68 193.11,275.86 194.20,276.05 195.28,276.24 196.36,276.37 197.45,276.50 198.53,276.70 199.61,276.85 200.69,276.97 201.78,277.14 202.86,277.31 203.94,277.48 205.03,277.65 206.11,277.82 207.19,277.98 208.27,278.13 209.36,278.26 210.44,278.43 211.52,278.58 212.61,278.72 213.69,278.87 214.77,279.03 215.85,279.17 216.94,279.35 218.02,279.55 219.10,279.74 220.19,279.89 221.27,280.00 222.35,280.16 223.43,280.32 224.52,280.46 225.60,280.60 226.68,280.74 227.77,280.90 228.85,281.06 229.93,281.23 231.01,281.37 232.10,281.51 233.18,281.62 234.26,281.74 235.35,281.87 236.43,282.04 237.51,282.16 238.59,282.27 239.68,282.39 240.76,282.51 241.84,282.64 242.93,282.79 244.01,282.92 245.09,283.03 246.17,283.14 247.26,283.25 248.34,283.41 249.42,283.55 250.51,283.67 251.59,283.80 252.67,283.92 253.75,284.04 254.84,284.17 255.92,284.30 257.00,284.41 258.09,284.54 259.17,284.70 260.25,284.82 261.33,284.93 262.42,285.03 263.50,285.16 264.58,285.32 265.67,285.45 266.75,285.58 267.83,285.69 268.91,285.81 270.00,285.94 271.08,286.05 272.16,286.17 273.25,286.28 274.33,286.41 275.41,286.53 276.49,286.66 277.58,286.80 278.66,286.94 279.74,287.07 280.83,287.18 281.91,287.28 282.99,287.40 284.07,287.53 285.16,287.69 286.24,287.79 287.32,287.90 288.41,288.04 289.49,288.14 290.57,288.24 291.65,288.35 292.74,288.45 293.82,288.55 294.90,288.68 295.99,288.81 297.07,288.95 298.15,289.01 299.23,289.05 300.32,289.17 301.40,289.23 302.48,289.26 303.57,289.38 304.65,289.45 305.73,289.48 306.81,289.53 307.90,289.60 308.98,289.68 310.06,289.74 311.15,289.78 312.23,289.83 313.31,289.86 314.39,289.86 315.48,289.89 316.56,289.92 317.64,289.94 318.73,289.94 319.81,289.92 320.89,289.95 321.97,289.98 323.06,290.00 324.14,289.98 325.22,289.94 326.31,289.87 327.39,289.83 328.47,289.80 329.55,289.77 330.64,289.74 331.72,289.70 332.80,289.65 333.89,289.62 334.97,289.58 336.05,289.52 337.13,289.44 338.22,289.35 339.30,289.27 340.38,289.21 341.47,289.15 342.55,289.10 343.63,289.07 344.71,288.99 345.80,288.91 346.88,288.89 347.96,288.83 349.05,288.76 350.13,288.70 351.21,288.65 352.29,288.60 353.38,288.56 354.46,288.52 355.54,288.47 356.63,288.49 357.71,288.54 358.79,288.46 359.87,288.42 360.96,288.40 362.04,288.44 363.12,288.46 364.21,288.44 365.29,288.46 366.37,288.50 367.45,288.50 368.54,288.51 369.62,288.54 370.70,288.61 371.79,288.67 372.87,288.69 373.95,288.76 375.03,288.84 376.12,288.88 377.20,288.99 378.28,289.15 379.37,289.20 380.45,289.29 381.53,289.45 382.61,289.58 383.70,289.69 384.78,289.78 385.86,289.91 386.95,290.06 388.03,290.21 389.11,290.36 390.19,290.49 391.28,290.73 392.36,290.99 393.44,291.23 394.53,291.42 395.61,291.58 396.69,291.83 397.77,292.04 398.86,292.22 399.94,292.50 401.02,292.77 402.11,292.95 403.19,293.23 404.27,293.54 405.35,293.80 406.44,294.12 407.52,294.51 408.60,294.88 409.69,295.26 410.77,295.63 411.85,296.23 412.93,296.83 414.02,296.98 415.10,297.15 416.18,297.32 417.27,297.48 418.35,297.56 419.43,297.51 420.51,297.51 421.60,297.52 422.68,297.56 423.76,297.52 424.85,297.43 425.93,297.50 427.01,297.56 428.09,297.63 429.18,297.59 430.26,297.58 431.34,297.66 432.43,297.68 433.51,297.67 434.59,297.68 435.67,297.71 436.76,297.77 437.84,297.75 438.92,297.74 440.01,297.74 441.09,297.76 442.17,297.79 443.25,297.82 444.34,297.82 445.42,297.81 446.50,297.81 447.59,297.82 448.67,297.84 449.75,297.85 450.83,297.85 451.92,297.86 453.00,297.87 454.08,297.88 455.17,297.90 456.25,297.91 457.33,297.92 458.41,297.94 459.50,297.97 460.58,297.99 461.66,298.00 462.75,298.01 463.83,298.02 464.91,298.03 465.99,298.03 467.08,298.05 468.16,298.07 469.24,298.08 470.33,298.11 471.41,298.14 472.49,298.13 473.57,298.15 474.66,298.20 475.74,298.24 476.82,298.28 477.91,298.32 478.99,298.36 480.07,298.40 481.15,298.49 482.24,298.55 483.32,298.62 484.40,298.71 485.49,298.81 486.57,298.90 487.65,299.02 488.73,299.14 489.82,299.26 490.90,299.41 491.98,299.58 493.07,299.80 494.15,300.02 495.23,300.24 496.31,300.41 497.40,300.58 498.48,300.77 499.56,300.98 500.65,301.20 501.73,301.46 502.81,301.71 503.89,301.94 504.98,302.13 506.06,302.30 507.14,302.46 508.23,302.64 509.31,302.82 510.39,302.99 511.47,303.14 512.56,303.28 513.64,303.42 514.72,303.54 515.81,303.65 516.89,303.75 517.97,303.85 519.05,303.93 520.14,304.00 521.22,304.07 522.30,304.14 523.39,304.19 524.47,304.24 525.55,304.31 526.63,304.37 527.72,304.43 528.80,304.49 529.88,304.54 530.97,304.59 532.05,304.62 533.13,304.65 534.21,304.67 535.30,304.69 536.38,304.71 537.46,304.73 538.55,304.75 539.63,304.77 540.71,304.78 541.79,304.79 542.88,304.80 543.96,304.81 545.04,304.83 546.13,304.86 547.21,304.88 548.29,304.88 549.37,304.88 550.46,304.87 551.54,304.89 552.62,304.90 553.71,304.92 554.79,304.92 555.87,304.92 556.95,304.93 558.04,304.91 559.12,304.91 560.20,304.91 561.29,304.92 562.37,304.93 563.45,304.94 564.53,304.94 565.62,304.94 566.70,304.97 567.78,304.99 568.87,305.01 569.95,305.03 571.03,305.05 572.11,305.07 573.20,305.09 574.28,305.11 575.36,305.14 576.45,305.16 577.53,305.17 578.61,305.22 579.69,305.26 580.78,305.27 581.86,305.30 582.94,305.33 584.03,305.34 585.11,305.37 586.19,305.40 587.27,305.41 588.36,305.43 589.44,305.45 590.52,305.48 591.61,305.51 592.69,305.53 593.77,305.56 594.85,305.58 595.94,305.60 597.02,305.61 598.10,305.63 599.19,305.64 600.27,305.64 601.35,305.65 602.43,305.65 603.52,305.66 604.60,305.67 605.68,305.68 606.77,305.69 607.85,305.71 608.93,305.73 610.01,305.75 611.10,305.76 612.18,305.77 613.26,305.78 614.35,305.78 615.43,305.78 616.51,305.78 617.59,305.80 618.68,305.81 619.76,305.83 620.84,305.84 621.93,305.84 623.01,305.86 624.09,305.87 625.17,305.87 626.26,305.87 627.34,305.87 628.42,305.89 629.51,305.90 630.59,305.91 631.67,305.92 632.75,305.94 633.84,305.95 634.92,305.96 636.00,305.97 637.09,305.98 638.17,305.97 639.25,305.96 640.33,305.97 641.42,305.96 642.50,305.95 643.58,305.97 644.67,305.99 645.75,305.98 646.83,305.95 647.91,305.92 649.00,305.95 650.08,305.97 651.16,305.99 652.25,305.98 653.33,305.97 654.41,305.96 655.49,305.98 656.58,306.00 657.66,305.99 658.74,305.99 659.83,306.00 660.91,305.97 661.99,305.97 663.07,305.98 664.16,305.97 665.24,305.95 666.32,305.94 667.41,305.94 668.49,305.95 669.57,305.97 670.65,305.95 671.74,305.92 672.82,305.92 673.90,305.91 674.99,305.89 676.07,305.94 677.15,305.96 678.23,305.92 679.32,305.95 680.40,305.98 681.48,305.92 682.57,305.92 683.65,305.97 684.73,305.96 685.81,305.95 686.90,305.93 687.98,305.91 689.06,305.91 690.15,305.92 691.23,305.94 692.31,305.94 693.39,305.89 694.48,305.88 695.56,305.92 696.64,305.90 697.73,305.89 698.81,305.90 699.89,305.89 700.97,305.88 702.06,305.88 703.14,305.88 704.22,305.89 705.31,305.88 706.39,305.89 707.47,305.89 708.55,305.91 709.64,305.90 710.72,305.87 711.80,305.87 712.89,305.88 713.97,305.90 715.05,305.89 716.13,305.88 717.22,305.87 718.30,305.87 719.38,305.89 720.47,305.86 721.55,305.84 722.63,305.86 723.71,305.87 724.80,305.88 725.88,305.88 726.96,305.88 728.05,305.89 729.13,305.89 730.21,305.90 731.29,305.90 732.38,305.90 733.46,305.91 734.54,305.91 735.63,305.92 736.71,305.92 737.79,305.93 738.87,305.94 739.96,305.95 741.04,305.96 742.12,305.93 743.21,305.90 744.29,305.87 745.37,305.88 746.45,305.90 747.54,305.92 748.62,305.93 749.70,305.93 750.79,305.92 751.87,305.91 752.95,305.93 754.03,305.95 755.12,305.96 756.20,305.97 757.28,305.96 758.37,305.95 759.45,305.94 760.53,305.93 761.61,305.92 762.70,305.91 763.78,305.92 764.86,305.93 765.95,305.94 767.03,305.95 768.11,305.95 769.19,305.95 770.28,305.95 771.36,305.94 772.44,305.93 773.53,305.92 774.61,305.92 775.69,305.92 776.77,305.92 777.86,305.92 778.94,305.93 780.02,305.93 781.11,305.94 782.19,305.95 783.27,305.97 784.35,305.98 785.44,305.98 786.52,305.98 787.60,305.97 788.69,305.96 789.77,305.96 790.85,305.95 791.93,305.94 793.02,305.95 794.10,305.96 795.18,305.96 796.27,305.97 797.35,305.97 798.43,305.97 799.51,305.97 800.60,305.97 801.68,305.97 802.76,305.97 803.85,305.97 804.93,305.97 806.01,305.97 807.09,305.97 808.18,305.97 809.26,305.96 810.34,305.95 811.43,305.95 812.51,305.96 813.59,305.96 814.67,305.97 815.76,305.97 816.84,305.98 817.92,305.98 819.01,305.97 820.09,305.96 821.17,305.95 822.25,305.95 823.34,305.97 824.42,305.98 825.50,305.99 826.59,305.99 827.67,305.98 828.75,305.98 829.83,305.98 830.92,305.99 832.00,306.00"/><polyline fill="none" stroke="#ef4444" stroke-width="3" points="74.00,236.34 75.08,235.96 76.17,235.59 77.25,235.21 78.33,234.83 79.41,234.46 80.50,234.08 81.58,233.71 82.66,233.34 83.75,232.97 84.83,232.60 85.91,232.23 86.99,231.87 88.08,231.50 89.16,231.14 90.24,230.77 91.33,230.41 92.41,230.05 93.49,229.69 94.57,229.33 95.66,228.97 96.74,228.61 97.82,228.25 98.91,227.90 99.99,227.54 101.07,227.19 102.15,226.84 103.24,226.49 104.32,226.14 105.40,225.80 106.49,225.46 107.57,225.11 108.65,224.78 109.73,224.44 110.82,224.11 111.90,223.77 112.98,223.44 114.07,223.11 115.15,222.79 116.23,222.46 117.31,222.13 118.40,221.81 119.48,221.48 120.56,221.16 121.65,220.84 122.73,220.51 123.81,220.19 124.89,219.87 125.98,219.55 127.06,219.22 128.14,218.90 129.23,218.58 130.31,218.26 131.39,217.94 132.47,217.62 133.56,217.30 134.64,216.98 135.72,216.66 136.81,216.34 137.89,216.03 138.97,215.72 140.05,215.41 141.14,215.10 142.22,214.80 143.30,214.49 144.39,214.19 145.47,213.89 146.55,213.59 147.63,213.28 148.72,212.98 149.80,212.68 150.88,212.38 151.97,212.08 153.05,211.78 154.13,211.47 155.21,211.17 156.30,210.87 157.38,210.57 158.46,210.26 159.55,209.96 160.63,209.66 161.71,209.36 162.79,209.05 163.88,208.75 164.96,208.45 166.04,208.15 167.13,207.85 168.21,207.55 169.29,207.25 170.37,206.96 171.46,206.66 172.54,206.36 173.62,206.06 174.71,205.77 175.79,205.47 176.87,205.17 177.95,204.88 179.04,204.59 180.12,204.29 181.20,204.00 182.29,203.71 183.37,203.42 184.45,203.13 185.53,202.84 186.62,202.55 187.70,202.26 188.78,201.98 189.87,201.69 190.95,201.40 192.03,201.12 193.11,200.83 194.20,200.54 195.28,200.26 196.36,199.97 197.45,199.68 198.53,199.40 199.61,199.11 200.69,198.82 201.78,198.54 202.86,198.25 203.94,197.97 205.03,197.69 206.11,197.40 207.19,197.12 208.27,196.84 209.36,196.56 210.44,196.27 211.52,195.99 212.61,195.71 213.69,195.43 214.77,195.15 215.85,194.86 216.94,194.58 218.02,194.30 219.10,194.02 220.19,193.74 221.27,193.45 222.35,193.17 223.43,192.89 224.52,192.61 225.60,192.33 226.68,192.04 227.77,191.76 228.85,191.48 229.93,191.20 231.01,190.92 232.10,190.64 233.18,190.36 234.26,190.08 235.35,189.80 236.43,189.52 237.51,189.24 238.59,188.96 239.68,188.68 240.76,188.40 241.84,188.12 242.93,187.83 244.01,187.55 245.09,187.27 246.17,186.99 247.26,186.72 248.34,186.44 249.42,186.16 250.51,185.88 251.59,185.61 252.67,185.33 253.75,185.06 254.84,184.78 255.92,184.51 257.00,184.24 258.09,183.96 259.17,183.69 260.25,183.42 261.33,183.15 262.42,182.87 263.50,182.60 264.58,182.33 265.67,182.06 266.75,181.79 267.83,181.51 268.91,181.24 270.00,180.97 271.08,180.70 272.16,180.43 273.25,180.15 274.33,179.88 275.41,179.61 276.49,179.34 277.58,179.06 278.66,178.79 279.74,178.52 280.83,178.25 281.91,177.98 282.99,177.70 284.07,177.43 285.16,177.16 286.24,176.89 287.32,176.62 288.41,176.35 289.49,176.08 290.57,175.80 291.65,175.53 292.74,175.26 293.82,174.99 294.90,174.72 295.99,174.45 297.07,174.18 298.15,173.90 299.23,173.63 300.32,173.36 301.40,173.09 302.48,172.82 303.57,172.54 304.65,172.27 305.73,172.00 306.81,171.73 307.90,171.46 308.98,171.18 310.06,170.91 311.15,170.64 312.23,170.37 313.31,170.10 314.39,169.83 315.48,169.57 316.56,169.30 317.64,169.03 318.73,168.76 319.81,168.50 320.89,168.23 321.97,167.96 323.06,167.70 324.14,167.43 325.22,167.16 326.31,166.89 327.39,166.63 328.47,166.36 329.55,166.09 330.64,165.82 331.72,165.55 332.80,165.29 333.89,165.02 334.97,164.75 336.05,164.48 337.13,164.21 338.22,163.94 339.30,163.68 340.38,163.41 341.47,163.14 342.55,162.87 343.63,162.61 344.71,162.34 345.80,162.07 346.88,161.81 347.96,161.54 349.05,161.28 350.13,161.02 351.21,160.75 352.29,160.49 353.38,160.23 354.46,159.96 355.54,159.70 356.63,159.44 357.71,159.17 358.79,158.91 359.87,158.65 360.96,158.39 362.04,158.12 363.12,157.86 364.21,157.60 365.29,157.33 366.37,157.07 367.45,156.81 368.54,156.55 369.62,156.28 370.70,156.02 371.79,155.76 372.87,155.49 373.95,155.23 375.03,154.97 376.12,154.71 377.20,154.44 378.28,154.18 379.37,153.92 380.45,153.65 381.53,153.39 382.61,153.13 383.70,152.86 384.78,152.60 385.86,152.34 386.95,152.08 388.03,151.82 389.11,151.56 390.19,151.30 391.28,151.04 392.36,150.78 393.44,150.52 394.53,150.26 395.61,150.00 396.69,149.74 397.77,149.48 398.86,149.22 399.94,148.96 401.02,148.70 402.11,148.44 403.19,148.18 404.27,147.92 405.35,147.66 406.44,147.40 407.52,147.14 408.60,146.88 409.69,146.62 410.77,146.36 411.85,146.10 412.93,145.84 414.02,145.58 415.10,145.32 416.18,145.06 417.27,144.80 418.35,144.55 419.43,144.29 420.51,144.03 421.60,143.77 422.68,143.51 423.76,143.25 424.85,142.99 425.93,142.73 427.01,142.47 428.09,142.21 429.18,141.95 430.26,141.69 431.34,141.43 432.43,141.17 433.51,140.91 434.59,140.65 435.67,140.40 436.76,140.14 437.84,139.88 438.92,139.62 440.01,139.37 441.09,139.11 442.17,138.85 443.25,138.59 444.34,138.34 445.42,138.08 446.50,137.82 447.59,137.56 448.67,137.30 449.75,137.05 450.83,136.79 451.92,136.53 453.00,136.27 454.08,136.02 455.17,135.76 456.25,135.50 457.33,135.24 458.41,134.98 459.50,134.73 460.58,134.47 461.66,134.21 462.75,133.95 463.83,133.69 464.91,133.44 465.99,133.18 467.08,132.92 468.16,132.66 469.24,132.40 470.33,132.15 471.41,131.89 472.49,131.63 473.57,131.37 474.66,131.12 475.74,130.86 476.82,130.60 477.91,130.35 478.99,130.09 480.07,129.83 481.15,129.58 482.24,129.32 483.32,129.06 484.40,128.81 485.49,128.55 486.57,128.30 487.65,128.04 488.73,127.79 489.82,127.53 490.90,127.28 491.98,127.02 493.07,126.77 494.15,126.51 495.23,126.26 496.31,126.00 497.40,125.75 498.48,125.49 499.56,125.24 500.65,124.98 501.73,124.73 502.81,124.47 503.89,124.21 504.98,123.96 506.06,123.70 507.14,123.45 508.23,123.19 509.31,122.94 510.39,122.68 511.47,122.43 512.56,122.17 513.64,121.92 514.72,121.66 515.81,121.41 516.89,121.15 517.97,120.90 519.05,120.64 520.14,120.39 521.22,120.13 522.30,119.88 523.39,119.62 524.47,119.37 525.55,119.11 526.63,118.86 527.72,118.60 528.80,118.35 529.88,118.09 530.97,117.84 532.05,117.58 533.13,117.33 534.21,117.07 535.30,116.82 536.38,116.56 537.46,116.31 538.55,116.05 539.63,115.80 540.71,115.54 541.79,115.29 542.88,115.03 543.96,114.78 545.04,114.52 546.13,114.27 547.21,114.01 548.29,113.76 549.37,113.50 550.46,113.25 551.54,112.99 552.62,112.74 553.71,112.48 554.79,112.23 555.87,111.97 556.95,111.72 558.04,111.46 559.12,111.21 560.20,110.95 561.29,110.70 562.37,110.44 563.45,110.19 564.53,109.93 565.62,109.68 566.70,109.42 567.78,109.17 568.87,108.91 569.95,108.66 571.03,108.40 572.11,108.15 573.20,107.89 574.28,107.64 575.36,107.38 576.45,107.13 577.53,106.87 578.61,106.62 579.69,106.36 580.78,106.11 581.86,105.85 582.94,105.60 584.03,105.34 585.11,105.08 586.19,104.83 587.27,104.57 588.36,104.32 589.44,104.06 590.52,103.81 591.61,103.55 592.69,103.30 593.77,103.05 594.85,102.79 595.94,102.54 597.02,102.28 598.10,102.03 599.19,101.77 600.27,101.52 601.35,101.27 602.43,101.02 603.52,100.76 604.60,100.51 605.68,100.26 606.77,100.01 607.85,99.75 608.93,99.50 610.01,99.25 611.10,99.00 612.18,98.75 613.26,98.50 614.35,98.25 615.43,97.99 616.51,97.74 617.59,97.49 618.68,97.24 619.76,96.99 620.84,96.74 621.93,96.49 623.01,96.23 624.09,95.98 625.17,95.73 626.26,95.48 627.34,95.23 628.42,94.98 629.51,94.72 630.59,94.47 631.67,94.22 632.75,93.97 633.84,93.72 634.92,93.47 636.00,93.22 637.09,92.96 638.17,92.71 639.25,92.46 640.33,92.21 641.42,91.96 642.50,91.71 643.58,91.45 644.67,91.20 645.75,90.95 646.83,90.70 647.91,90.45 649.00,90.20 650.08,89.95 651.16,89.69 652.25,89.44 653.33,89.19 654.41,88.94 655.49,88.69 656.58,88.44 657.66,88.18 658.74,87.93 659.83,87.68 660.91,87.43 661.99,87.18 663.07,86.93 664.16,86.67 665.24,86.42 666.32,86.17 667.41,85.92 668.49,85.67 669.57,85.42 670.65,85.17 671.74,84.91 672.82,84.66 673.90,84.41 674.99,84.16 676.07,83.91 677.15,83.66 678.23,83.41 679.32,83.16 680.40,82.91 681.48,82.66 682.57,82.41 683.65,82.16 684.73,81.91 685.81,81.66 686.90,81.41 687.98,81.15 689.06,80.90 690.15,80.65 691.23,80.40 692.31,80.15 693.39,79.90 694.48,79.65 695.56,79.40 696.64,79.15 697.73,78.90 698.81,78.65 699.89,78.40 700.97,78.15 702.06,77.90 703.14,77.65 704.22,77.40 705.31,77.15 706.39,76.90 707.47,76.65 708.55,76.39 709.64,76.14 710.72,75.89 711.80,75.64 712.89,75.39 713.97,75.14 715.05,74.89 716.13,74.64 717.22,74.39 718.30,74.14 719.38,73.89 720.47,73.64 721.55,73.39 722.63,73.14 723.71,72.89 724.80,72.64 725.88,72.39 726.96,72.14 728.05,71.89 729.13,71.63 730.21,71.38 731.29,71.13 732.38,70.88 733.46,70.63 734.54,70.38 735.63,70.13 736.71,69.88 737.79,69.63 738.87,69.38 739.96,69.13 741.04,68.88 742.12,68.63 743.21,68.38 744.29,68.13 745.37,67.88 746.45,67.63 747.54,67.38 748.62,67.12 749.70,66.87 750.79,66.62 751.87,66.37 752.95,66.12 754.03,65.87 755.12,65.62 756.20,65.37 757.28,65.12 758.37,64.87 759.45,64.62 760.53,64.37 761.61,64.13 762.70,63.88 763.78,63.63 764.86,63.38 765.95,63.13 767.03,62.88 768.11,62.64 769.19,62.39 770.28,62.14 771.36,61.89 772.44,61.64 773.53,61.40 774.61,61.15 775.69,60.90 776.77,60.65 777.86,60.40 778.94,60.16 780.02,59.91 781.11,59.66 782.19,59.41 783.27,59.16 784.35,58.91 785.44,58.67 786.52,58.42 787.60,58.17 788.69,57.92 789.77,57.67 790.85,57.43 791.93,57.18 793.02,56.93 794.10,56.68 795.18,56.43 796.27,56.19 797.35,55.94 798.43,55.69 799.51,55.44 800.60,55.19 801.68,54.95 802.76,54.70 803.85,54.45 804.93,54.20 806.01,53.95 807.09,53.71 808.18,53.46 809.26,53.21 810.34,52.96 811.43,52.71 812.51,52.47 813.59,52.22 814.67,51.97 815.76,51.72 816.84,51.47 817.92,51.22 819.01,50.98 820.09,50.73 821.17,50.48 822.25,50.23 823.34,49.98 824.42,49.74 825.50,49.49 826.59,49.24 827.67,48.99 828.75,48.74 829.83,48.50 830.92,48.25 832.00,48.00"/>
  <text x="826.00" y="217.19" text-anchor="end" font-size="14" font-weight="700" fill="#7c3aed">PVK n</text><text x="826.00" y="278.00" text-anchor="end" font-size="14" font-weight="700" fill="#d97706">PVK k</text><text x="826.00" y="2.00" text-anchor="end" font-size="14" font-weight="700" fill="#ef4444">Ag k</text>
  <line x1="290.56" y1="48" x2="290.56" y2="306" stroke="#344054" stroke-dasharray="8 6" stroke-width="2.5"/><text x="298.56" y="64.00" font-size="14" font-weight="700" fill="#344054">λ = 599.987 nm</text>
  <text x="74" y="348" font-size="14" fill="#475467">同一波长虚线同时穿过 n,k 数据表对应位置，说明数值代入来自当前 Phase 08 材料表。</text>
</svg>
