<svg xmlns="http://www.w3.org/2000/svg" width="860" height="360" viewBox="0 0 860 360">
  <rect width="860" height="360" fill="#ffffff"/>
  <text x="74" y="28" font-size="24" font-weight="700" fill="#101828">Reflectance source window</text>
  <line x1="74" y1="306.00" x2="832" y2="306.00" stroke="#e4e7ec" stroke-width="1"/><text x="62" y="311.00" text-anchor="end" font-size="13" fill="#475467">0.000</text><line x1="74" y1="241.50" x2="832" y2="241.50" stroke="#e4e7ec" stroke-width="1"/><text x="62" y="246.50" text-anchor="end" font-size="13" fill="#475467">0.125</text><line x1="74" y1="177.00" x2="832" y2="177.00" stroke="#e4e7ec" stroke-width="1"/><text x="62" y="182.00" text-anchor="end" font-size="13" fill="#475467">0.250</text><line x1="74" y1="112.50" x2="832" y2="112.50" stroke="#e4e7ec" stroke-width="1"/><text x="62" y="117.50" text-anchor="end" font-size="13" fill="#475467">0.375</text><line x1="74" y1="48.00" x2="832" y2="48.00" stroke="#e4e7ec" stroke-width="1"/><text x="62" y="53.00" text-anchor="end" font-size="13" fill="#475467">0.500</text>
  <line x1="74" y1="306" x2="832" y2="306" stroke="#98a2b3" stroke-width="1.5"/>
  <line x1="74" y1="48" x2="74" y2="306" stroke="#98a2b3" stroke-width="1.5"/>
  <line x1="216.38" y1="306" x2="216.38" y2="312" stroke="#98a2b3" stroke-width="1"/><text x="216.38" y="330" text-anchor="middle" font-size="13" fill="#475467">500</text><line x1="359.07" y1="306" x2="359.07" y2="312" stroke="#98a2b3" stroke-width="1"/><text x="359.07" y="330" text-anchor="middle" font-size="13" fill="#475467">600</text><line x1="501.76" y1="306" x2="501.76" y2="312" stroke="#98a2b3" stroke-width="1"/><text x="501.76" y="330" text-anchor="middle" font-size="13" fill="#475467">700</text><line x1="644.45" y1="306" x2="644.45" y2="312" stroke="#98a2b3" stroke-width="1"/><text x="644.45" y="330" text-anchor="middle" font-size="13" fill="#475467">800</text><line x1="787.13" y1="306" x2="787.13" y2="312" stroke="#98a2b3" stroke-width="1"/><text x="787.13" y="330" text-anchor="middle" font-size="13" fill="#475467">900</text>
  <polyline fill="none" stroke="#2f6fed" stroke-width="3" points="74.00,-3591.56"/><polyline fill="none" stroke="#2f6fed" stroke-width="3" points="75.22,-274.77 75.83,-526.90"/><polyline fill="none" stroke="#2f6fed" stroke-width="3" points="77.05,-203.79 77.66,-525.75 78.27,-285.15 78.88,-196.11 79.49,-496.70 80.10,-405.97 80.71,-226.60 81.32,-308.96 81.93,-483.12 82.54,-58.44 83.15,-310.54 83.76,-191.41 84.37,-110.41 84.98,-481.51 85.59,-37.24 86.20,-396.12 86.80,-433.44 87.41,-193.44 88.02,-257.45 88.63,-219.41 89.24,469.09 89.85,-191.84 90.46,-583.68 91.07,-322.15 91.68,-172.14 92.29,-235.66 92.90,-352.25 93.51,-379.83 94.12,-216.52 94.73,5.43 95.34,-185.46 95.95,-285.24 96.56,-30753.93 97.17,-491.18 97.78,-216.32 98.39,-366.00 99.00,-184.30 99.61,-329.10 100.22,-325.12 100.83,-112.56 101.43,-137.45 102.04,-416.73 102.65,306.00 103.26,-240.53 103.87,-202.62 104.48,-235.10 105.09,-125.03 105.70,11851.55 106.31,-196.91 106.92,-220.18 107.53,-134.00"/><polyline fill="none" stroke="#2f6fed" stroke-width="3" points="108.75,-198.14 109.36,-392.12 109.97,-168.62 110.58,-87.81 111.19,-183.95"/><polyline fill="none" stroke="#2f6fed" stroke-width="3" points="112.40,-98.12 113.01,-122.85 113.62,3124.11 114.23,-86.23 114.84,-189.88 115.45,-241.89 116.06,-91.06 116.67,-64.62 117.28,-151.80 117.89,-80.08 118.50,-88.19 119.11,-141.45 119.72,-66.06 120.33,-173.88 120.93,114.13 121.54,-186.00 122.15,-103.65 122.76,-156.80 123.37,-173.84 123.98,-370.69"/><polyline fill="none" stroke="#2f6fed" stroke-width="3" points="125.20,-176.93 125.81,56.60 126.42,-142.47 127.03,-158.25 127.64,-157.76 128.24,-172.20 128.85,-101.14 129.46,-166.73 130.07,39.71 130.68,-57.44 131.29,-134.66 131.90,-184.33 132.51,-125.14 133.12,-139.82 133.73,-10.09 134.34,-53.72 134.94,-101.78 135.55,-116.11 136.16,-82.27 136.77,-110.90 137.38,-104.22 137.99,-46.89 138.60,42.62 139.21,-157.62 139.82,-31.77 140.43,37.88 141.04,-58.02 141.64,-111.90 142.25,-145.80 142.86,-112.10 143.47,-23.79 144.08,-64.39 144.69,-57.22 145.30,-7.42 145.91,-80.14 146.52,83.36 147.12,-20.39 147.73,-11.54 148.34,-65.75 148.95,-53.91 149.56,11.98 150.17,-82.54 150.78,29.07 151.39,23.72 152.00,-27.41 152.60,123.40 153.21,-18.73 153.82,-33.54 154.43,31.87 155.04,-10.52 155.65,65.81 156.26,27.21 156.87,57.37 157.47,38.68 158.08,23.21 158.69,84.45 159.30,41.26 159.91,73.87 160.52,48.93 161.13,-25.75 161.73,72.38 162.34,78.87 162.95,25.35 163.56,125.65 164.17,68.01 164.78,-10.98 165.39,37.22 166.00,66.28 166.60,59.55 167.21,21.70 167.82,137.84 168.43,83.01 169.04,39.66 169.65,35.17 170.26,50.82 170.86,51.29 171.47,151.00 172.08,61.13 172.69,82.04 173.30,72.30 173.91,44.61 174.52,74.43 175.12,111.74 175.73,114.69 176.34,114.87 176.95,92.90 177.56,101.80 178.17,91.30 178.77,132.38 179.38,126.36 179.99,135.87 180.60,129.71 181.21,92.43 181.82,72.41 182.42,102.34 183.03,93.38 183.64,110.82 184.25,126.14 184.86,99.49 185.47,105.12 186.08,125.91 186.68,145.51 187.29,112.82 187.90,119.48 188.51,150.00 189.12,129.16 189.72,117.23 190.33,126.83 190.94,121.10 191.55,112.90 192.16,116.74 192.77,131.84 193.37,109.70 193.98,153.69 194.59,135.50 195.20,135.54 195.81,149.63 196.42,145.31 197.02,130.73 197.63,111.86 198.24,127.62 198.85,127.98 199.46,136.63 200.06,125.30 200.67,135.48 201.28,143.10 201.89,127.34 202.50,132.04 203.10,136.89 203.71,125.98 204.32,146.77 204.93,141.52 205.54,135.17 206.14,134.44 206.75,161.06 207.36,133.56 207.97,138.70 208.58,161.73 209.18,152.61 209.79,143.85 210.40,151.96 211.01,149.88 211.62,147.00 212.22,148.80 212.83,147.32 213.44,143.71 214.05,159.41 214.66,148.86 215.26,146.05 215.87,150.10 216.48,155.21 217.09,151.84 217.70,161.39 218.30,156.03 218.91,157.85 219.52,156.13 220.13,157.43 220.73,160.82 221.34,156.21 221.95,153.04 222.56,154.23 223.17,157.95 223.77,159.68 224.38,153.65 224.99,157.39 225.60,155.51 226.20,156.14 226.81,158.65 227.42,158.03 228.03,157.86 228.64,159.37 229.24,163.72 229.85,157.32 230.46,159.22 231.07,165.15 231.67,163.95 232.28,161.32 232.89,166.77 233.50,161.61 234.10,158.88 234.71,166.43 235.32,165.06 235.93,162.79 236.53,167.83 237.14,167.33 237.75,165.25 238.36,168.02 238.96,166.43 239.57,164.77 240.18,166.38 240.79,164.45 241.39,165.73 242.00,167.66 242.61,168.67 243.22,167.32 243.82,170.02 244.43,167.94 245.04,168.36 245.65,168.82 246.25,169.93 246.86,168.46 247.47,171.25 248.08,172.60 248.68,170.42 249.29,171.29 249.90,168.53 250.51,169.77 251.11,171.02 251.72,171.47 252.33,169.82 252.93,170.90 253.54,170.34 254.15,170.39 254.76,169.55 255.36,171.48 255.97,171.42 256.58,170.66 257.19,173.08 257.79,172.32 258.40,169.50 259.01,173.14 259.61,171.35 260.22,168.42 260.83,172.27 261.44,172.00 262.04,170.36 262.65,171.89 263.26,172.01 263.86,172.34 264.47,173.41 265.08,172.30 265.69,172.86 266.29,172.64 266.90,173.85 267.51,172.49 268.11,173.41 268.72,171.99 269.33,173.10 269.94,171.75 270.54,172.76 271.15,172.12 271.76,173.10 272.36,172.92 272.97,172.71 273.58,173.24 274.18,174.15 274.79,173.50 275.40,172.46 276.00,173.27 276.61,172.38 277.22,173.83 277.83,172.54 278.43,172.26 279.04,173.64 279.65,172.16 280.25,172.48 280.86,172.41 281.47,173.62 282.07,172.50 282.68,172.71 283.29,172.45 283.89,172.93 284.50,172.68 285.11,173.31 285.71,172.33 286.32,172.92 286.93,173.69 287.53,173.24 288.14,171.81 288.75,172.97 289.35,171.45 289.96,172.29 290.57,172.14 291.17,171.88 291.78,172.20 292.39,172.59 292.99,172.15 293.60,171.23 294.21,171.55 294.81,171.91 295.42,170.97 296.03,172.12 296.63,171.26 297.24,171.80 297.85,172.13 298.45,170.80 299.06,171.08 299.67,171.47 300.27,170.82 300.88,171.20 301.49,170.58 302.09,170.86 302.70,170.40 303.31,170.40 303.91,171.02 304.52,169.56 305.12,170.53 305.73,170.71 306.34,169.77 306.94,170.88 307.55,170.34 308.16,169.45 308.76,170.06 309.37,169.41 309.98,168.74 310.58,169.47 311.19,169.61 311.79,168.53 312.40,168.89 313.01,168.18 313.61,168.84 314.22,168.80 314.83,168.33 315.43,168.12 316.04,168.25 316.64,168.35 317.25,167.65 317.86,167.41 318.46,167.72 319.07,167.61 319.68,167.36 320.28,167.37 320.89,166.92 321.49,166.39 322.10,166.55 322.71,166.04 323.31,166.31 323.92,167.01 324.52,165.87 325.13,166.11 325.74,166.19 326.34,165.60 326.95,165.61 327.55,165.52 328.16,165.43 328.77,164.87 329.37,164.75 329.98,164.52 330.58,165.07 331.19,164.20 331.80,163.93 332.40,164.12 333.01,163.92 333.61,163.75 334.22,163.82 334.83,163.49 335.43,162.90 336.04,162.87 336.64,163.59 337.25,162.45 337.86,162.13 338.46,162.73 339.07,162.61 339.67,161.72 340.28,161.76 340.88,161.23 341.49,161.35 342.10,161.17 342.70,160.86 343.31,160.18 343.91,160.74 344.52,160.74 345.12,160.30 345.73,160.21 346.34,160.04 346.94,159.54 347.55,159.75 348.15,159.32 348.76,158.96 349.36,158.86 349.97,158.75 350.58,158.64 351.18,158.49 351.79,158.22 352.39,158.09 353.00,157.98 353.60,157.25 354.21,157.32 354.81,156.75 355.42,157.14 356.03,156.64 356.63,157.07 357.24,156.44 357.84,155.99 358.45,156.30 359.05,155.87 359.66,155.54 360.26,155.85 360.87,154.70 361.47,155.03 362.08,154.30 362.69,154.39 363.29,154.12 363.90,154.01 364.50,153.81 365.11,153.68 365.71,153.29 366.32,153.25 366.92,153.47 367.53,153.07 368.13,153.13 368.74,152.24 369.34,152.45 369.95,152.16 370.55,152.40 371.16,152.03 371.76,152.01 372.37,151.54 372.98,151.29 373.58,151.21 374.19,150.91 374.79,150.77 375.40,150.99 376.00,150.60 376.61,149.75 377.21,149.66 377.82,150.17 378.42,149.39 379.03,149.70 379.63,149.21 380.24,149.20 380.84,148.93 381.45,148.74 382.05,148.26 382.66,148.15 383.26,148.14 383.87,147.73 384.47,147.23 385.08,147.64 385.68,147.37 386.29,147.15 386.89,147.19 387.50,146.48 388.10,146.34 388.71,146.40 389.31,146.30 389.92,145.99 390.52,145.71 391.13,145.87 391.73,145.56 392.34,145.26 392.94,145.05 393.54,144.91 394.15,144.77 394.75,144.74 395.36,144.40 395.96,144.28 396.57,143.88 397.17,143.74 397.78,143.51 398.38,143.53 398.99,143.36 399.59,142.66 400.20,142.66 400.80,142.51 401.41,142.64 402.01,142.31 402.62,142.32 403.22,141.77 403.82,141.15 404.43,141.67 405.03,140.84 405.64,141.41 406.24,140.99 406.85,140.79 407.45,140.55 408.06,140.44 408.66,139.90 409.27,139.94 409.87,140.04 410.47,139.65 411.08,139.64 411.68,139.37 412.29,139.16 412.89,139.03 413.50,138.82 414.10,138.50 414.71,138.51 415.31,138.00 415.91,137.93 416.52,138.00 417.12,137.70 417.73,137.47 418.33,137.48 418.94,137.11 419.54,136.95 420.14,136.49 420.75,136.91 421.35,136.30 421.96,136.38 422.56,135.82 423.17,135.82 423.77,136.02 424.37,135.45 424.98,135.28 425.58,134.90 426.19,134.95 426.79,134.37 427.39,134.71 428.00,134.44 428.60,134.52 429.21,134.14 429.81,133.81 430.41,133.71 431.02,133.56 431.62,133.40 432.23,133.04 432.83,133.14 433.44,132.93 434.04,132.71 434.64,132.54 435.25,132.46 435.85,132.48 436.45,131.91 437.06,132.03 437.66,131.75 438.27,131.33 438.87,131.07 439.47,130.94 440.08,130.70 440.68,130.95 441.29,130.65 441.89,130.51 442.49,130.21 443.10,130.01 443.70,129.79 444.31,129.43 444.91,129.22 445.51,129.34 446.12,128.67 446.72,128.95 447.32,128.63 447.93,128.11 448.53,128.10 449.13,127.76 449.74,127.60 450.34,127.62 450.95,127.19 451.55,127.68 452.15,127.12 452.76,126.50 453.36,126.58 453.96,126.38 454.57,125.94 455.17,125.87 455.77,125.56 456.38,125.32 456.98,124.78 457.59,124.88 458.19,124.51 458.79,124.42 459.40,124.04 460.00,123.47 460.60,123.52 461.21,123.18 461.81,122.74 462.41,122.26 463.02,122.05 463.62,121.95 464.22,122.09 464.83,121.51 465.43,121.52 466.03,120.72 466.64,120.70 467.24,120.37 467.84,119.82 468.45,119.71 469.05,119.41 469.65,118.97 470.26,118.89 470.86,118.22 471.46,118.47 472.07,118.10 472.67,117.62 473.27,117.54 473.88,117.10 474.48,116.64 475.08,116.53 475.68,116.42 476.29,116.14 476.89,115.44 477.49,115.23 478.10,114.84 478.70,114.44 479.30,114.85 479.91,113.94 480.51,113.61 481.11,113.24 481.72,113.27 482.32,112.94 482.92,112.54 483.52,111.92 484.13,111.66 484.73,111.38 485.33,111.33 485.94,110.92 486.54,110.23 487.14,110.44 487.74,110.27 488.35,109.89 488.95,109.68 489.55,108.61 490.16,109.02 490.76,109.03 491.36,107.86 491.96,108.52 492.57,107.96 493.17,107.25 493.77,107.83 494.38,107.03 494.98,107.09 495.58,106.88 496.18,106.36 496.79,106.75 497.39,106.41 497.99,106.34 498.59,106.02 499.20,105.84 499.80,105.79 500.40,105.47 501.00,105.23 501.61,105.64 502.21,104.80 502.81,105.60 503.41,104.67 504.02,104.82 504.62,104.22 505.22,104.62 505.82,103.84 506.43,104.04 507.03,103.71 507.63,104.59 508.23,103.56 508.84,103.82 509.44,103.34 510.04,103.31 510.64,103.67 511.25,104.47 511.85,103.60 512.45,102.84 513.05,103.56 513.66,103.81 514.26,103.78 514.86,102.84 515.46,103.04 516.06,103.51 516.67,104.24 517.27,103.03 517.87,104.17 518.47,102.94 519.08,102.85 519.68,104.11 520.28,103.35 520.88,103.13 521.48,103.45 522.09,105.06 522.69,102.62 523.29,104.41 523.89,102.85 524.49,103.46 525.10,104.19 525.70,104.57 526.30,102.53 526.90,103.69 527.50,102.86 528.11,104.43 528.71,103.78 529.31,103.38 529.91,103.43 530.51,102.79 531.12,105.01 531.72,103.28 532.32,103.44 532.92,104.30 533.52,103.44 534.13,103.61 534.73,103.80 535.33,104.07 535.93,104.30 536.53,105.14 537.13,104.62 537.74,104.89 538.34,105.33 538.94,106.08 539.54,104.12 540.14,104.89 540.75,103.83 541.35,105.47 541.95,105.65 542.55,102.56 543.15,104.63 543.75,106.25 544.36,106.45 544.96,105.63 545.56,105.07 546.16,106.20 546.76,104.08 547.36,104.25 547.96,104.49 548.57,105.39 549.17,102.55 549.77,104.41 550.37,104.75 550.97,105.40 551.57,104.90 552.18,105.78 552.78,107.98 553.38,107.48 553.98,107.30 554.58,106.82 555.18,109.87 555.78,105.89 556.38,104.75 556.99,105.83 557.59,105.28 558.19,107.15 558.79,108.82 559.39,107.45 559.99,105.27 560.59,108.51 561.19,104.66 561.80,107.63 562.40,106.98 563.00,106.41 563.60,110.68 564.20,107.90 564.80,107.52 565.40,106.20 566.00,106.21 566.61,110.24 567.21,110.23 567.81,105.17 568.41,106.45 569.01,109.24 569.61,107.12 570.21,107.80 570.81,105.42 571.41,113.34 572.01,106.96 572.62,104.88 573.22,106.37 573.82,105.37 574.42,108.95 575.02,110.99 575.62,112.42 576.22,104.55 576.82,108.23 577.42,112.49 578.02,108.90 578.62,106.97 579.23,110.01 579.83,107.07 580.43,111.15 581.03,111.24 581.63,108.91 582.23,106.53 582.83,109.31 583.43,104.10 584.03,109.09 584.63,110.66 585.23,109.68 585.83,111.64 586.43,108.51 587.03,108.16 587.64,107.56 588.24,104.52 588.84,109.17 589.44,108.56 590.04,114.03 590.64,113.40 591.24,109.32 591.84,106.28 592.44,113.91 593.04,111.22 593.64,111.54 594.24,108.78 594.84,104.86 595.44,108.61 596.04,106.28 596.64,110.46 597.24,113.49 597.84,104.74 598.44,108.34 599.04,113.65 599.64,109.92 600.24,103.51 600.85,108.82 601.45,113.17 602.05,108.50 602.65,107.64 603.25,111.25 603.85,101.90 604.45,109.97 605.05,117.37 605.65,108.24 606.25,114.99 606.85,117.99 607.45,104.81 608.05,105.47 608.65,105.09 609.25,109.44 609.85,104.96 610.45,120.04 611.05,107.93 611.65,109.16 612.25,100.97 612.85,110.85 613.45,109.72 614.05,100.30 614.65,106.64 615.25,112.24 615.85,109.84 616.45,107.78 617.05,108.44 617.65,101.66 618.25,107.26 618.85,106.66 619.45,95.21 620.05,98.01 620.65,107.88 621.25,115.61 621.85,112.07 622.45,108.90 623.05,115.27 623.65,109.64 624.25,114.04 624.84,108.04 625.44,100.75 626.04,115.97 626.64,107.90 627.24,121.15 627.84,105.30 628.44,127.69 629.04,112.80 629.64,109.00 630.24,115.72 630.84,119.66 631.44,111.82 632.04,113.51 632.64,110.48 633.24,101.74 633.84,114.61 634.44,114.87 635.04,102.52 635.64,102.50 636.24,111.46 636.84,112.29 637.44,107.44 638.03,119.41 638.63,110.71 639.23,101.49 639.83,101.69 640.43,98.51 641.03,115.12 641.63,107.75 642.23,117.03 642.83,125.27 643.43,94.22 644.03,97.50 644.63,105.84 645.23,108.35 645.83,103.23 646.42,124.73 647.02,98.89 647.62,121.24 648.22,115.46 648.82,124.34 649.42,101.81 650.02,131.29 650.62,109.70 651.22,108.40 651.82,93.81 652.42,128.09 653.01,110.36 653.61,123.70 654.21,121.22 654.81,119.87 655.41,100.07 656.01,119.87 656.61,105.87 657.21,99.22 657.81,112.99 658.41,131.46 659.00,108.79 659.60,103.36 660.20,127.11 660.80,120.40 661.40,96.60 662.00,103.68 662.60,102.03 663.20,116.03 663.79,106.15 664.39,104.37 664.99,118.91 665.59,106.84 666.19,113.23 666.79,107.04 667.39,106.36 667.98,83.89 668.58,116.10 669.18,105.63 669.78,107.68 670.38,110.83 670.98,108.34 671.58,90.53 672.17,102.27 672.77,96.56 673.37,91.56 673.97,103.32 674.57,116.41 675.17,117.31 675.77,87.45 676.36,108.53 676.96,108.50 677.56,93.42 678.16,84.57 678.76,96.03 679.36,66.22 679.95,94.99 680.55,113.74 681.15,86.46 681.75,92.36 682.35,99.74 682.95,85.42 683.54,86.88 684.14,96.14 684.74,81.47 685.34,90.29 685.94,101.78 686.53,68.93 687.13,73.50 687.73,90.68 688.33,84.88 688.93,75.24 689.53,85.59 690.12,85.53 690.72,64.39 691.32,94.55 691.92,55.83 692.52,87.24 693.11,102.10 693.71,74.44 694.31,61.76 694.91,94.21 695.51,92.22 696.10,110.80 696.70,80.97 697.30,95.80 697.90,80.09 698.49,96.00 699.09,89.79 699.69,83.39 700.29,58.12 700.89,50.56 701.48,94.42 702.08,74.36 702.68,75.26 703.28,46.61 703.87,100.32 704.47,56.95 705.07,62.74 705.67,79.96 706.27,73.37 706.86,70.76 707.46,74.77 708.06,67.65 708.66,68.59 709.25,88.24 709.85,44.77 710.45,81.65 711.05,54.25 711.64,102.62 712.24,63.26 712.84,75.31 713.44,48.15 714.03,73.16 714.63,67.58 715.23,50.24 715.82,64.50 716.42,39.62 717.02,52.28 717.62,79.91 718.21,62.73 718.81,83.56 719.41,42.33 720.01,41.67 720.60,60.86 721.20,52.61 721.80,59.43 722.40,51.63 722.99,66.26 723.59,75.10 724.19,45.08 724.78,47.58 725.38,70.22 725.98,83.05 726.58,47.39 727.17,67.79 727.77,78.20 728.37,48.08 728.96,60.24 729.56,82.07 730.16,50.69 730.75,67.62 731.35,58.82 731.95,60.01 732.55,66.82 733.14,42.72 733.74,66.86 734.34,84.51 734.93,49.59 735.53,68.05 736.13,64.05 736.72,78.46 737.32,70.99 737.92,67.22 738.51,51.61 739.11,76.19 739.71,32.68 740.30,95.03 740.90,63.74 741.50,55.70 742.09,62.91 742.69,52.69 743.29,66.16 743.88,71.22 744.48,74.06 745.08,63.79 745.67,64.60 746.27,63.05 746.87,96.50 747.46,49.29 748.06,61.05 748.66,42.86 749.25,75.48 749.85,97.63 750.45,63.82 751.04,40.33 751.64,89.28 752.23,58.84 752.83,100.98 753.43,73.94 754.02,71.51 754.62,44.03 755.22,74.91 755.81,38.99 756.41,71.84 757.01,104.37 757.60,33.26 758.20,74.56 758.79,57.08 759.39,46.34 759.99,80.73 760.58,89.63 761.18,70.85 761.77,80.03 762.37,92.16 762.97,101.14 763.56,67.98 764.16,93.96 764.76,106.97 765.35,85.94 765.95,75.02 766.54,84.41 767.14,83.34 767.74,71.07 768.33,72.32 768.93,68.22 769.52,118.24 770.12,66.43 770.71,92.20 771.31,59.66 771.91,73.97 772.50,98.76 773.10,61.12 773.69,89.68 774.29,70.76 774.89,109.36 775.48,92.37 776.08,88.04 776.67,114.53 777.27,123.01 777.86,87.44 778.46,63.40 779.06,66.56 779.65,69.00 780.25,93.03 780.84,90.26 781.44,61.43 782.03,110.82 782.63,93.76 783.22,121.88 783.82,76.25 784.42,63.30 785.01,80.31 785.61,75.18 786.20,85.08 786.80,74.38 787.39,123.84 787.99,114.31 788.58,73.58 789.18,130.04 789.77,127.35 790.37,112.90 790.96,77.39 791.56,63.56 792.16,71.22 792.75,131.52 793.35,71.62 793.94,81.04 794.54,82.70 795.13,106.23 795.73,82.39 796.32,96.66 796.92,81.43 797.51,151.56 798.11,104.99 798.70,118.43 799.30,180.45 799.89,100.07 800.49,101.20 801.08,115.92 801.68,85.48 802.27,91.82 802.87,130.58 803.46,73.45 804.06,97.20 804.65,110.28 805.25,97.89 805.84,94.63 806.44,112.25 807.03,138.62 807.63,58.44 808.22,101.95 808.82,93.94 809.41,115.67 810.01,112.67 810.60,128.16 811.20,133.68 811.79,158.37 812.38,104.51 812.98,142.91 813.57,167.08 814.17,90.18 814.76,157.68 815.36,153.29 815.95,109.54 816.55,34.13 817.14,103.44 817.74,72.49 818.33,121.95 818.93,95.16 819.52,159.30 820.11,118.94 820.71,137.18 821.30,104.62 821.90,161.12 822.49,113.47 823.09,93.82 823.68,104.54 824.27,238.14 824.87,128.97 825.46,117.64 826.06,118.61 826.65,91.62 827.25,101.75 827.84,37.10 828.43,205.53 829.03,138.93 829.62,98.37 830.22,111.26 830.81,141.36 831.41,78.07 832.00,83.87"/><polyline fill="none" stroke="#047857" stroke-width="3" points="74.00,220.57 74.61,220.73 75.22,220.88 75.83,220.96 76.44,221.03 77.05,221.19 77.66,221.37 78.27,221.56 78.88,221.74 79.49,221.93 80.10,222.10 80.71,222.27 81.32,222.46 81.93,222.65 82.54,222.84 83.15,223.03 83.76,223.22 84.37,223.42 84.98,223.62 85.59,223.82 86.20,224.04 86.80,224.26 87.41,224.49 88.02,224.71 88.63,224.91 89.24,225.10 89.85,225.29 90.46,225.49 91.07,225.68 91.68,225.89 92.29,226.09 92.90,226.28 93.51,226.47 94.12,226.65 94.73,226.83 95.34,227.00 95.95,227.15 96.56,227.30 97.17,227.52 97.78,227.74 98.39,228.01 99.00,228.30 99.61,228.53 100.22,228.67 100.83,228.82 101.43,228.98 102.04,229.14 102.65,229.34 103.26,229.56 103.87,229.77 104.48,229.97 105.09,230.16 105.70,230.35 106.31,230.53 106.92,230.67 107.53,230.79 108.14,230.93 108.75,231.07 109.36,231.22 109.97,231.39 110.58,231.56 111.19,231.72 111.80,231.86 112.40,232.00 113.01,232.14 113.62,232.29 114.23,232.43 114.84,232.57 115.45,232.73 116.06,232.90 116.67,233.07 117.28,233.22 117.89,233.38 118.50,233.42 119.11,233.45 119.72,233.52 120.33,233.60 120.93,233.70 121.54,233.83 122.15,233.96 122.76,234.07 123.37,234.18 123.98,234.28 124.59,234.36 125.20,234.43 125.81,234.46 126.42,234.49 127.03,234.58 127.64,234.68 128.24,234.79 128.85,234.90 129.46,235.00 130.07,235.07 130.68,235.14 131.29,235.20 131.90,235.25 132.51,235.30 133.12,235.34 133.73,235.38 134.34,235.45 134.94,235.51 135.55,235.57 136.16,235.63 136.77,235.68 137.38,235.72 137.99,235.76 138.60,235.81 139.21,235.86 139.82,235.91 140.43,235.96 141.04,235.99 141.64,236.01 142.25,236.03 142.86,236.02 143.47,236.01 144.08,235.98 144.69,235.95 145.30,235.95 145.91,235.98 146.52,236.02 147.12,236.04 147.73,236.06 148.34,236.06 148.95,236.06 149.56,236.05 150.17,236.04 150.78,236.03 151.39,236.02 152.00,236.00 152.60,235.98 153.21,235.95 153.82,235.93 154.43,235.92 155.04,235.91 155.65,235.90 156.26,235.89 156.87,235.84 157.47,235.76 158.08,235.69 158.69,235.64 159.30,235.59 159.91,235.59 160.52,235.58 161.13,235.54 161.73,235.49 162.34,235.44 162.95,235.38 163.56,235.32 164.17,235.27 164.78,235.21 165.39,235.15 166.00,235.09 166.60,235.02 167.21,234.95 167.82,234.88 168.43,234.81 169.04,234.73 169.65,234.66 170.26,234.60 170.86,234.54 171.47,234.49 172.08,234.45 172.69,234.37 173.30,234.30 173.91,234.21 174.52,234.13 175.12,234.04 175.73,233.94 176.34,233.84 176.95,233.76 177.56,233.68 178.17,233.60 178.77,233.53 179.38,233.46 179.99,233.40 180.60,233.35 181.21,233.29 181.82,233.22 182.42,233.14 183.03,233.05 183.64,232.96 184.25,232.85 184.86,232.74 185.47,232.64 186.08,232.54 186.68,232.46 187.29,232.39 187.90,232.33 188.51,232.22 189.12,232.12 189.72,232.00 190.33,231.89 190.94,231.82 191.55,231.80 192.16,231.79 192.77,231.73 193.37,231.68 193.98,231.60 194.59,231.50 195.20,231.43 195.81,231.38 196.42,231.34 197.02,231.27 197.63,231.21 198.24,231.11 198.85,231.00 199.46,230.90 200.06,230.81 200.67,230.72 201.28,230.65 201.89,230.58 202.50,230.57 203.10,230.59 203.71,230.60 204.32,230.56 204.93,230.52 205.54,230.43 206.14,230.34 206.75,230.29 207.36,230.29 207.97,230.28 208.58,230.27 209.18,230.26 209.79,230.22 210.40,230.18 211.01,230.14 211.62,230.10 212.22,230.07 212.83,230.03 213.44,230.00 214.05,229.99 214.66,229.99 215.26,229.99 215.87,229.99 216.48,229.99 217.09,230.00 217.70,230.01 218.30,230.00 218.91,229.99 219.52,229.98 220.13,229.95 220.73,229.92 221.34,229.88 221.95,229.83 222.56,229.82 223.17,229.83 223.77,229.84 224.38,229.86 224.99,229.89 225.60,229.92 226.20,229.95 226.81,229.96 227.42,229.97 228.03,229.96 228.64,229.95 229.24,229.93 229.85,229.97 230.46,230.01 231.07,230.05 231.67,230.10 232.28,230.15 232.89,230.20 233.50,230.25 234.10,230.25 234.71,230.24 235.32,230.24 235.93,230.24 236.53,230.26 237.14,230.34 237.75,230.42 238.36,230.44 238.96,230.46 239.57,230.46 240.18,230.44 240.79,230.45 241.39,230.50 242.00,230.56 242.61,230.61 243.22,230.66 243.82,230.71 244.43,230.76 245.04,230.81 245.65,230.85 246.25,230.90 246.86,230.94 247.47,230.98 248.08,231.02 248.68,231.06 249.29,231.09 249.90,231.14 250.51,231.19 251.11,231.24 251.72,231.29 252.33,231.34 252.93,231.37 253.54,231.40 254.15,231.43 254.76,231.47 255.36,231.51 255.97,231.55 256.58,231.59 257.19,231.62 257.79,231.65 258.40,231.69 259.01,231.73 259.61,231.78 260.22,231.83 260.83,231.89 261.44,231.96 262.04,232.04 262.65,232.12 263.26,232.21 263.86,232.28 264.47,232.33 265.08,232.38 265.69,232.41 266.29,232.44 266.90,232.43 267.51,232.43 268.11,232.47 268.72,232.54 269.33,232.61 269.94,232.68 270.54,232.75 271.15,232.80 271.76,232.85 272.36,232.90 272.97,232.96 273.58,233.02 274.18,233.08 274.79,233.14 275.40,233.17 276.00,233.21 276.61,233.25 277.22,233.31 277.83,233.36 278.43,233.44 279.04,233.52 279.65,233.58 280.25,233.64 280.86,233.69 281.47,233.73 282.07,233.76 282.68,233.78 283.29,233.79 283.89,233.81 284.50,233.84 285.11,233.87 285.71,233.91 286.32,233.95 286.93,234.04 287.53,234.12 288.14,234.17 288.75,234.20 289.35,234.22 289.96,234.20 290.57,234.18 291.17,234.22 291.78,234.27 292.39,234.32 292.99,234.37 293.60,234.42 294.21,234.47 294.81,234.51 295.42,234.59 296.03,234.66 296.63,234.74 297.24,234.81 297.85,234.87 298.45,234.86 299.06,234.84 299.67,234.86 300.27,234.88 300.88,234.91 301.49,234.96 302.09,235.01 302.70,235.10 303.31,235.18 303.91,235.24 304.52,235.28 305.12,235.30 305.73,235.28 306.34,235.27 306.94,235.32 307.55,235.37 308.16,235.43 308.76,235.50 309.37,235.55 309.98,235.59 310.58,235.62 311.19,235.66 311.79,235.70 312.40,235.73 313.01,235.77 313.61,235.81 314.22,235.86 314.83,235.90 315.43,235.95 316.04,236.01 316.64,236.08 317.25,236.16 317.86,236.22 318.46,236.25 319.07,236.27 319.68,236.29 320.28,236.30 320.89,236.32 321.49,236.34 322.10,236.37 322.71,236.41 323.31,236.46 323.92,236.52 324.52,236.58 325.13,236.62 325.74,236.64 326.34,236.67 326.95,236.71 327.55,236.75 328.16,236.81 328.77,236.87 329.37,236.93 329.98,236.98 330.58,237.03 331.19,237.08 331.80,237.12 332.40,237.14 333.01,237.16 333.61,237.18 334.22,237.22 334.83,237.25 335.43,237.30 336.04,237.35 336.64,237.40 337.25,237.46 337.86,237.50 338.46,237.55 339.07,237.59 339.67,237.62 340.28,237.65 340.88,237.71 341.49,237.79 342.10,237.88 342.70,237.96 343.31,238.04 343.91,238.10 344.52,238.15 345.12,238.20 345.73,238.24 346.34,238.27 346.94,238.30 347.55,238.33 348.15,238.37 348.76,238.42 349.36,238.48 349.97,238.56 350.58,238.65 351.18,238.77 351.79,238.89 352.39,238.94 353.00,238.96 353.60,238.99 354.21,239.03 354.81,239.07 355.42,239.18 356.03,239.29 356.63,239.36 357.24,239.42 357.84,239.47 358.45,239.52 359.05,239.56 359.66,239.62 360.26,239.68 360.87,239.74 361.47,239.80 362.08,239.86 362.69,239.91 363.29,239.97 363.90,240.03 364.50,240.10 365.11,240.18 365.71,240.26 366.32,240.34 366.92,240.43 367.53,240.53 368.13,240.60 368.74,240.66 369.34,240.72 369.95,240.78 370.55,240.84 371.16,240.92 371.76,241.00 372.37,241.06 372.98,241.11 373.58,241.15 374.19,241.18 374.79,241.22 375.40,241.30 376.00,241.39 376.61,241.46 377.21,241.53 377.82,241.59 378.42,241.62 379.03,241.66 379.63,241.70 380.24,241.74 380.84,241.78 381.45,241.83 382.05,241.90 382.66,242.00 383.26,242.11 383.87,242.18 384.47,242.25 385.08,242.30 385.68,242.35 386.29,242.39 386.89,242.46 387.50,242.53 388.10,242.59 388.71,242.64 389.31,242.67 389.92,242.70 390.52,242.72 391.13,242.76 391.73,242.80 392.34,242.85 392.94,242.90 393.54,242.95 394.15,243.01 394.75,243.07 395.36,243.10 395.96,243.13 396.57,243.16 397.17,243.17 397.78,243.21 398.38,243.27 398.99,243.34 399.59,243.39 400.20,243.44 400.80,243.47 401.41,243.49 402.01,243.51 402.62,243.53 403.22,243.56 403.82,243.57 404.43,243.59 405.03,243.59 405.64,243.57 406.24,243.55 406.85,243.57 407.45,243.58 408.06,243.61 408.66,243.63 409.27,243.66 409.87,243.68 410.47,243.69 411.08,243.68 411.68,243.66 412.29,243.62 412.89,243.57 413.50,243.54 414.10,243.57 414.71,243.60 415.31,243.63 415.91,243.65 416.52,243.66 417.12,243.67 417.73,243.67 418.33,243.66 418.94,243.66 419.54,243.64 420.14,243.63 420.75,243.59 421.35,243.53 421.96,243.48 422.56,243.42 423.17,243.37 423.77,243.32 424.37,243.27 424.98,243.22 425.58,243.19 426.19,243.16 426.79,243.14 427.39,243.13 428.00,243.13 428.60,243.14 429.21,243.12 429.81,243.04 430.41,242.95 431.02,242.85 431.62,242.75 432.23,242.70 432.83,242.68 433.44,242.64 434.04,242.59 434.64,242.53 435.25,242.45 435.85,242.37 436.45,242.28 437.06,242.19 437.66,242.09 438.27,242.03 438.87,241.96 439.47,241.92 440.08,241.90 440.68,241.85 441.29,241.76 441.89,241.68 442.49,241.59 443.10,241.51 443.70,241.46 444.31,241.42 444.91,241.38 445.51,241.34 446.12,241.31 446.72,241.27 447.32,241.22 447.93,241.13 448.53,241.02 449.13,240.91 449.74,240.81 450.34,240.72 450.95,240.66 451.55,240.59 452.15,240.53 452.76,240.47 453.36,240.41 453.96,240.33 454.57,240.25 455.17,240.12 455.77,239.98 456.38,239.88 456.98,239.83 457.59,239.78 458.19,239.76 458.79,239.74 459.40,239.66 460.00,239.55 460.60,239.44 461.21,239.33 461.81,239.22 462.41,239.11 463.02,239.01 463.62,238.95 464.22,238.91 464.83,238.88 465.43,238.84 466.03,238.81 466.64,238.76 467.24,238.71 467.84,238.64 468.45,238.57 469.05,238.50 469.65,238.41 470.26,238.33 470.86,238.23 471.46,238.13 472.07,238.04 472.67,237.98 473.27,237.92 473.88,237.89 474.48,237.87 475.08,237.80 475.68,237.72 476.29,237.65 476.89,237.59 477.49,237.53 478.10,237.50 478.70,237.48 479.30,237.46 479.91,237.45 480.51,237.43 481.11,237.41 481.72,237.38 482.32,237.29 482.92,237.19 483.52,237.10 484.13,237.01 484.73,236.92 485.33,236.84 485.94,236.75 486.54,236.74 487.14,236.75 487.74,236.75 488.35,236.72 488.95,236.69 489.55,236.61 490.16,236.52 490.76,236.48 491.36,236.44 491.96,236.42 492.57,236.40 493.17,236.39 493.77,236.41 494.38,236.44 494.98,236.44 495.58,236.41 496.18,236.39 496.79,236.34 497.39,236.30 497.99,236.28 498.59,236.27 499.20,236.25 499.80,236.22 500.40,236.19 501.00,236.13 501.61,236.08 502.21,236.07 502.81,236.06 503.41,236.05 504.02,236.03 504.62,236.01 505.22,235.93 505.82,235.85 506.43,235.83 507.03,235.84 507.63,235.85 508.23,235.86 508.84,235.88 509.44,235.78 510.04,235.67 510.64,235.60 511.25,235.57 511.85,235.55 512.45,235.58 513.05,235.60 513.66,235.60 514.26,235.58 514.86,235.55 515.46,235.50 516.06,235.45 516.67,235.38 517.27,235.30 517.87,235.25 518.47,235.17 519.08,235.08 519.68,234.98 520.28,234.84 520.88,234.93 521.48,235.06 522.09,235.21 522.69,235.37 523.29,235.56 523.89,235.77 524.49,236.00 525.10,236.07 525.70,236.10 526.30,236.20 526.90,236.35 527.50,236.53 528.11,236.86 528.71,237.21 529.31,237.53 529.91,237.84 530.51,238.15 531.12,238.45 531.72,238.75 532.32,239.00 532.92,239.25 533.52,239.57 534.13,239.94 534.73,240.31 535.33,240.72 535.93,241.12 536.53,241.29 537.13,241.42 537.74,241.57 538.34,241.74 538.94,241.91 539.54,242.12 540.14,242.32 540.75,242.56 541.35,242.80 541.95,243.04 542.55,243.28 543.15,243.52 543.75,243.75 544.36,243.98 544.96,244.20 545.56,244.42 546.16,244.63 546.76,244.83 547.36,245.03 547.96,245.22 548.57,245.41 549.17,245.58 549.77,245.75 550.37,245.92 550.97,246.07 551.57,246.22 552.18,246.40 552.78,246.58 553.38,246.77 553.98,246.95 554.58,247.13 555.18,247.30 555.78,247.48 556.38,247.66 556.99,247.84 557.59,248.02 558.19,248.19 558.79,248.36 559.39,248.48 559.99,248.60 560.59,248.73 561.19,248.87 561.80,249.01 562.40,249.17 563.00,249.31 563.60,249.44 564.20,249.56 564.80,249.68 565.40,249.79 566.00,249.90 566.61,250.00 567.21,250.10 567.81,250.18 568.41,250.25 569.01,250.32 569.61,250.39 570.21,250.46 570.81,250.56 571.41,250.65 572.01,250.73 572.62,250.80 573.22,250.86 573.82,250.91 574.42,250.95 575.02,251.03 575.62,251.10 576.22,251.16 576.82,251.21 577.42,251.26 578.02,251.28 578.62,251.31 579.23,251.34 579.83,251.38 580.43,251.42 581.03,251.45 581.63,251.48 582.23,251.50 582.83,251.51 583.43,251.52 584.03,251.53 584.63,251.53 585.23,251.53 585.83,251.53 586.43,251.53 587.03,251.54 587.64,251.54 588.24,251.53 588.84,251.51 589.44,251.49 590.04,251.46 590.64,251.45 591.24,251.45 591.84,251.44 592.44,251.43 593.04,251.42 593.64,251.40 594.24,251.38 594.84,251.36 595.44,251.35 596.04,251.34 596.64,251.32 597.24,251.31 597.84,251.26 598.44,251.21 599.04,251.16 599.64,251.14 600.24,251.11 600.85,251.10 601.45,251.09 602.05,251.08 602.65,251.07 603.25,251.07 603.85,251.06 604.45,251.05 605.05,251.04 605.65,251.02 606.25,251.00 606.85,250.98 607.45,250.95 608.05,250.93 608.65,250.91 609.25,250.93 609.85,250.95 610.45,250.96 611.05,250.98 611.65,250.99 612.25,251.00 612.85,251.01 613.45,251.04 614.05,251.08 614.65,251.11 615.25,251.15 615.85,251.19 616.45,251.22 617.05,251.25 617.65,251.32 618.25,251.43 618.85,251.54 619.45,251.63 620.05,251.73 620.65,251.79 621.25,251.83 621.85,251.88 622.45,251.97 623.05,252.05 623.65,252.17 624.25,252.29 624.84,252.47 625.44,252.70 626.04,252.92 626.64,253.12 627.24,253.31 627.84,253.48 628.44,253.63 629.04,253.75 629.64,253.86 630.24,253.96 630.84,254.03 631.44,254.09 632.04,254.10 632.64,254.07 633.24,254.03 633.84,253.98 634.44,253.91 635.04,253.79 635.64,253.64 636.24,253.40 636.84,253.06 637.44,252.66 638.03,252.22 638.63,251.73 639.23,251.19 639.83,250.59 640.43,249.91 641.03,249.16 641.63,248.35 642.23,247.42 642.83,246.42 643.43,245.31 644.03,244.12 644.63,242.81 645.23,241.34 645.83,239.77 646.42,238.10 647.02,236.35 647.62,234.51 648.22,232.61 648.82,230.64 649.42,228.63 650.02,226.57 650.62,224.45 651.22,222.28 651.82,220.04 652.42,217.71 653.01,215.34 653.61,213.05 654.21,210.73 654.81,208.46 655.41,206.22 656.01,203.97 656.61,201.71 657.21,199.45 657.81,197.27 658.41,195.11 659.00,193.04 659.60,191.09 660.20,189.17 660.80,187.36 661.40,185.58 662.00,183.85 662.60,182.16 663.20,180.50 663.79,178.86 664.39,177.26 664.99,175.87 665.59,174.54 666.19,173.31 666.79,172.16 667.39,171.01 667.98,169.68 668.58,168.41 669.18,167.21 669.78,166.07 670.38,164.99 670.98,163.98 671.58,163.03 672.17,162.29 672.77,161.60 673.37,160.97 673.97,160.40 674.57,159.84 675.17,159.26 675.77,158.69 676.36,158.21 676.96,157.75 677.56,157.33 678.16,156.93 678.76,156.57 679.36,156.34 679.95,156.13 680.55,156.02 681.15,155.96 681.75,155.96 682.35,156.07 682.95,156.20 683.54,156.49 684.14,156.81 684.74,157.11 685.34,157.39 685.94,157.66 686.53,157.76 687.13,157.87 687.73,158.29 688.33,158.81 688.93,159.43 689.53,160.18 690.12,160.98 690.72,162.14 691.32,163.36 691.92,164.45 692.52,165.47 693.11,166.49 693.71,167.38 694.31,168.30 694.91,168.66 695.51,168.94 696.10,169.31 696.70,169.76 697.30,170.24 697.90,170.90 698.49,171.58 699.09,172.84 699.69,174.35 700.29,175.88 700.89,177.45 701.48,179.04 702.08,180.29 702.68,181.53 703.28,182.64 703.87,183.62 704.47,184.60 705.07,185.48 705.67,186.37 706.27,187.38 706.86,188.43 707.46,189.50 708.06,190.62 708.66,191.74 709.25,192.92 709.85,194.12 710.45,195.72 711.05,197.58 711.64,199.44 712.24,201.26 712.84,203.09 713.44,204.76 714.03,206.41 714.63,208.07 715.23,209.74 715.82,211.41 716.42,213.08 717.02,214.75 717.62,216.36 718.21,217.94 718.81,219.53 719.41,221.14 720.01,222.75 720.60,224.38 721.20,226.00 721.80,227.49 722.40,228.88 722.99,230.25 723.59,231.57 724.19,232.90 724.78,234.16 725.38,235.40 725.98,236.68 726.58,238.07 727.17,239.45 727.77,240.83 728.37,242.19 728.96,243.51 729.56,244.79 730.16,246.04 730.75,247.18 731.35,248.31 731.95,249.40 732.55,250.47 733.14,251.59 733.74,252.79 734.34,253.97 734.93,255.03 735.53,256.08 736.13,257.06 736.72,257.99 737.32,258.87 737.92,259.59 738.51,260.30 739.11,261.00 739.71,261.69 740.30,262.39 740.90,263.10 741.50,263.79 742.09,264.34 742.69,264.88 743.29,265.44 743.88,266.00 744.48,266.62 745.08,267.45 745.67,268.24 746.27,268.87 746.87,269.44 747.46,269.94 748.06,270.37 748.66,270.79 749.25,271.26 749.85,271.71 750.45,272.14 751.04,272.54 751.64,272.92 752.23,273.27 752.83,273.59 753.43,273.83 754.02,274.04 754.62,274.22 755.22,274.37 755.81,274.50 756.41,274.64 757.01,274.74 757.60,274.75 758.20,274.71 758.79,274.65 759.39,274.56 759.99,274.45 760.58,274.40 761.18,274.34 761.77,274.26 762.37,274.17 762.97,274.06 763.56,273.94 764.16,273.80 764.76,273.73 765.35,273.68 765.95,273.61 766.54,273.55 767.14,273.47 767.74,273.38 768.33,273.27 768.93,273.15 769.52,273.00 770.12,272.81 770.71,272.58 771.31,272.30 771.91,271.94 772.50,271.53 773.10,271.07 773.69,270.55 774.29,270.00 774.89,269.39 775.48,268.75 776.08,267.99 776.67,267.15 777.27,266.27 777.86,265.41 778.46,264.51 779.06,263.66 779.65,262.79 780.25,262.09 780.84,261.65 781.44,261.20 782.03,260.74 782.63,260.28 783.22,259.75 783.82,259.16 784.42,258.56 785.01,257.92 785.61,257.28 786.20,256.55 786.80,255.80 787.39,254.88 787.99,253.73 788.58,252.56 789.18,251.29 789.77,250.01 790.37,248.66 790.96,247.28 791.56,245.93 792.16,244.73 792.75,243.51 793.35,242.54 793.94,241.62 794.54,240.88 795.13,240.37 795.73,239.85 796.32,239.03 796.92,238.20 797.51,237.36 798.11,236.51 798.70,235.68 799.30,234.96 799.89,234.23 800.49,233.21 801.08,232.13 801.68,230.94 802.27,229.62 802.87,228.25 803.46,226.31 804.06,224.36 804.65,222.52 805.25,220.73 805.84,218.97 806.44,217.32 807.03,215.67 807.63,214.43 808.22,213.24 808.82,212.10 809.41,211.01 810.01,209.93 810.60,208.99 811.20,208.05 811.79,207.25 812.38,206.51 812.98,205.79 813.57,205.09 814.17,204.38 814.76,203.61 815.36,202.82 815.95,202.11 816.55,201.50 817.14,200.89 817.74,200.35 818.33,199.81 818.93,198.98 819.52,197.99 820.11,197.03 820.71,196.13 821.30,195.22 821.90,194.39 822.49,193.58 823.09,192.44 823.68,190.93 824.27,189.43 824.87,188.02 825.46,186.61 826.06,185.47 826.65,184.46 827.25,183.64 827.84,183.35 828.43,183.06 829.03,182.73 829.62,182.40 830.22,181.35 830.81,179.48 831.41,177.62 832.00,176.00"/>
  <text x="826.00" y="73.87" text-anchor="end" font-size="14" font-weight="700" fill="#2f6fed">Exp by glass/Ag</text><text x="826.00" y="148.00" text-anchor="end" font-size="14" font-weight="700" fill="#047857">TMM fixed</text>
  <line x1="359.05" y1="48" x2="359.05" y2="306" stroke="#344054" stroke-dasharray="8 6" stroke-width="2.5"/><text x="367.05" y="64.00" font-size="14" font-weight="700" fill="#344054">λ = 599.987 nm</text>
  <text x="74" y="348" font-size="14" fill="#475467">在实验曲线与 TMM 曲线上用同一根虚线标出单点 trace 的取值波长。</text>
</svg>