<?xml version="1.0" encoding="utf-8" standalone="no"?>
<!DOCTYPE svg PUBLIC "-//W3C//DTD SVG 1.1//EN"
  "http://www.w3.org/Graphics/SVG/1.1/DTD/svg11.dtd">
<svg xmlns:xlink="http://www.w3.org/1999/xlink" width="885.6pt" height="312.57499pt" viewBox="0 0 885.6 312.57499" xmlns="http://www.w3.org/2000/svg" version="1.1">
 <metadata>
  <rdf:RDF xmlns:dc="http://purl.org/dc/elements/1.1/" xmlns:cc="http://creativecommons.org/ns#" xmlns:rdf="http://www.w3.org/1999/02/22-rdf-syntax-ns#">
   <cc:Work>
    <dc:type rdf:resource="http://purl.org/dc/dcmitype/StillImage"/>
    <dc:date>2026-04-12T22:00:00.042145</dc:date>
    <dc:format>image/svg+xml</dc:format>
    <dc:creator>
     <cc:Agent>
      <dc:title>Matplotlib v3.10.8, https://matplotlib.org/</dc:title>
     </cc:Agent>
    </dc:creator>
   </cc:Work>
  </rdf:RDF>
 </metadata>
 <defs>
  <style type="text/css">*{stroke-linejoin: round; stroke-linecap: butt}</style>
 </defs>
 <g id="figure_1">
  <g id="patch_1">
   <path d="M 0 312.57499 
L 885.6 312.57499 
L 885.6 0 
L 0 0 
z
" style="fill: #ffffff"/>
  </g>
  <g id="axes_1">
   <g id="patch_2">
    <path d="M 18.09 246.330438 
L 103.032 246.330438 
L 103.032 110.527967 
L 18.09 110.527967 
z
" clip-path="url(#p4d8f01e7c8)" style="fill: #f7f7f7; stroke: #666666; stroke-width: 1.15; stroke-linejoin: miter"/>
   </g>
   <g id="patch_3">
    <path d="M 103.032 246.330438 
L 231.534 246.330438 
L 231.534 110.527967 
L 103.032 110.527967 
z
" clip-path="url(#p4d8f01e7c8)" style="fill: #dfe8f5; stroke: #666666; stroke-width: 1.15; stroke-linejoin: miter"/>
   </g>
   <g id="patch_4">
    <path d="M 231.534 246.330438 
L 323.01 246.330438 
L 323.01 110.527967 
L 231.534 110.527967 
z
" clip-path="url(#p4d8f01e7c8)" style="fill: #e8f0cf; stroke: #666666; stroke-width: 1.15; stroke-linejoin: miter"/>
   </g>
   <g id="patch_5">
    <path d="M 323.01 246.330438 
L 407.952 246.330438 
L 407.952 110.527967 
L 323.01 110.527967 
z
" clip-path="url(#p4d8f01e7c8)" style="fill: #f7d8bf; stroke: #666666; stroke-width: 1.15; stroke-linejoin: miter"/>
   </g>
   <g id="patch_6">
    <path d="M 407.952 246.330438 
L 475.47 246.330438 
L 475.47 110.527967 
L 407.952 110.527967 
z
" clip-path="url(#p4d8f01e7c8)" style="fill: #f2f2c2; stroke: #666666; stroke-width: 1.15; stroke-linejoin: miter"/>
   </g>
   <g id="patch_7">
    <path d="M 475.47 246.330438 
L 621.396 246.330438 
L 621.396 110.527967 
L 475.47 110.527967 
z
" clip-path="url(#p4d8f01e7c8)" style="fill: #d8e8cf; stroke: #cf4d32; stroke-width: 2.2; stroke-linejoin: miter"/>
   </g>
   <g id="patch_8">
    <path d="M 621.396 246.330438 
L 699.804 246.330438 
L 699.804 110.527967 
L 621.396 110.527967 
z
" clip-path="url(#p4d8f01e7c8)" style="fill: #e4d8f5; stroke: #666666; stroke-width: 1.15; stroke-linejoin: miter"/>
   </g>
   <g id="patch_9">
    <path d="M 699.804 246.330438 
L 782.568 246.330438 
L 782.568 110.527967 
L 699.804 110.527967 
z
" clip-path="url(#p4d8f01e7c8)" style="fill: #d9d9d9; stroke: #666666; stroke-width: 1.15; stroke-linejoin: miter"/>
   </g>
   <g id="patch_10">
    <path d="M 782.568 246.330438 
L 867.51 246.330438 
L 867.51 110.527967 
L 782.568 110.527967 
z
" clip-path="url(#p4d8f01e7c8)" style="fill: #f7f7f7; stroke: #666666; stroke-width: 1.15; stroke-linejoin: miter"/>
   </g>
   <g id="patch_11">
    <path d="M 41.871247 76.085311 
Q 442.799418 76.085311 841.715129 76.085311 
" clip-path="url(#p4d8f01e7c8)" style="fill: none; stroke: #444444; stroke-width: 1.8; stroke-linecap: round"/>
    <path d="M 835.315129 72.885311 
L 841.715129 76.085311 
L 835.315129 79.285311 
" clip-path="url(#p4d8f01e7c8)" style="fill: none; stroke: #444444; stroke-width: 1.8; stroke-linecap: round"/>
   </g>
   <g id="text_1">
    <!-- Air -->
    <g transform="translate(51.536586 181.23096) scale(0.125 -0.125)">
     <defs>
      <path id="TimesNewRomanPS-BoldMT-41" d="M 2663 1206 
L 1166 1206 
L 988 794 
Q 900 588 900 453 
Q 900 275 1044 191 
Q 1128 141 1459 116 
L 1459 0 
L 50 0 
L 50 116 
Q 278 150 425 304 
Q 572 459 788 944 
L 2303 4325 
L 2363 4325 
L 3891 850 
Q 4109 356 4250 228 
Q 4356 131 4550 116 
L 4550 0 
L 2500 0 
L 2500 116 
L 2584 116 
Q 2831 116 2931 184 
Q 3000 234 3000 328 
Q 3000 384 2981 444 
Q 2975 472 2888 678 
L 2663 1206 
z
M 2556 1438 
L 1925 2897 
L 1275 1438 
L 2556 1438 
z
" transform="scale(0.015625)"/>
      <path id="TimesNewRomanPS-BoldMT-69" d="M 919 4338 
Q 1122 4338 1262 4195 
Q 1403 4053 1403 3853 
Q 1403 3653 1261 3512 
Q 1119 3372 919 3372 
Q 719 3372 578 3512 
Q 438 3653 438 3853 
Q 438 4053 578 4195 
Q 719 4338 919 4338 
z
M 1356 2922 
L 1356 606 
Q 1356 297 1428 211 
Q 1500 125 1709 113 
L 1709 0 
L 131 0 
L 131 113 
Q 325 119 419 225 
Q 481 297 481 606 
L 481 2313 
Q 481 2622 409 2708 
Q 338 2794 131 2806 
L 131 2922 
L 1356 2922 
z
" transform="scale(0.015625)"/>
      <path id="TimesNewRomanPS-BoldMT-72" d="M 1428 2922 
L 1428 2259 
Q 1719 2713 1937 2861 
Q 2156 3009 2359 3009 
Q 2534 3009 2639 2901 
Q 2744 2794 2744 2597 
Q 2744 2388 2642 2272 
Q 2541 2156 2397 2156 
Q 2231 2156 2109 2262 
Q 1988 2369 1966 2381 
Q 1934 2400 1894 2400 
Q 1803 2400 1722 2331 
Q 1594 2225 1528 2028 
Q 1428 1725 1428 1359 
L 1428 688 
L 1431 513 
Q 1431 334 1453 284 
Q 1491 200 1564 161 
Q 1638 122 1813 113 
L 1813 0 
L 234 0 
L 234 113 
Q 425 128 492 217 
Q 559 306 559 688 
L 559 2303 
Q 559 2553 534 2622 
Q 503 2709 443 2750 
Q 384 2791 234 2806 
L 234 2922 
L 1428 2922 
z
" transform="scale(0.015625)"/>
     </defs>
     <use xlink:href="#TimesNewRomanPS-BoldMT-41"/>
     <use xlink:href="#TimesNewRomanPS-BoldMT-69" transform="translate(72.216797 0)"/>
     <use xlink:href="#TimesNewRomanPS-BoldMT-72" transform="translate(100 0)"/>
    </g>
   </g>
   <g id="text_2">
    <!-- Glass -->
    <g transform="translate(152.695109 174.92764) scale(0.125 -0.125)">
     <defs>
      <path id="TimesNewRomanPS-BoldMT-47" d="M 4416 4334 
L 4416 2841 
L 4300 2841 
Q 4091 3453 3672 3772 
Q 3253 4091 2756 4091 
Q 2281 4091 1965 3823 
Q 1650 3556 1519 3078 
Q 1388 2600 1388 2097 
Q 1388 1488 1531 1028 
Q 1675 569 1995 353 
Q 2316 138 2756 138 
Q 2909 138 3070 170 
Q 3231 203 3400 266 
L 3400 1147 
Q 3400 1397 3365 1470 
Q 3331 1544 3223 1603 
Q 3116 1663 2963 1663 
L 2853 1663 
L 2853 1778 
L 4913 1778 
L 4913 1663 
Q 4678 1647 4586 1598 
Q 4494 1550 4444 1438 
Q 4416 1378 4416 1147 
L 4416 266 
Q 4009 84 3570 -8 
Q 3131 -100 2659 -100 
Q 2056 -100 1657 64 
Q 1259 228 954 495 
Q 650 763 478 1097 
Q 259 1528 259 2063 
Q 259 3019 931 3678 
Q 1603 4338 2622 4338 
Q 2938 4338 3191 4288 
Q 3328 4263 3636 4145 
Q 3944 4028 4000 4028 
Q 4088 4028 4163 4092 
Q 4238 4156 4300 4334 
L 4416 4334 
z
" transform="scale(0.015625)"/>
      <path id="TimesNewRomanPS-BoldMT-6c" d="M 1359 4238 
L 1359 606 
Q 1359 297 1431 211 
Q 1503 125 1713 113 
L 1713 0 
L 134 0 
L 134 113 
Q 328 119 422 225 
Q 484 297 484 606 
L 484 3631 
Q 484 3938 412 4023 
Q 341 4109 134 4122 
L 134 4238 
L 1359 4238 
z
" transform="scale(0.015625)"/>
      <path id="TimesNewRomanPS-BoldMT-61" d="M 1828 431 
Q 1294 -41 869 -41 
Q 619 -41 453 123 
Q 288 288 288 534 
Q 288 869 575 1136 
Q 863 1403 1828 1847 
L 1828 2141 
Q 1828 2472 1792 2558 
Q 1756 2644 1656 2708 
Q 1556 2772 1431 2772 
Q 1228 2772 1097 2681 
Q 1016 2625 1016 2550 
Q 1016 2484 1103 2388 
Q 1222 2253 1222 2128 
Q 1222 1975 1108 1867 
Q 994 1759 809 1759 
Q 613 1759 480 1878 
Q 347 1997 347 2156 
Q 347 2381 525 2586 
Q 703 2791 1022 2900 
Q 1341 3009 1684 3009 
Q 2100 3009 2342 2832 
Q 2584 2656 2656 2450 
Q 2700 2319 2700 1847 
L 2700 713 
Q 2700 513 2715 461 
Q 2731 409 2762 384 
Q 2794 359 2834 359 
Q 2916 359 3000 475 
L 3094 400 
Q 2938 169 2770 64 
Q 2603 -41 2391 -41 
Q 2141 -41 2000 76 
Q 1859 194 1828 431 
z
M 1828 659 
L 1828 1638 
Q 1450 1416 1266 1163 
Q 1144 994 1144 822 
Q 1144 678 1247 569 
Q 1325 484 1466 484 
Q 1622 484 1828 659 
z
" transform="scale(0.015625)"/>
      <path id="TimesNewRomanPS-BoldMT-73" d="M 2063 3003 
L 2109 2006 
L 2003 2006 
Q 1813 2450 1608 2612 
Q 1403 2775 1200 2775 
Q 1072 2775 981 2689 
Q 891 2603 891 2491 
Q 891 2406 953 2328 
Q 1053 2200 1512 1889 
Q 1972 1578 2117 1361 
Q 2263 1144 2263 875 
Q 2263 631 2141 397 
Q 2019 163 1797 37 
Q 1575 -88 1306 -88 
Q 1097 -88 747 44 
Q 653 78 619 78 
Q 516 78 447 -78 
L 344 -78 
L 294 972 
L 400 972 
Q 541 559 786 353 
Q 1031 147 1250 147 
Q 1400 147 1495 239 
Q 1591 331 1591 463 
Q 1591 613 1497 722 
Q 1403 831 1078 1053 
Q 600 1384 459 1559 
Q 253 1816 253 2125 
Q 253 2463 486 2736 
Q 719 3009 1159 3009 
Q 1397 3009 1619 2894 
Q 1703 2847 1756 2847 
Q 1813 2847 1847 2870 
Q 1881 2894 1956 3003 
L 2063 3003 
z
" transform="scale(0.015625)"/>
     </defs>
     <use xlink:href="#TimesNewRomanPS-BoldMT-47"/>
     <use xlink:href="#TimesNewRomanPS-BoldMT-6c" transform="translate(77.783203 0)"/>
     <use xlink:href="#TimesNewRomanPS-BoldMT-61" transform="translate(105.566406 0)"/>
     <use xlink:href="#TimesNewRomanPS-BoldMT-73" transform="translate(155.566406 0)"/>
     <use xlink:href="#TimesNewRomanPS-BoldMT-73" transform="translate(194.482422 0)"/>
    </g>
    <!-- 1 mm -->
    <g transform="translate(152.183391 187.53428) scale(0.125 -0.125)">
     <defs>
      <path id="TimesNewRomanPS-BoldMT-31" d="M 2084 4325 
L 2084 859 
Q 2084 469 2118 361 
Q 2153 253 2262 184 
Q 2372 116 2613 116 
L 2709 116 
L 2709 0 
L 478 0 
L 478 116 
L 591 116 
Q 863 116 978 178 
Q 1094 241 1134 350 
Q 1175 459 1175 859 
L 1175 3056 
Q 1175 3350 1147 3423 
Q 1119 3497 1042 3548 
Q 966 3600 866 3600 
Q 706 3600 478 3500 
L 422 3613 
L 1981 4325 
L 2084 4325 
z
" transform="scale(0.015625)"/>
      <path id="TimesNewRomanPS-BoldMT-20" transform="scale(0.015625)"/>
      <path id="TimesNewRomanPS-BoldMT-6d" d="M 1428 2922 
L 1428 2538 
Q 1669 2800 1873 2904 
Q 2078 3009 2322 3009 
Q 2603 3009 2793 2878 
Q 2984 2747 3088 2478 
Q 3338 2759 3567 2884 
Q 3797 3009 4047 3009 
Q 4350 3009 4529 2870 
Q 4709 2731 4779 2517 
Q 4850 2303 4850 1834 
L 4850 638 
Q 4850 300 4911 219 
Q 4972 138 5166 113 
L 5166 0 
L 3656 0 
L 3656 113 
Q 3834 128 3919 250 
Q 3975 334 3975 638 
L 3975 1894 
Q 3975 2284 3944 2390 
Q 3913 2497 3845 2548 
Q 3778 2600 3688 2600 
Q 3553 2600 3415 2501 
Q 3278 2403 3138 2206 
L 3138 638 
Q 3138 322 3191 241 
Q 3263 125 3466 113 
L 3466 0 
L 1953 0 
L 1953 113 
Q 2075 119 2145 173 
Q 2216 228 2239 304 
Q 2263 381 2263 638 
L 2263 1894 
Q 2263 2291 2231 2391 
Q 2200 2491 2126 2547 
Q 2053 2603 1969 2603 
Q 1844 2603 1741 2538 
Q 1594 2441 1428 2206 
L 1428 638 
Q 1428 328 1489 229 
Q 1550 131 1744 113 
L 1744 0 
L 238 0 
L 238 113 
Q 422 131 500 231 
Q 553 300 553 638 
L 553 2288 
Q 553 2619 492 2700 
Q 431 2781 238 2806 
L 238 2922 
L 1428 2922 
z
" transform="scale(0.015625)"/>
     </defs>
     <use xlink:href="#TimesNewRomanPS-BoldMT-31"/>
     <use xlink:href="#TimesNewRomanPS-BoldMT-20" transform="translate(50 0)"/>
     <use xlink:href="#TimesNewRomanPS-BoldMT-6d" transform="translate(75 0)"/>
     <use xlink:href="#TimesNewRomanPS-BoldMT-6d" transform="translate(158.300781 0)"/>
    </g>
   </g>
   <g id="text_3">
    <!-- ITO -->
    <g transform="translate(265.918484 174.92764) scale(0.125 -0.125)">
     <defs>
      <path id="TimesNewRomanPS-BoldMT-49" d="M 2344 116 
L 2344 0 
L 128 0 
L 128 116 
L 269 116 
Q 453 116 566 181 
Q 647 225 691 331 
Q 725 406 725 725 
L 725 3513 
Q 725 3838 690 3919 
Q 656 4000 551 4061 
Q 447 4122 269 4122 
L 128 4122 
L 128 4238 
L 2344 4238 
L 2344 4122 
L 2203 4122 
Q 2019 4122 1906 4056 
Q 1825 4013 1778 3906 
Q 1744 3831 1744 3513 
L 1744 725 
Q 1744 400 1780 319 
Q 1816 238 1920 177 
Q 2025 116 2203 116 
L 2344 116 
z
" transform="scale(0.015625)"/>
      <path id="TimesNewRomanPS-BoldMT-54" d="M 4038 4238 
L 4038 3091 
L 3925 3091 
Q 3825 3488 3703 3661 
Q 3581 3834 3369 3938 
Q 3250 3994 2953 3994 
L 2638 3994 
L 2638 725 
Q 2638 400 2673 319 
Q 2709 238 2814 177 
Q 2919 116 3100 116 
L 3241 116 
L 3241 0 
L 1022 0 
L 1022 116 
L 1163 116 
Q 1347 116 1459 181 
Q 1541 225 1588 331 
Q 1622 406 1622 725 
L 1622 3994 
L 1316 3994 
Q 888 3994 694 3813 
Q 422 3559 350 3091 
L 231 3091 
L 231 4238 
L 4038 4238 
z
" transform="scale(0.015625)"/>
      <path id="TimesNewRomanPS-BoldMT-4f" d="M 2472 4297 
Q 3484 4334 4117 3706 
Q 4750 3078 4750 2134 
Q 4750 1328 4278 716 
Q 3653 -97 2513 -97 
Q 1369 -97 744 678 
Q 250 1291 250 2131 
Q 250 3075 892 3704 
Q 1534 4334 2472 4297 
z
M 2509 4097 
Q 1928 4097 1625 3503 
Q 1378 3016 1378 2103 
Q 1378 1019 1759 500 
Q 2025 138 2503 138 
Q 2825 138 3041 294 
Q 3316 494 3469 933 
Q 3622 1372 3622 2078 
Q 3622 2919 3465 3336 
Q 3309 3753 3067 3925 
Q 2825 4097 2509 4097 
z
" transform="scale(0.015625)"/>
     </defs>
     <use xlink:href="#TimesNewRomanPS-BoldMT-49"/>
     <use xlink:href="#TimesNewRomanPS-BoldMT-54" transform="translate(38.916016 0)"/>
     <use xlink:href="#TimesNewRomanPS-BoldMT-4f" transform="translate(103.865234 0)"/>
    </g>
    <!-- 100 nm -->
    <g transform="translate(257.652859 187.53428) scale(0.125 -0.125)">
     <defs>
      <path id="TimesNewRomanPS-BoldMT-30" d="M 2966 2119 
Q 2966 1484 2788 934 
Q 2681 597 2501 381 
Q 2322 166 2094 39 
Q 1866 -88 1597 -88 
Q 1291 -88 1044 68 
Q 797 225 606 516 
Q 469 728 366 1081 
Q 231 1559 231 2069 
Q 231 2759 425 3338 
Q 584 3816 909 4070 
Q 1234 4325 1597 4325 
Q 1966 4325 2286 4073 
Q 2606 3822 2756 3397 
Q 2966 2813 2966 2119 
z
M 2003 2125 
Q 2003 3238 1991 3422 
Q 1959 3856 1841 4009 
Q 1763 4109 1588 4109 
Q 1453 4109 1375 4034 
Q 1259 3925 1218 3648 
Q 1178 3372 1178 1719 
Q 1178 819 1241 513 
Q 1288 291 1375 216 
Q 1463 141 1606 141 
Q 1763 141 1841 241 
Q 1972 416 1991 781 
L 2003 2125 
z
" transform="scale(0.015625)"/>
      <path id="TimesNewRomanPS-BoldMT-6e" d="M 1409 2922 
L 1409 2544 
Q 1634 2788 1840 2898 
Q 2047 3009 2284 3009 
Q 2569 3009 2756 2851 
Q 2944 2694 3006 2459 
Q 3056 2281 3056 1775 
L 3056 638 
Q 3056 300 3117 217 
Q 3178 134 3372 113 
L 3372 0 
L 1894 0 
L 1894 113 
Q 2059 134 2131 250 
Q 2181 328 2181 638 
L 2181 1938 
Q 2181 2297 2153 2390 
Q 2125 2484 2058 2536 
Q 1991 2588 1909 2588 
Q 1641 2588 1409 2203 
L 1409 638 
Q 1409 309 1470 221 
Q 1531 134 1697 113 
L 1697 0 
L 219 0 
L 219 113 
Q 403 131 481 231 
Q 534 300 534 638 
L 534 2288 
Q 534 2619 473 2700 
Q 413 2781 219 2806 
L 219 2922 
L 1409 2922 
z
" transform="scale(0.015625)"/>
     </defs>
     <use xlink:href="#TimesNewRomanPS-BoldMT-31"/>
     <use xlink:href="#TimesNewRomanPS-BoldMT-30" transform="translate(50 0)"/>
     <use xlink:href="#TimesNewRomanPS-BoldMT-30" transform="translate(100 0)"/>
     <use xlink:href="#TimesNewRomanPS-BoldMT-20" transform="translate(150 0)"/>
     <use xlink:href="#TimesNewRomanPS-BoldMT-6e" transform="translate(175 0)"/>
     <use xlink:href="#TimesNewRomanPS-BoldMT-6d" transform="translate(230.615234 0)"/>
    </g>
   </g>
   <g id="text_4">
    <!-- NiOx -->
    <g transform="translate(351.244672 174.92764) scale(0.125 -0.125)">
     <defs>
      <path id="TimesNewRomanPS-BoldMT-4e" d="M 1594 4238 
L 3684 1609 
L 3684 3431 
Q 3684 3813 3575 3947 
Q 3425 4128 3072 4122 
L 3072 4238 
L 4472 4238 
L 4472 4122 
Q 4203 4088 4111 4033 
Q 4019 3978 3967 3854 
Q 3916 3731 3916 3431 
L 3916 -97 
L 3809 -97 
L 944 3431 
L 944 738 
Q 944 372 1111 244 
Q 1278 116 1494 116 
L 1594 116 
L 1594 0 
L 91 0 
L 91 116 
Q 441 119 578 259 
Q 716 400 716 738 
L 716 3728 
L 625 3841 
Q 491 4009 387 4062 
Q 284 4116 91 4122 
L 91 4238 
L 1594 4238 
z
" transform="scale(0.015625)"/>
      <path id="TimesNewRomanPS-BoldMT-78" d="M 1944 1791 
L 2450 828 
Q 2713 325 2866 191 
Q 2950 119 3097 113 
L 3097 0 
L 1469 0 
L 1469 113 
Q 1659 128 1704 162 
Q 1750 197 1750 256 
Q 1750 344 1650 531 
L 1397 1006 
L 1181 691 
Q 1034 475 1016 434 
Q 991 375 991 328 
Q 991 256 1020 207 
Q 1050 159 1101 136 
Q 1153 113 1291 113 
L 1291 0 
L 147 0 
L 147 113 
Q 359 113 536 230 
Q 713 347 1050 844 
L 1291 1200 
L 788 2131 
Q 541 2588 419 2691 
Q 297 2794 147 2806 
L 147 2922 
L 1766 2922 
L 1766 2806 
L 1681 2803 
L 1519 2747 
Q 1494 2725 1494 2675 
Q 1494 2628 1509 2578 
Q 1519 2556 1597 2409 
L 1825 1984 
L 1944 2153 
Q 2194 2497 2194 2634 
Q 2194 2700 2139 2745 
Q 2084 2791 1944 2806 
L 1944 2922 
L 2978 2922 
L 2978 2806 
Q 2788 2800 2622 2689 
Q 2456 2578 2250 2259 
L 1944 1791 
z
" transform="scale(0.015625)"/>
     </defs>
     <use xlink:href="#TimesNewRomanPS-BoldMT-4e"/>
     <use xlink:href="#TimesNewRomanPS-BoldMT-69" transform="translate(72.216797 0)"/>
     <use xlink:href="#TimesNewRomanPS-BoldMT-4f" transform="translate(100 0)"/>
     <use xlink:href="#TimesNewRomanPS-BoldMT-78" transform="translate(177.783203 0)"/>
    </g>
    <!-- 45 nm -->
    <g transform="translate(348.986859 187.53428) scale(0.125 -0.125)">
     <defs>
      <path id="TimesNewRomanPS-BoldMT-34" d="M 159 1597 
L 2172 4325 
L 2553 4325 
L 2553 1597 
L 2941 1597 
L 2941 950 
L 2553 950 
L 2553 0 
L 1694 0 
L 1694 950 
L 159 950 
L 159 1597 
z
M 463 1597 
L 1694 1597 
L 1694 3269 
L 463 1597 
z
" transform="scale(0.015625)"/>
      <path id="TimesNewRomanPS-BoldMT-35" d="M 975 4238 
L 2959 4238 
L 2644 3431 
L 975 3431 
L 816 3009 
Q 1894 2969 2475 2472 
Q 2953 2063 2953 1453 
Q 2953 1063 2731 689 
Q 2509 316 2106 114 
Q 1703 -88 1222 -88 
Q 703 -88 425 106 
Q 231 244 231 419 
Q 231 553 332 656 
Q 434 759 569 759 
Q 691 759 816 709 
Q 941 659 1244 447 
Q 1434 316 1572 266 
Q 1669 228 1791 228 
Q 2047 228 2226 415 
Q 2406 603 2406 866 
Q 2406 1416 1856 1759 
Q 1306 2103 469 2103 
Q 384 2103 216 2100 
L 975 4238 
z
" transform="scale(0.015625)"/>
     </defs>
     <use xlink:href="#TimesNewRomanPS-BoldMT-34"/>
     <use xlink:href="#TimesNewRomanPS-BoldMT-35" transform="translate(50 0)"/>
     <use xlink:href="#TimesNewRomanPS-BoldMT-20" transform="translate(100 0)"/>
     <use xlink:href="#TimesNewRomanPS-BoldMT-6e" transform="translate(125 0)"/>
     <use xlink:href="#TimesNewRomanPS-BoldMT-6d" transform="translate(180.615234 0)"/>
    </g>
   </g>
   <g id="text_5">
    <!-- SAM -->
    <g transform="translate(427.822328 174.92764) scale(0.125 -0.125)">
     <defs>
      <path id="TimesNewRomanPS-BoldMT-53" d="M 3006 4334 
L 3041 2922 
L 2913 2922 
Q 2822 3453 2467 3776 
Q 2113 4100 1700 4100 
Q 1381 4100 1195 3929 
Q 1009 3759 1009 3538 
Q 1009 3397 1075 3288 
Q 1166 3141 1366 2997 
Q 1513 2894 2044 2631 
Q 2788 2266 3047 1941 
Q 3303 1616 3303 1197 
Q 3303 666 2889 283 
Q 2475 -100 1838 -100 
Q 1638 -100 1459 -59 
Q 1281 -19 1013 94 
Q 863 156 766 156 
Q 684 156 593 93 
Q 503 31 447 -97 
L 331 -97 
L 331 1503 
L 447 1503 
Q 584 828 976 473 
Q 1369 119 1822 119 
Q 2172 119 2380 309 
Q 2588 500 2588 753 
Q 2588 903 2508 1043 
Q 2428 1184 2265 1311 
Q 2103 1438 1691 1641 
Q 1113 1925 859 2125 
Q 606 2325 470 2572 
Q 334 2819 334 3116 
Q 334 3622 706 3978 
Q 1078 4334 1644 4334 
Q 1850 4334 2044 4284 
Q 2191 4247 2402 4145 
Q 2613 4044 2697 4044 
Q 2778 4044 2825 4094 
Q 2872 4144 2913 4334 
L 3006 4334 
z
" transform="scale(0.015625)"/>
      <path id="TimesNewRomanPS-BoldMT-4d" d="M 3050 1444 
L 4200 4238 
L 5925 4238 
L 5925 4122 
L 5788 4122 
Q 5600 4122 5488 4056 
Q 5409 4013 5363 3909 
Q 5328 3834 5328 3519 
L 5328 725 
Q 5328 400 5362 319 
Q 5397 238 5503 177 
Q 5609 116 5788 116 
L 5925 116 
L 5925 0 
L 3713 0 
L 3713 116 
L 3850 116 
Q 4038 116 4150 181 
Q 4228 225 4275 331 
Q 4309 406 4309 725 
L 4309 3866 
L 2684 0 
L 2609 0 
L 959 3838 
L 959 853 
Q 959 541 975 469 
Q 1016 313 1152 214 
Q 1288 116 1578 116 
L 1578 0 
L 128 0 
L 128 116 
L 172 116 
Q 313 113 434 161 
Q 556 209 618 290 
Q 681 372 716 519 
Q 722 553 722 838 
L 722 3519 
Q 722 3841 687 3920 
Q 653 4000 547 4061 
Q 441 4122 263 4122 
L 128 4122 
L 128 4238 
L 1859 4238 
L 3050 1444 
z
" transform="scale(0.015625)"/>
     </defs>
     <use xlink:href="#TimesNewRomanPS-BoldMT-53"/>
     <use xlink:href="#TimesNewRomanPS-BoldMT-41" transform="translate(55.615234 0)"/>
     <use xlink:href="#TimesNewRomanPS-BoldMT-4d" transform="translate(127.832031 0)"/>
    </g>
    <!-- 5 nm -->
    <g transform="translate(428.341859 187.53428) scale(0.125 -0.125)">
     <use xlink:href="#TimesNewRomanPS-BoldMT-35"/>
     <use xlink:href="#TimesNewRomanPS-BoldMT-20" transform="translate(50 0)"/>
     <use xlink:href="#TimesNewRomanPS-BoldMT-6e" transform="translate(75 0)"/>
     <use xlink:href="#TimesNewRomanPS-BoldMT-6d" transform="translate(130.615234 0)"/>
    </g>
   </g>
   <g id="text_6">
    <!-- PVK -->
    <g transform="translate(535.240617 174.92764) scale(0.125 -0.125)">
     <defs>
      <path id="TimesNewRomanPS-BoldMT-50" d="M 1728 1919 
L 1728 744 
Q 1728 400 1770 311 
Q 1813 222 1920 169 
Q 2028 116 2316 116 
L 2316 0 
L 163 0 
L 163 116 
Q 456 116 561 170 
Q 666 225 708 312 
Q 750 400 750 744 
L 750 3494 
Q 750 3838 708 3927 
Q 666 4016 559 4069 
Q 453 4122 163 4122 
L 163 4238 
L 2009 4238 
Q 2922 4238 3319 3913 
Q 3716 3588 3716 3100 
Q 3716 2688 3459 2394 
Q 3203 2100 2753 1994 
Q 2450 1919 1728 1919 
z
M 1728 3994 
L 1728 2163 
Q 1831 2156 1884 2156 
Q 2266 2156 2472 2382 
Q 2678 2609 2678 3084 
Q 2678 3556 2472 3775 
Q 2266 3994 1856 3994 
L 1728 3994 
z
" transform="scale(0.015625)"/>
      <path id="TimesNewRomanPS-BoldMT-56" d="M 4556 4238 
L 4556 4122 
Q 4325 4084 4144 3875 
Q 4013 3719 3753 3141 
L 2294 -97 
L 2191 -97 
L 738 3272 
Q 475 3881 386 3987 
Q 297 4094 50 4122 
L 50 4238 
L 2081 4238 
L 2081 4122 
L 2013 4122 
Q 1738 4122 1638 4053 
Q 1566 4006 1566 3916 
Q 1566 3859 1591 3782 
Q 1616 3706 1759 3372 
L 2663 1263 
L 3500 3141 
Q 3650 3481 3684 3597 
Q 3719 3713 3719 3794 
Q 3719 3888 3669 3959 
Q 3619 4031 3522 4069 
Q 3388 4122 3166 4122 
L 3166 4238 
L 4556 4238 
z
" transform="scale(0.015625)"/>
      <path id="TimesNewRomanPS-BoldMT-4b" d="M 2666 2616 
L 4156 750 
Q 4472 356 4700 216 
Q 4866 116 5050 116 
L 5050 0 
L 2844 0 
L 2844 116 
Q 3053 134 3114 181 
Q 3175 228 3175 297 
Q 3175 428 2888 791 
L 1916 2013 
L 1759 1881 
L 1759 725 
Q 1759 394 1796 312 
Q 1834 231 1940 173 
Q 2047 116 2281 116 
L 2281 0 
L 144 0 
L 144 116 
L 284 116 
Q 469 116 581 181 
Q 663 225 706 331 
Q 741 406 741 725 
L 741 3513 
Q 741 3838 706 3919 
Q 672 4000 567 4061 
Q 463 4122 284 4122 
L 144 4122 
L 144 4238 
L 2253 4238 
L 2253 4122 
Q 2038 4122 1925 4059 
Q 1844 4016 1797 3913 
Q 1759 3834 1759 3513 
L 1759 2194 
L 3331 3466 
Q 3659 3731 3659 3891 
Q 3659 4009 3525 4078 
Q 3456 4113 3184 4122 
L 3184 4238 
L 4838 4238 
L 4838 4122 
Q 4616 4106 4489 4042 
Q 4363 3978 3906 3609 
L 2666 2616 
z
" transform="scale(0.015625)"/>
     </defs>
     <use xlink:href="#TimesNewRomanPS-BoldMT-50"/>
     <use xlink:href="#TimesNewRomanPS-BoldMT-56" transform="translate(61.083984 0)"/>
     <use xlink:href="#TimesNewRomanPS-BoldMT-4b" transform="translate(133.300781 0)"/>
    </g>
    <!-- 700 nm -->
    <g transform="translate(528.813859 187.53428) scale(0.125 -0.125)">
     <defs>
      <path id="TimesNewRomanPS-BoldMT-37" d="M 1134 -88 
L 2288 3409 
L 1409 3409 
Q 894 3409 634 3275 
Q 453 3181 334 2922 
L 216 2922 
L 522 4238 
L 3047 4238 
L 1625 -88 
L 1134 -88 
z
" transform="scale(0.015625)"/>
     </defs>
     <use xlink:href="#TimesNewRomanPS-BoldMT-37"/>
     <use xlink:href="#TimesNewRomanPS-BoldMT-30" transform="translate(50 0)"/>
     <use xlink:href="#TimesNewRomanPS-BoldMT-30" transform="translate(100 0)"/>
     <use xlink:href="#TimesNewRomanPS-BoldMT-20" transform="translate(150 0)"/>
     <use xlink:href="#TimesNewRomanPS-BoldMT-6e" transform="translate(175 0)"/>
     <use xlink:href="#TimesNewRomanPS-BoldMT-6d" transform="translate(230.615234 0)"/>
    </g>
   </g>
   <g id="text_7">
    <!-- C60 -->
    <g transform="translate(649.836328 174.92764) scale(0.125 -0.125)">
     <defs>
      <path id="TimesNewRomanPS-BoldMT-43" d="M 4272 4334 
L 4272 2866 
L 4150 2866 
Q 4013 3441 3638 3747 
Q 3263 4053 2788 4053 
Q 2391 4053 2059 3825 
Q 1728 3597 1575 3228 
Q 1378 2756 1378 2178 
Q 1378 1609 1522 1142 
Q 1666 675 1972 436 
Q 2278 197 2766 197 
Q 3166 197 3498 372 
Q 3831 547 4200 975 
L 4200 609 
Q 3844 238 3458 70 
Q 3072 -97 2556 -97 
Q 1878 -97 1351 175 
Q 825 447 539 956 
Q 253 1466 253 2041 
Q 253 2647 570 3190 
Q 888 3734 1427 4034 
Q 1966 4334 2572 4334 
Q 3019 4334 3516 4141 
Q 3803 4028 3881 4028 
Q 3981 4028 4054 4101 
Q 4128 4175 4150 4334 
L 4272 4334 
z
" transform="scale(0.015625)"/>
      <path id="TimesNewRomanPS-BoldMT-36" d="M 3006 4325 
L 3006 4238 
Q 2441 4094 2098 3867 
Q 1756 3641 1557 3317 
Q 1359 2994 1250 2516 
Q 1388 2609 1478 2638 
Q 1681 2700 1888 2700 
Q 2363 2700 2680 2354 
Q 2997 2009 2997 1413 
Q 2997 994 2825 644 
Q 2653 294 2337 103 
Q 2022 -88 1663 -88 
Q 1272 -88 940 126 
Q 609 341 423 753 
Q 238 1166 238 1650 
Q 238 2363 580 2977 
Q 922 3591 1551 3955 
Q 2181 4319 3006 4325 
z
M 1209 2263 
Q 1184 1831 1184 1631 
Q 1184 1200 1267 797 
Q 1350 394 1494 231 
Q 1597 116 1738 116 
Q 1881 116 1993 283 
Q 2106 450 2106 963 
Q 2106 1825 1897 2153 
Q 1763 2366 1534 2366 
Q 1409 2366 1209 2263 
z
" transform="scale(0.015625)"/>
     </defs>
     <use xlink:href="#TimesNewRomanPS-BoldMT-43"/>
     <use xlink:href="#TimesNewRomanPS-BoldMT-36" transform="translate(72.216797 0)"/>
     <use xlink:href="#TimesNewRomanPS-BoldMT-30" transform="translate(122.216797 0)"/>
    </g>
    <!-- 15 nm -->
    <g transform="translate(644.105859 187.53428) scale(0.125 -0.125)">
     <use xlink:href="#TimesNewRomanPS-BoldMT-31"/>
     <use xlink:href="#TimesNewRomanPS-BoldMT-35" transform="translate(50 0)"/>
     <use xlink:href="#TimesNewRomanPS-BoldMT-20" transform="translate(100 0)"/>
     <use xlink:href="#TimesNewRomanPS-BoldMT-6e" transform="translate(125 0)"/>
     <use xlink:href="#TimesNewRomanPS-BoldMT-6d" transform="translate(180.615234 0)"/>
    </g>
   </g>
   <g id="text_8">
    <!-- Ag -->
    <g transform="translate(733.547328 175.000882) scale(0.125 -0.125)">
     <defs>
      <path id="TimesNewRomanPS-BoldMT-67" d="M 2091 2888 
L 3075 2888 
L 3075 2544 
L 2516 2544 
Q 2669 2391 2728 2266 
Q 2803 2097 2803 1913 
Q 2803 1600 2629 1370 
Q 2456 1141 2157 1011 
Q 1859 881 1628 881 
Q 1609 881 1253 897 
Q 1113 897 1017 805 
Q 922 713 922 584 
Q 922 472 1008 400 
Q 1094 328 1288 328 
L 1828 334 
Q 2484 334 2731 191 
Q 3084 -9 3084 -425 
Q 3084 -691 2921 -908 
Q 2759 -1125 2494 -1228 
Q 2091 -1381 1566 -1381 
Q 1172 -1381 847 -1304 
Q 522 -1228 381 -1092 
Q 241 -956 241 -806 
Q 241 -663 348 -548 
Q 456 -434 750 -356 
Q 344 -156 344 200 
Q 344 416 509 619 
Q 675 822 1034 972 
Q 616 1125 428 1375 
Q 241 1625 241 1953 
Q 241 2381 591 2695 
Q 941 3009 1491 3009 
Q 1781 3009 2091 2888 
z
M 1550 2816 
Q 1369 2816 1244 2633 
Q 1119 2450 1119 1875 
Q 1119 1409 1242 1236 
Q 1366 1063 1534 1063 
Q 1722 1063 1847 1234 
Q 1972 1406 1972 1903 
Q 1972 2463 1831 2666 
Q 1731 2816 1550 2816 
z
M 1366 -431 
Q 1047 -431 944 -484 
Q 766 -581 766 -747 
Q 766 -906 950 -1036 
Q 1134 -1166 1644 -1166 
Q 2078 -1166 2326 -1050 
Q 2575 -934 2575 -725 
Q 2575 -647 2528 -594 
Q 2444 -500 2273 -465 
Q 2103 -431 1366 -431 
z
" transform="scale(0.015625)"/>
     </defs>
     <use xlink:href="#TimesNewRomanPS-BoldMT-41"/>
     <use xlink:href="#TimesNewRomanPS-BoldMT-67" transform="translate(72.216797 0)"/>
    </g>
    <!-- 100 nm -->
    <g transform="translate(721.566859 187.63096) scale(0.125 -0.125)">
     <use xlink:href="#TimesNewRomanPS-BoldMT-31"/>
     <use xlink:href="#TimesNewRomanPS-BoldMT-30" transform="translate(50 0)"/>
     <use xlink:href="#TimesNewRomanPS-BoldMT-30" transform="translate(100 0)"/>
     <use xlink:href="#TimesNewRomanPS-BoldMT-20" transform="translate(150 0)"/>
     <use xlink:href="#TimesNewRomanPS-BoldMT-6e" transform="translate(175 0)"/>
     <use xlink:href="#TimesNewRomanPS-BoldMT-6d" transform="translate(230.615234 0)"/>
    </g>
   </g>
   <g id="text_9">
    <!-- Air -->
    <g transform="translate(816.014586 181.23096) scale(0.125 -0.125)">
     <use xlink:href="#TimesNewRomanPS-BoldMT-41"/>
     <use xlink:href="#TimesNewRomanPS-BoldMT-69" transform="translate(72.216797 0)"/>
     <use xlink:href="#TimesNewRomanPS-BoldMT-72" transform="translate(100 0)"/>
    </g>
   </g>
   <g id="text_10">
    <!-- Incident light -->
    <g transform="translate(28.98 53.598637) scale(0.13 -0.13)">
     <defs>
      <path id="TimesNewRomanPS-BoldMT-63" d="M 2600 753 
L 2697 678 
Q 2491 291 2183 101 
Q 1875 -88 1528 -88 
Q 944 -88 594 353 
Q 244 794 244 1413 
Q 244 2009 563 2463 
Q 947 3009 1622 3009 
Q 2075 3009 2342 2781 
Q 2609 2553 2609 2272 
Q 2609 2094 2501 1987 
Q 2394 1881 2219 1881 
Q 2034 1881 1914 2003 
Q 1794 2125 1766 2438 
Q 1747 2634 1675 2713 
Q 1603 2791 1506 2791 
Q 1356 2791 1250 2631 
Q 1088 2391 1088 1894 
Q 1088 1481 1219 1104 
Q 1350 728 1578 544 
Q 1750 409 1984 409 
Q 2138 409 2275 481 
Q 2413 553 2600 753 
z
" transform="scale(0.015625)"/>
      <path id="TimesNewRomanPS-BoldMT-64" d="M 3056 4238 
L 3056 875 
Q 3056 534 3075 472 
Q 3100 369 3170 319 
Q 3241 269 3416 256 
L 3416 153 
L 2181 -88 
L 2181 375 
Q 1959 106 1786 9 
Q 1613 -88 1394 -88 
Q 834 -88 509 413 
Q 247 819 247 1409 
Q 247 1881 409 2254 
Q 572 2628 855 2818 
Q 1138 3009 1463 3009 
Q 1672 3009 1834 2928 
Q 1997 2847 2181 2644 
L 2181 3525 
Q 2181 3859 2153 3928 
Q 2116 4019 2041 4062 
Q 1966 4106 1759 4106 
L 1759 4238 
L 3056 4238 
z
M 2181 2256 
Q 1950 2700 1616 2700 
Q 1500 2700 1425 2638 
Q 1309 2541 1236 2297 
Q 1163 2053 1163 1550 
Q 1163 997 1244 731 
Q 1325 466 1466 347 
Q 1538 288 1663 288 
Q 1938 288 2181 719 
L 2181 2256 
z
" transform="scale(0.015625)"/>
      <path id="TimesNewRomanPS-BoldMT-65" d="M 2691 1566 
L 1088 1566 
Q 1116 984 1397 647 
Q 1613 388 1916 388 
Q 2103 388 2256 492 
Q 2409 597 2584 869 
L 2691 800 
Q 2453 316 2165 114 
Q 1878 -88 1500 -88 
Q 850 -88 516 413 
Q 247 816 247 1413 
Q 247 2144 642 2576 
Q 1038 3009 1569 3009 
Q 2013 3009 2339 2645 
Q 2666 2281 2691 1566 
z
M 1922 1775 
Q 1922 2278 1867 2465 
Q 1813 2653 1697 2750 
Q 1631 2806 1522 2806 
Q 1359 2806 1256 2647 
Q 1072 2369 1072 1884 
L 1072 1775 
L 1922 1775 
z
" transform="scale(0.015625)"/>
      <path id="TimesNewRomanPS-BoldMT-74" d="M 1375 3991 
L 1375 2922 
L 2069 2922 
L 2069 2613 
L 1375 2613 
L 1375 809 
Q 1375 556 1398 482 
Q 1422 409 1481 364 
Q 1541 319 1591 319 
Q 1794 319 1975 628 
L 2069 559 
Q 1816 -41 1247 -41 
Q 969 -41 776 114 
Q 584 269 531 459 
Q 500 566 500 1034 
L 500 2613 
L 119 2613 
L 119 2722 
Q 513 3000 789 3306 
Q 1066 3613 1272 3991 
L 1375 3991 
z
" transform="scale(0.015625)"/>
      <path id="TimesNewRomanPS-BoldMT-68" d="M 1409 4238 
L 1409 2547 
Q 1650 2800 1850 2904 
Q 2050 3009 2266 3009 
Q 2541 3009 2736 2853 
Q 2931 2697 2995 2486 
Q 3059 2275 3059 1775 
L 3059 634 
Q 3059 300 3121 217 
Q 3184 134 3375 113 
L 3375 0 
L 1894 0 
L 1894 113 
Q 2050 134 2128 238 
Q 2184 319 2184 634 
L 2184 1938 
Q 2184 2300 2156 2392 
Q 2128 2484 2061 2536 
Q 1994 2588 1909 2588 
Q 1784 2588 1665 2502 
Q 1547 2416 1409 2200 
L 1409 634 
Q 1409 322 1456 244 
Q 1516 138 1700 113 
L 1700 0 
L 219 0 
L 219 113 
Q 403 131 481 231 
Q 534 300 534 634 
L 534 3603 
Q 534 3934 473 4015 
Q 413 4097 219 4122 
L 219 4238 
L 1409 4238 
z
" transform="scale(0.015625)"/>
     </defs>
     <use xlink:href="#TimesNewRomanPS-BoldMT-49"/>
     <use xlink:href="#TimesNewRomanPS-BoldMT-6e" transform="translate(38.916016 0)"/>
     <use xlink:href="#TimesNewRomanPS-BoldMT-63" transform="translate(94.53125 0)"/>
     <use xlink:href="#TimesNewRomanPS-BoldMT-69" transform="translate(138.916016 0)"/>
     <use xlink:href="#TimesNewRomanPS-BoldMT-64" transform="translate(166.699219 0)"/>
     <use xlink:href="#TimesNewRomanPS-BoldMT-65" transform="translate(222.314453 0)"/>
     <use xlink:href="#TimesNewRomanPS-BoldMT-6e" transform="translate(266.699219 0)"/>
     <use xlink:href="#TimesNewRomanPS-BoldMT-74" transform="translate(322.314453 0)"/>
     <use xlink:href="#TimesNewRomanPS-BoldMT-20" transform="translate(355.615234 0)"/>
     <use xlink:href="#TimesNewRomanPS-BoldMT-6c" transform="translate(380.615234 0)"/>
     <use xlink:href="#TimesNewRomanPS-BoldMT-69" transform="translate(408.398438 0)"/>
     <use xlink:href="#TimesNewRomanPS-BoldMT-67" transform="translate(436.181641 0)"/>
     <use xlink:href="#TimesNewRomanPS-BoldMT-68" transform="translate(486.181641 0)"/>
     <use xlink:href="#TimesNewRomanPS-BoldMT-74" transform="translate(541.796875 0)"/>
    </g>
   </g>
   <g id="text_11">
    <!-- observable = R_total -->
    <g style="fill: #005b96" transform="translate(741.612656 53.598637) scale(0.13 -0.13)">
     <defs>
      <path id="TimesNewRomanPS-BoldMT-6f" d="M 1594 3009 
Q 1975 3009 2303 2812 
Q 2631 2616 2801 2253 
Q 2972 1891 2972 1459 
Q 2972 838 2656 419 
Q 2275 -88 1603 -88 
Q 944 -88 587 375 
Q 231 838 231 1447 
Q 231 2075 595 2542 
Q 959 3009 1594 3009 
z
M 1606 2788 
Q 1447 2788 1333 2667 
Q 1219 2547 1183 2192 
Q 1147 1838 1147 1206 
Q 1147 872 1191 581 
Q 1225 359 1337 243 
Q 1450 128 1594 128 
Q 1734 128 1828 206 
Q 1950 313 1991 503 
Q 2053 800 2053 1703 
Q 2053 2234 1993 2432 
Q 1934 2631 1819 2722 
Q 1738 2788 1606 2788 
z
" transform="scale(0.015625)"/>
      <path id="TimesNewRomanPS-BoldMT-62" d="M 1347 4238 
L 1347 2628 
Q 1716 3009 2153 3009 
Q 2453 3009 2718 2832 
Q 2984 2656 3134 2331 
Q 3284 2006 3284 1581 
Q 3284 1103 3093 712 
Q 2903 322 2584 117 
Q 2266 -88 1856 -88 
Q 1619 -88 1434 -12 
Q 1250 63 1072 231 
L 588 -84 
L 481 -84 
L 481 3631 
Q 481 3884 459 3944 
Q 428 4031 361 4073 
Q 294 4116 134 4122 
L 134 4238 
L 1347 4238 
z
M 1347 2350 
L 1347 1050 
Q 1347 653 1366 544 
Q 1397 359 1515 245 
Q 1634 131 1819 131 
Q 1978 131 2092 222 
Q 2206 313 2282 581 
Q 2359 850 2359 1550 
Q 2359 2222 2191 2472 
Q 2069 2653 1863 2653 
Q 1594 2653 1347 2350 
z
" transform="scale(0.015625)"/>
      <path id="TimesNewRomanPS-BoldMT-76" d="M 1534 -88 
L 550 2178 
Q 372 2588 272 2697 
Q 200 2778 59 2806 
L 59 2922 
L 1613 2922 
L 1613 2806 
Q 1466 2806 1413 2753 
Q 1338 2684 1338 2591 
Q 1338 2475 1475 2156 
L 1956 1059 
L 2341 2006 
Q 2506 2413 2506 2581 
Q 2506 2678 2436 2739 
Q 2366 2800 2188 2806 
L 2188 2922 
L 3144 2922 
L 3144 2806 
Q 3006 2788 2918 2703 
Q 2831 2619 2656 2206 
L 1681 -88 
L 1534 -88 
z
" transform="scale(0.015625)"/>
      <path id="TimesNewRomanPS-BoldMT-3d" d="M 125 2825 
L 3544 2825 
L 3544 2419 
L 125 2419 
L 125 2825 
z
M 125 1803 
L 3544 1803 
L 3544 1397 
L 125 1397 
L 125 1803 
z
" transform="scale(0.015625)"/>
      <path id="TimesNewRomanPS-BoldMT-52" d="M 1700 1931 
L 1700 744 
Q 1700 400 1742 311 
Q 1784 222 1890 169 
Q 1997 116 2288 116 
L 2288 0 
L 119 0 
L 119 116 
Q 413 116 517 170 
Q 622 225 664 312 
Q 706 400 706 744 
L 706 3494 
Q 706 3838 664 3927 
Q 622 4016 515 4069 
Q 409 4122 119 4122 
L 119 4238 
L 2088 4238 
Q 2856 4238 3212 4131 
Q 3569 4025 3794 3739 
Q 4019 3453 4019 3069 
Q 4019 2600 3681 2294 
Q 3466 2100 3078 2003 
L 4097 569 
Q 4297 291 4381 222 
Q 4509 125 4678 116 
L 4678 0 
L 3344 0 
L 1978 1931 
L 1700 1931 
z
M 1700 4009 
L 1700 2153 
L 1878 2153 
Q 2313 2153 2528 2233 
Q 2744 2313 2867 2520 
Q 2991 2728 2991 3063 
Q 2991 3547 2764 3778 
Q 2538 4009 2034 4009 
L 1700 4009 
z
" transform="scale(0.015625)"/>
      <path id="TimesNewRomanPS-BoldMT-5f" d="M -59 -972 
L 3259 -972 
L 3259 -1381 
L -59 -1381 
L -59 -972 
z
" transform="scale(0.015625)"/>
     </defs>
     <use xlink:href="#TimesNewRomanPS-BoldMT-6f"/>
     <use xlink:href="#TimesNewRomanPS-BoldMT-62" transform="translate(50 0)"/>
     <use xlink:href="#TimesNewRomanPS-BoldMT-73" transform="translate(105.615234 0)"/>
     <use xlink:href="#TimesNewRomanPS-BoldMT-65" transform="translate(144.53125 0)"/>
     <use xlink:href="#TimesNewRomanPS-BoldMT-72" transform="translate(188.916016 0)"/>
     <use xlink:href="#TimesNewRomanPS-BoldMT-76" transform="translate(233.300781 0)"/>
     <use xlink:href="#TimesNewRomanPS-BoldMT-61" transform="translate(283.300781 0)"/>
     <use xlink:href="#TimesNewRomanPS-BoldMT-62" transform="translate(333.300781 0)"/>
     <use xlink:href="#TimesNewRomanPS-BoldMT-6c" transform="translate(388.916016 0)"/>
     <use xlink:href="#TimesNewRomanPS-BoldMT-65" transform="translate(416.699219 0)"/>
     <use xlink:href="#TimesNewRomanPS-BoldMT-20" transform="translate(461.083984 0)"/>
     <use xlink:href="#TimesNewRomanPS-BoldMT-3d" transform="translate(486.083984 0)"/>
     <use xlink:href="#TimesNewRomanPS-BoldMT-20" transform="translate(543.066406 0)"/>
     <use xlink:href="#TimesNewRomanPS-BoldMT-52" transform="translate(568.066406 0)"/>
     <use xlink:href="#TimesNewRomanPS-BoldMT-5f" transform="translate(640.283203 0)"/>
     <use xlink:href="#TimesNewRomanPS-BoldMT-74" transform="translate(690.283203 0)"/>
     <use xlink:href="#TimesNewRomanPS-BoldMT-6f" transform="translate(723.583984 0)"/>
     <use xlink:href="#TimesNewRomanPS-BoldMT-74" transform="translate(773.583984 0)"/>
     <use xlink:href="#TimesNewRomanPS-BoldMT-61" transform="translate(806.884766 0)"/>
     <use xlink:href="#TimesNewRomanPS-BoldMT-6c" transform="translate(856.884766 0)"/>
    </g>
   </g>
   <g id="text_12">
    <!-- glass front surface = incoherent -->
    <g style="fill: #444444" transform="translate(121.545 272.900486) scale(0.115 -0.115)">
     <defs>
      <path id="TimesNewRomanPS-BoldMT-66" d="M 1497 2616 
L 1497 588 
Q 1497 294 1559 219 
Q 1659 103 1928 113 
L 1928 0 
L 206 0 
L 206 113 
Q 403 116 486 158 
Q 569 200 600 275 
Q 631 350 631 588 
L 631 2616 
L 206 2616 
L 206 2922 
L 631 2922 
L 631 3138 
L 628 3284 
Q 628 3734 958 4034 
Q 1288 4334 1850 4334 
Q 2234 4334 2420 4190 
Q 2606 4047 2606 3872 
Q 2606 3731 2490 3628 
Q 2375 3525 2184 3525 
Q 2022 3525 1926 3609 
Q 1831 3694 1831 3797 
Q 1831 3825 1850 3913 
Q 1863 3966 1863 4013 
Q 1863 4078 1825 4109 
Q 1775 4156 1703 4156 
Q 1613 4156 1552 4081 
Q 1491 4006 1491 3841 
L 1497 3294 
L 1497 2922 
L 1928 2922 
L 1928 2616 
L 1497 2616 
z
" transform="scale(0.015625)"/>
      <path id="TimesNewRomanPS-BoldMT-75" d="M 3038 2922 
L 3038 634 
Q 3038 300 3100 217 
Q 3163 134 3353 113 
L 3353 0 
L 2163 0 
L 2163 391 
Q 1953 141 1743 26 
Q 1534 -88 1275 -88 
Q 1028 -88 836 64 
Q 644 216 578 419 
Q 513 622 513 1128 
L 513 2288 
Q 513 2619 452 2700 
Q 391 2781 197 2806 
L 197 2922 
L 1388 2922 
L 1388 925 
Q 1388 613 1417 522 
Q 1447 431 1511 384 
Q 1575 338 1659 338 
Q 1772 338 1863 397 
Q 1988 478 2163 725 
L 2163 2288 
Q 2163 2619 2102 2700 
Q 2041 2781 1847 2806 
L 1847 2922 
L 3038 2922 
z
" transform="scale(0.015625)"/>
     </defs>
     <use xlink:href="#TimesNewRomanPS-BoldMT-67"/>
     <use xlink:href="#TimesNewRomanPS-BoldMT-6c" transform="translate(50 0)"/>
     <use xlink:href="#TimesNewRomanPS-BoldMT-61" transform="translate(77.783203 0)"/>
     <use xlink:href="#TimesNewRomanPS-BoldMT-73" transform="translate(127.783203 0)"/>
     <use xlink:href="#TimesNewRomanPS-BoldMT-73" transform="translate(166.699219 0)"/>
     <use xlink:href="#TimesNewRomanPS-BoldMT-20" transform="translate(205.615234 0)"/>
     <use xlink:href="#TimesNewRomanPS-BoldMT-66" transform="translate(230.615234 0)"/>
     <use xlink:href="#TimesNewRomanPS-BoldMT-72" transform="translate(263.916016 0)"/>
     <use xlink:href="#TimesNewRomanPS-BoldMT-6f" transform="translate(306.550781 0)"/>
     <use xlink:href="#TimesNewRomanPS-BoldMT-6e" transform="translate(356.550781 0)"/>
     <use xlink:href="#TimesNewRomanPS-BoldMT-74" transform="translate(412.166016 0)"/>
     <use xlink:href="#TimesNewRomanPS-BoldMT-20" transform="translate(445.466797 0)"/>
     <use xlink:href="#TimesNewRomanPS-BoldMT-73" transform="translate(470.466797 0)"/>
     <use xlink:href="#TimesNewRomanPS-BoldMT-75" transform="translate(509.382812 0)"/>
     <use xlink:href="#TimesNewRomanPS-BoldMT-72" transform="translate(564.998047 0)"/>
     <use xlink:href="#TimesNewRomanPS-BoldMT-66" transform="translate(609.382812 0)"/>
     <use xlink:href="#TimesNewRomanPS-BoldMT-61" transform="translate(642.683594 0)"/>
     <use xlink:href="#TimesNewRomanPS-BoldMT-63" transform="translate(692.683594 0)"/>
     <use xlink:href="#TimesNewRomanPS-BoldMT-65" transform="translate(737.068359 0)"/>
     <use xlink:href="#TimesNewRomanPS-BoldMT-20" transform="translate(781.453125 0)"/>
     <use xlink:href="#TimesNewRomanPS-BoldMT-3d" transform="translate(806.453125 0)"/>
     <use xlink:href="#TimesNewRomanPS-BoldMT-20" transform="translate(863.435547 0)"/>
     <use xlink:href="#TimesNewRomanPS-BoldMT-69" transform="translate(888.435547 0)"/>
     <use xlink:href="#TimesNewRomanPS-BoldMT-6e" transform="translate(916.21875 0)"/>
     <use xlink:href="#TimesNewRomanPS-BoldMT-63" transform="translate(971.833984 0)"/>
     <use xlink:href="#TimesNewRomanPS-BoldMT-6f" transform="translate(1016.21875 0)"/>
     <use xlink:href="#TimesNewRomanPS-BoldMT-68" transform="translate(1066.21875 0)"/>
     <use xlink:href="#TimesNewRomanPS-BoldMT-65" transform="translate(1121.833984 0)"/>
     <use xlink:href="#TimesNewRomanPS-BoldMT-72" transform="translate(1166.21875 0)"/>
     <use xlink:href="#TimesNewRomanPS-BoldMT-65" transform="translate(1208.853516 0)"/>
     <use xlink:href="#TimesNewRomanPS-BoldMT-6e" transform="translate(1253.238281 0)"/>
     <use xlink:href="#TimesNewRomanPS-BoldMT-74" transform="translate(1308.853516 0)"/>
    </g>
   </g>
   <g id="text_13">
    <!-- thin-film stack = coherent -->
    <g style="fill: #444444" transform="translate(425.8116 272.900486) scale(0.115 -0.115)">
     <defs>
      <path id="TimesNewRomanPS-BoldMT-2d" d="M 1978 1147 
L 156 1147 
L 156 1794 
L 1978 1794 
L 1978 1147 
z
" transform="scale(0.015625)"/>
      <path id="TimesNewRomanPS-BoldMT-6b" d="M 1403 4238 
L 1403 1450 
L 2081 2116 
Q 2291 2319 2342 2409 
Q 2394 2500 2394 2584 
Q 2394 2669 2325 2725 
Q 2256 2781 2056 2806 
L 2056 2922 
L 3366 2922 
L 3366 2806 
Q 3178 2797 3037 2717 
Q 2897 2638 2488 2238 
L 2169 1925 
L 2856 919 
Q 3272 306 3350 231 
Q 3456 125 3619 113 
L 3619 0 
L 2109 0 
L 2109 113 
Q 2209 113 2254 150 
Q 2300 188 2300 231 
Q 2300 303 2169 497 
L 1591 1344 
L 1403 1159 
L 1403 634 
Q 1403 300 1465 217 
Q 1528 134 1722 113 
L 1722 0 
L 213 0 
L 213 113 
Q 397 131 475 231 
Q 528 300 528 634 
L 528 3603 
Q 528 3934 467 4015 
Q 406 4097 213 4122 
L 213 4238 
L 1403 4238 
z
" transform="scale(0.015625)"/>
     </defs>
     <use xlink:href="#TimesNewRomanPS-BoldMT-74"/>
     <use xlink:href="#TimesNewRomanPS-BoldMT-68" transform="translate(33.300781 0)"/>
     <use xlink:href="#TimesNewRomanPS-BoldMT-69" transform="translate(88.916016 0)"/>
     <use xlink:href="#TimesNewRomanPS-BoldMT-6e" transform="translate(116.699219 0)"/>
     <use xlink:href="#TimesNewRomanPS-BoldMT-2d" transform="translate(172.314453 0)"/>
     <use xlink:href="#TimesNewRomanPS-BoldMT-66" transform="translate(205.615234 0)"/>
     <use xlink:href="#TimesNewRomanPS-BoldMT-69" transform="translate(238.916016 0)"/>
     <use xlink:href="#TimesNewRomanPS-BoldMT-6c" transform="translate(266.699219 0)"/>
     <use xlink:href="#TimesNewRomanPS-BoldMT-6d" transform="translate(294.482422 0)"/>
     <use xlink:href="#TimesNewRomanPS-BoldMT-20" transform="translate(377.783203 0)"/>
     <use xlink:href="#TimesNewRomanPS-BoldMT-73" transform="translate(402.783203 0)"/>
     <use xlink:href="#TimesNewRomanPS-BoldMT-74" transform="translate(441.699219 0)"/>
     <use xlink:href="#TimesNewRomanPS-BoldMT-61" transform="translate(475 0)"/>
     <use xlink:href="#TimesNewRomanPS-BoldMT-63" transform="translate(525 0)"/>
     <use xlink:href="#TimesNewRomanPS-BoldMT-6b" transform="translate(569.384766 0)"/>
     <use xlink:href="#TimesNewRomanPS-BoldMT-20" transform="translate(625 0)"/>
     <use xlink:href="#TimesNewRomanPS-BoldMT-3d" transform="translate(650 0)"/>
     <use xlink:href="#TimesNewRomanPS-BoldMT-20" transform="translate(706.982422 0)"/>
     <use xlink:href="#TimesNewRomanPS-BoldMT-63" transform="translate(731.982422 0)"/>
     <use xlink:href="#TimesNewRomanPS-BoldMT-6f" transform="translate(776.367188 0)"/>
     <use xlink:href="#TimesNewRomanPS-BoldMT-68" transform="translate(826.367188 0)"/>
     <use xlink:href="#TimesNewRomanPS-BoldMT-65" transform="translate(881.982422 0)"/>
     <use xlink:href="#TimesNewRomanPS-BoldMT-72" transform="translate(926.367188 0)"/>
     <use xlink:href="#TimesNewRomanPS-BoldMT-65" transform="translate(969.001953 0)"/>
     <use xlink:href="#TimesNewRomanPS-BoldMT-6e" transform="translate(1013.386719 0)"/>
     <use xlink:href="#TimesNewRomanPS-BoldMT-74" transform="translate(1069.001953 0)"/>
    </g>
   </g>
   <g id="text_14">
    <!-- only PVK thickness is varied -->
    <g style="fill: #666666" transform="translate(369.1275 96.570864) scale(0.12 -0.12)">
     <defs>
      <path id="TimesNewRomanPS-BoldMT-79" d="M 1556 -119 
L 613 2047 
Q 400 2538 298 2650 
Q 197 2763 53 2806 
L 53 2922 
L 1606 2922 
L 1606 2806 
Q 1453 2800 1390 2747 
Q 1328 2694 1328 2619 
Q 1328 2500 1484 2150 
L 1984 1006 
L 2325 1891 
Q 2509 2363 2509 2547 
Q 2509 2663 2432 2731 
Q 2356 2800 2163 2806 
L 2163 2922 
L 3141 2922 
L 3141 2806 
Q 2997 2791 2906 2695 
Q 2816 2600 2603 2047 
L 1769 -119 
Q 1453 -931 1300 -1119 
Q 1084 -1381 759 -1381 
Q 500 -1381 339 -1232 
Q 178 -1084 178 -875 
Q 178 -694 289 -575 
Q 400 -456 563 -456 
Q 719 -456 814 -556 
Q 909 -656 913 -866 
Q 916 -984 941 -1019 
Q 966 -1053 1013 -1053 
Q 1088 -1053 1172 -963 
Q 1297 -831 1466 -363 
L 1556 -119 
z
" transform="scale(0.015625)"/>
     </defs>
     <use xlink:href="#TimesNewRomanPS-BoldMT-6f"/>
     <use xlink:href="#TimesNewRomanPS-BoldMT-6e" transform="translate(50 0)"/>
     <use xlink:href="#TimesNewRomanPS-BoldMT-6c" transform="translate(105.615234 0)"/>
     <use xlink:href="#TimesNewRomanPS-BoldMT-79" transform="translate(133.398438 0)"/>
     <use xlink:href="#TimesNewRomanPS-BoldMT-20" transform="translate(183.398438 0)"/>
     <use xlink:href="#TimesNewRomanPS-BoldMT-50" transform="translate(208.398438 0)"/>
     <use xlink:href="#TimesNewRomanPS-BoldMT-56" transform="translate(269.482422 0)"/>
     <use xlink:href="#TimesNewRomanPS-BoldMT-4b" transform="translate(341.699219 0)"/>
     <use xlink:href="#TimesNewRomanPS-BoldMT-20" transform="translate(419.482422 0)"/>
     <use xlink:href="#TimesNewRomanPS-BoldMT-74" transform="translate(444.482422 0)"/>
     <use xlink:href="#TimesNewRomanPS-BoldMT-68" transform="translate(477.783203 0)"/>
     <use xlink:href="#TimesNewRomanPS-BoldMT-69" transform="translate(533.398438 0)"/>
     <use xlink:href="#TimesNewRomanPS-BoldMT-63" transform="translate(561.181641 0)"/>
     <use xlink:href="#TimesNewRomanPS-BoldMT-6b" transform="translate(605.566406 0)"/>
     <use xlink:href="#TimesNewRomanPS-BoldMT-6e" transform="translate(661.181641 0)"/>
     <use xlink:href="#TimesNewRomanPS-BoldMT-65" transform="translate(716.796875 0)"/>
     <use xlink:href="#TimesNewRomanPS-BoldMT-73" transform="translate(761.181641 0)"/>
     <use xlink:href="#TimesNewRomanPS-BoldMT-73" transform="translate(800.097656 0)"/>
     <use xlink:href="#TimesNewRomanPS-BoldMT-20" transform="translate(839.013672 0)"/>
     <use xlink:href="#TimesNewRomanPS-BoldMT-69" transform="translate(864.013672 0)"/>
     <use xlink:href="#TimesNewRomanPS-BoldMT-73" transform="translate(891.796875 0)"/>
     <use xlink:href="#TimesNewRomanPS-BoldMT-20" transform="translate(930.712891 0)"/>
     <use xlink:href="#TimesNewRomanPS-BoldMT-76" transform="translate(955.712891 0)"/>
     <use xlink:href="#TimesNewRomanPS-BoldMT-61" transform="translate(1005.712891 0)"/>
     <use xlink:href="#TimesNewRomanPS-BoldMT-72" transform="translate(1055.712891 0)"/>
     <use xlink:href="#TimesNewRomanPS-BoldMT-69" transform="translate(1100.097656 0)"/>
     <use xlink:href="#TimesNewRomanPS-BoldMT-65" transform="translate(1127.880859 0)"/>
     <use xlink:href="#TimesNewRomanPS-BoldMT-64" transform="translate(1172.265625 0)"/>
    </g>
   </g>
   <g id="patch_12">
    <path d="M 548.433 40.721398 
Q 548.433 73.640669 548.433 104.435675 
" style="fill: none; stroke: #cf4d32; stroke-width: 1.9; stroke-linecap: round"/>
    <path d="M 551.333 98.635675 
L 548.433 104.435675 
L 545.533 98.635675 
z
" style="fill: #cf4d32; stroke: #cf4d32; stroke-width: 1.9; stroke-linecap: round"/>
   </g>
   <g id="text_15">
    <!-- PVK thickness scan -->
    <g style="fill: #cf4d32" transform="translate(487.204484 18.058964) scale(0.145 -0.145)">
     <use xlink:href="#TimesNewRomanPS-BoldMT-50"/>
     <use xlink:href="#TimesNewRomanPS-BoldMT-56" transform="translate(61.083984 0)"/>
     <use xlink:href="#TimesNewRomanPS-BoldMT-4b" transform="translate(133.300781 0)"/>
     <use xlink:href="#TimesNewRomanPS-BoldMT-20" transform="translate(211.083984 0)"/>
     <use xlink:href="#TimesNewRomanPS-BoldMT-74" transform="translate(236.083984 0)"/>
     <use xlink:href="#TimesNewRomanPS-BoldMT-68" transform="translate(269.384766 0)"/>
     <use xlink:href="#TimesNewRomanPS-BoldMT-69" transform="translate(325 0)"/>
     <use xlink:href="#TimesNewRomanPS-BoldMT-63" transform="translate(352.783203 0)"/>
     <use xlink:href="#TimesNewRomanPS-BoldMT-6b" transform="translate(397.167969 0)"/>
     <use xlink:href="#TimesNewRomanPS-BoldMT-6e" transform="translate(452.783203 0)"/>
     <use xlink:href="#TimesNewRomanPS-BoldMT-65" transform="translate(508.398438 0)"/>
     <use xlink:href="#TimesNewRomanPS-BoldMT-73" transform="translate(552.783203 0)"/>
     <use xlink:href="#TimesNewRomanPS-BoldMT-73" transform="translate(591.699219 0)"/>
     <use xlink:href="#TimesNewRomanPS-BoldMT-20" transform="translate(630.615234 0)"/>
     <use xlink:href="#TimesNewRomanPS-BoldMT-73" transform="translate(655.615234 0)"/>
     <use xlink:href="#TimesNewRomanPS-BoldMT-63" transform="translate(694.53125 0)"/>
     <use xlink:href="#TimesNewRomanPS-BoldMT-61" transform="translate(738.916016 0)"/>
     <use xlink:href="#TimesNewRomanPS-BoldMT-6e" transform="translate(788.916016 0)"/>
    </g>
    <!-- $d_{PVK}$ = variable -->
    <g style="fill: #cf4d32" transform="translate(498.3355 33.620636) scale(0.145 -0.145)">
     <defs>
      <path id="DejaVuSans-BoldOblique-64" d="M 1966 722 
Q 2397 722 2667 1119 
Q 2938 1516 2938 2156 
Q 2938 2447 2786 2609 
Q 2634 2772 2363 2772 
Q 1938 2772 1663 2380 
Q 1388 1988 1388 1375 
Q 1388 1056 1536 889 
Q 1684 722 1966 722 
z
M 3144 2988 
L 3506 4863 
L 4634 4863 
L 3688 0 
L 2559 0 
L 2663 506 
Q 2406 200 2125 54 
Q 1844 -91 1509 -91 
Q 919 -91 575 284 
Q 231 659 231 1306 
Q 231 1709 351 2090 
Q 472 2472 697 2784 
Q 981 3178 1339 3381 
Q 1697 3584 2106 3584 
Q 2466 3584 2717 3439 
Q 2969 3294 3144 2988 
z
" transform="scale(0.015625)"/>
      <path id="DejaVuSans-BoldOblique-50" d="M 1044 4666 
L 3041 4666 
Q 3775 4666 4189 4330 
Q 4603 3994 4603 3397 
Q 4603 3031 4465 2701 
Q 4328 2372 4072 2125 
Q 3794 1859 3409 1739 
Q 3025 1619 2444 1619 
L 1650 1619 
L 1338 0 
L 134 0 
L 1044 4666 
z
M 2081 3794 
L 1825 2491 
L 2491 2491 
Q 2916 2491 3141 2691 
Q 3366 2891 3366 3272 
Q 3366 3525 3205 3659 
Q 3044 3794 2741 3794 
L 2081 3794 
z
" transform="scale(0.015625)"/>
      <path id="DejaVuSans-BoldOblique-56" d="M 488 4666 
L 1631 4666 
L 2203 1178 
L 4134 4666 
L 5375 4666 
L 2741 0 
L 1306 0 
L 488 4666 
z
" transform="scale(0.015625)"/>
      <path id="DejaVuSans-BoldOblique-4b" d="M 1044 4666 
L 2247 4666 
L 1919 2988 
L 3903 4666 
L 5356 4666 
L 2681 2400 
L 4697 0 
L 3284 0 
L 1716 1947 
L 1338 0 
L 134 0 
L 1044 4666 
z
" transform="scale(0.015625)"/>
     </defs>
     <use xlink:href="#DejaVuSans-BoldOblique-64" transform="translate(0 0.015625)"/>
     <use xlink:href="#DejaVuSans-BoldOblique-50" transform="translate(71.582031 -16.390625) scale(0.7)"/>
     <use xlink:href="#DejaVuSans-BoldOblique-56" transform="translate(122.885742 -16.390625) scale(0.7)"/>
     <use xlink:href="#DejaVuSans-BoldOblique-4b" transform="translate(177.060547 -16.390625) scale(0.7)"/>
     <use xlink:href="#TimesNewRomanPS-BoldMT-20" transform="translate(234.038086 0.015625)"/>
     <use xlink:href="#TimesNewRomanPS-BoldMT-3d" transform="translate(259.038086 0.015625)"/>
     <use xlink:href="#TimesNewRomanPS-BoldMT-20" transform="translate(316.020508 0.015625)"/>
     <use xlink:href="#TimesNewRomanPS-BoldMT-76" transform="translate(341.020508 0.015625)"/>
     <use xlink:href="#TimesNewRomanPS-BoldMT-61" transform="translate(391.020508 0.015625)"/>
     <use xlink:href="#TimesNewRomanPS-BoldMT-72" transform="translate(441.020508 0.015625)"/>
     <use xlink:href="#TimesNewRomanPS-BoldMT-69" transform="translate(485.405273 0.015625)"/>
     <use xlink:href="#TimesNewRomanPS-BoldMT-61" transform="translate(513.188477 0.015625)"/>
     <use xlink:href="#TimesNewRomanPS-BoldMT-62" transform="translate(563.188477 0.015625)"/>
     <use xlink:href="#TimesNewRomanPS-BoldMT-6c" transform="translate(618.803711 0.015625)"/>
     <use xlink:href="#TimesNewRomanPS-BoldMT-65" transform="translate(646.586914 0.015625)"/>
    </g>
   </g>
   <g id="text_16">
    <!-- only PVK thickness is varied. -->
    <g style="fill: #bf5b04" transform="translate(367.6275 297.763526) scale(0.12 -0.12)">
     <defs>
      <path id="TimesNewRomanPS-BoldMT-2e" d="M 800 963 
Q 1019 963 1170 809 
Q 1322 656 1322 441 
Q 1322 225 1169 73 
Q 1016 -78 800 -78 
Q 584 -78 432 73 
Q 281 225 281 441 
Q 281 656 432 809 
Q 584 963 800 963 
z
" transform="scale(0.015625)"/>
     </defs>
     <use xlink:href="#TimesNewRomanPS-BoldMT-6f"/>
     <use xlink:href="#TimesNewRomanPS-BoldMT-6e" transform="translate(50 0)"/>
     <use xlink:href="#TimesNewRomanPS-BoldMT-6c" transform="translate(105.615234 0)"/>
     <use xlink:href="#TimesNewRomanPS-BoldMT-79" transform="translate(133.398438 0)"/>
     <use xlink:href="#TimesNewRomanPS-BoldMT-20" transform="translate(183.398438 0)"/>
     <use xlink:href="#TimesNewRomanPS-BoldMT-50" transform="translate(208.398438 0)"/>
     <use xlink:href="#TimesNewRomanPS-BoldMT-56" transform="translate(269.482422 0)"/>
     <use xlink:href="#TimesNewRomanPS-BoldMT-4b" transform="translate(341.699219 0)"/>
     <use xlink:href="#TimesNewRomanPS-BoldMT-20" transform="translate(419.482422 0)"/>
     <use xlink:href="#TimesNewRomanPS-BoldMT-74" transform="translate(444.482422 0)"/>
     <use xlink:href="#TimesNewRomanPS-BoldMT-68" transform="translate(477.783203 0)"/>
     <use xlink:href="#TimesNewRomanPS-BoldMT-69" transform="translate(533.398438 0)"/>
     <use xlink:href="#TimesNewRomanPS-BoldMT-63" transform="translate(561.181641 0)"/>
     <use xlink:href="#TimesNewRomanPS-BoldMT-6b" transform="translate(605.566406 0)"/>
     <use xlink:href="#TimesNewRomanPS-BoldMT-6e" transform="translate(661.181641 0)"/>
     <use xlink:href="#TimesNewRomanPS-BoldMT-65" transform="translate(716.796875 0)"/>
     <use xlink:href="#TimesNewRomanPS-BoldMT-73" transform="translate(761.181641 0)"/>
     <use xlink:href="#TimesNewRomanPS-BoldMT-73" transform="translate(800.097656 0)"/>
     <use xlink:href="#TimesNewRomanPS-BoldMT-20" transform="translate(839.013672 0)"/>
     <use xlink:href="#TimesNewRomanPS-BoldMT-69" transform="translate(864.013672 0)"/>
     <use xlink:href="#TimesNewRomanPS-BoldMT-73" transform="translate(891.796875 0)"/>
     <use xlink:href="#TimesNewRomanPS-BoldMT-20" transform="translate(930.712891 0)"/>
     <use xlink:href="#TimesNewRomanPS-BoldMT-76" transform="translate(955.712891 0)"/>
     <use xlink:href="#TimesNewRomanPS-BoldMT-61" transform="translate(1005.712891 0)"/>
     <use xlink:href="#TimesNewRomanPS-BoldMT-72" transform="translate(1055.712891 0)"/>
     <use xlink:href="#TimesNewRomanPS-BoldMT-69" transform="translate(1100.097656 0)"/>
     <use xlink:href="#TimesNewRomanPS-BoldMT-65" transform="translate(1127.880859 0)"/>
     <use xlink:href="#TimesNewRomanPS-BoldMT-64" transform="translate(1172.265625 0)"/>
     <use xlink:href="#TimesNewRomanPS-BoldMT-2e" transform="translate(1227.880859 0)"/>
    </g>
   </g>
  </g>
 </g>
 <defs>
  <clipPath id="p4d8f01e7c8">
   <rect x="7.2" y="7.2" width="871.2" height="298.17499"/>
  </clipPath>
 </defs>
</svg>
