<svg xmlns="http://www.w3.org/2000/svg" width="1200" height="800" viewBox="0 0 1200 800">
<rect width="100%" height="100%" fill="white"/>
<text x="600.0" y="40" text-anchor="middle" font-size="28" font-family="Arial">Si Green-2008 Review Plot (400-1000 nm)</text>
<line x1="100" y1="700" x2="1100" y2="700" stroke="black"/>
<line x1="100" y1="80" x2="100" y2="700" stroke="#1f77b4"/>
<line x1="1100" y1="80" x2="1100" y2="700" stroke="#d62728"/>
<polyline fill="none" stroke="#1f77b4" stroke-width="3" points="100.00,80.00 116.67,165.93 133.33,229.99 150.00,281.61 166.67,323.20 183.33,359.94 200.00,391.52 216.67,418.84 233.33,442.53 250.00,463.48 266.67,480.48 283.33,496.57 300.00,511.15 316.67,523.90 333.33,535.74 350.00,546.37 366.67,556.08 383.33,565.19 400.00,573.39 416.67,580.98 433.33,587.96 450.00,594.64 466.67,600.71 483.33,606.48 500.00,611.95 516.67,617.11 533.33,621.97 550.00,626.52 566.67,631.08 583.33,635.33 600.00,638.97 616.67,642.92 633.33,646.26 650.00,649.60 666.67,652.63 683.33,655.67 700.00,658.40 716.67,661.14 733.33,663.57 750.00,665.99 766.67,668.42 783.33,670.55 800.00,672.67 816.67,674.80 833.33,676.92 850.00,678.75 866.67,680.57 883.33,682.09 900.00,683.91 916.67,685.43 933.33,686.94 950.00,688.46 966.67,689.98 983.33,691.19 1000.00,692.71 1016.67,693.93 1033.33,695.14 1050.00,696.36 1066.67,697.57 1083.33,698.79 1100.00,700.00"/>
<polyline fill="none" stroke="#d62728" stroke-width="3" points="100.00,80.00 116.67,224.53 133.33,331.35 150.00,410.95 166.67,475.88 183.33,519.23 200.00,550.49 216.67,569.95 233.33,584.79 250.00,597.09 266.67,607.49 283.33,617.54 300.00,623.73 316.67,630.65 333.33,636.54 350.00,641.42 366.67,646.05 383.33,649.46 400.00,652.82 416.67,655.84 433.33,658.25 450.00,661.36 466.67,663.62 483.33,665.56 500.00,667.68 516.67,669.77 533.33,671.73 550.00,673.31 566.67,675.06 583.33,676.54 600.00,677.95 616.67,678.93 633.33,679.84 650.00,681.26 666.67,682.49 683.33,683.62 700.00,684.93 716.67,685.88 733.33,686.61 750.00,687.78 766.67,688.67 783.33,689.54 800.00,690.34 816.67,691.05 833.33,691.74 850.00,692.43 866.67,693.13 883.33,693.75 900.00,694.38 916.67,694.91 933.33,695.45 950.00,695.89 966.67,696.32 983.33,696.76 1000.00,697.13 1016.67,697.53 1033.33,697.86 1050.00,698.17 1066.67,698.43 1083.33,698.65 1100.00,698.86"/>
<text x="600.0" y="770" text-anchor="middle" font-size="22" font-family="Arial">Wavelength (nm)</text>
<text x="30" y="400.0" transform="rotate(-90 30 400.0)" text-anchor="middle" font-size="20" fill="#1f77b4" font-family="Arial">n (real part)</text>
<text x="1180" y="400.0" transform="rotate(90 1180 400.0)" text-anchor="middle" font-size="20" fill="#d62728" font-family="Arial">k (imag part)</text>
<rect x="900" y="80" width="220" height="80" fill="white" stroke="#ccc"/>
<line x1="920" y1="110" x2="970" y2="110" stroke="#1f77b4" stroke-width="3"/><text x="980" y="116" font-size="18" font-family="Arial">n_si</text>
<line x1="920" y1="140" x2="970" y2="140" stroke="#d62728" stroke-width="3"/><text x="980" y="146" font-size="18" font-family="Arial">k_si</text>
</svg>